{"glyphs":{"0":{"ha":694,"x_min":0,"x_max":579,"o":"m 116 926 l 116 1042 l 347 1042 l 463 1042 l 463 926 l 579 926 l 579 463 l 579 116 l 463 116 l 463 0 l 347 0 l 116 0 l 116 116 l 0 116 l 0 463 l 0 926 l 116 926 l 116 926 m 463 463 l 463 926 l 347 926 l 116 926 l 116 463 l 116 116 l 347 116 l 463 116 l 463 463 z "},"1":{"ha":694,"x_min":0,"x_max":579,"o":"m 116 926 l 116 1042 l 231 1042 l 347 1042 l 347 579 l 347 116 l 463 116 l 579 116 l 579 0 l 347 0 l 0 0 l 0 116 l 116 116 l 231 116 l 231 463 l 231 926 l 116 926 l 116 810 l 116 810 l 0 810 l 0 926 l 116 926 l 116 926 z "},"2":{"ha":694,"x_min":0,"x_max":579,"o":"m 116 926 l 116 1042 l 347 1042 l 463 1042 l 463 926 l 579 926 l 579 694 l 579 579 l 463 579 l 463 463 l 347 463 l 347 347 l 347 347 l 231 347 l 231 231 l 116 231 l 116 116 l 347 116 l 579 116 l 579 0 l 347 0 l 0 0 l 0 116 l 0 231 l 116 231 l 116 231 l 116 347 l 231 347 l 231 463 l 347 463 l 347 463 l 347 579 l 463 579 l 463 694 l 463 926 l 347 926 l 116 926 l 116 810 l 116 810 l 0 810 l 0 926 l 116 926 l 116 926 z "},"3":{"ha":694,"x_min":0,"x_max":579,"o":"m 116 926 l 116 1042 l 347 1042 l 463 1042 l 463 926 l 579 926 l 579 694 l 579 579 l 463 579 l 463 463 l 579 463 l 579 231 l 579 116 l 463 116 l 463 0 l 347 0 l 116 0 l 116 116 l 0 116 l 0 231 l 116 231 l 116 116 l 347 116 l 463 116 l 463 231 l 463 463 l 347 463 l 231 463 l 231 579 l 347 579 l 463 579 l 463 694 l 463 926 l 347 926 l 116 926 l 116 810 l 116 810 l 0 810 l 0 926 l 116 926 l 116 926 z "},"4":{"ha":694,"x_min":0,"x_max":579,"o":"m 347 926 l 347 1042 l 463 1042 l 463 694 l 463 347 l 579 347 l 579 231 l 579 231 l 463 231 l 463 116 l 463 0 l 347 0 l 347 116 l 347 231 l 116 231 l 0 231 l 0 347 l 0 463 l 116 463 l 116 579 l 116 694 l 231 694 l 231 810 l 231 926 l 347 926 l 347 926 m 347 463 l 347 694 l 231 694 l 231 579 l 231 463 l 116 463 l 116 347 l 231 347 l 347 347 l 347 463 z "},"5":{"ha":694,"x_min":0,"x_max":579,"o":"m 0 694 l 0 1042 l 347 1042 l 579 1042 l 579 926 l 347 926 l 116 926 l 116 810 l 116 694 l 347 694 l 463 694 l 463 579 l 579 579 l 579 347 l 579 116 l 463 116 l 463 0 l 347 0 l 116 0 l 116 116 l 0 116 l 0 231 l 116 231 l 116 116 l 347 116 l 463 116 l 463 347 l 463 579 l 347 579 l 116 579 l 116 463 l 116 463 l 0 463 l 0 694 z "},"6":{"ha":694,"x_min":0,"x_max":579,"o":"m 116 926 l 116 1042 l 347 1042 l 463 1042 l 463 926 l 579 926 l 579 810 l 579 810 l 463 810 l 463 926 l 347 926 l 116 926 l 116 694 l 116 579 l 231 579 l 231 694 l 347 694 l 463 694 l 463 579 l 579 579 l 579 347 l 579 116 l 463 116 l 463 0 l 347 0 l 116 0 l 116 116 l 0 116 l 0 463 l 0 926 l 116 926 l 116 926 m 463 347 l 463 579 l 347 579 l 231 579 l 231 463 l 116 463 l 116 231 l 116 116 l 347 116 l 463 116 l 463 347 z "},"7":{"ha":694,"x_min":0,"x_max":579,"o":"m 0 926 l 0 1042 l 347 1042 l 579 1042 l 579 926 l 579 810 l 463 810 l 463 694 l 347 694 l 347 463 l 347 347 l 231 347 l 231 116 l 231 0 l 116 0 l 116 116 l 116 347 l 231 347 l 231 463 l 231 694 l 347 694 l 347 694 l 347 810 l 463 810 l 463 926 l 231 926 l 0 926 z "},"8":{"ha":694,"x_min":0,"x_max":579,"o":"m 116 926 l 116 1042 l 347 1042 l 463 1042 l 463 926 l 579 926 l 579 694 l 579 579 l 463 579 l 463 463 l 579 463 l 579 231 l 579 116 l 463 116 l 463 0 l 347 0 l 116 0 l 116 116 l 0 116 l 0 231 l 0 463 l 116 463 l 116 463 l 116 579 l 0 579 l 0 694 l 0 926 l 116 926 l 116 926 m 463 694 l 463 926 l 347 926 l 116 926 l 116 694 l 116 579 l 347 579 l 463 579 l 463 694 m 463 231 l 463 463 l 347 463 l 116 463 l 116 231 l 116 116 l 347 116 l 463 116 l 463 231 z "},"9":{"ha":694,"x_min":0,"x_max":579,"o":"m 116 926 l 116 1042 l 347 1042 l 463 1042 l 463 926 l 579 926 l 579 463 l 579 116 l 463 116 l 463 0 l 347 0 l 116 0 l 116 116 l 0 116 l 0 231 l 116 231 l 116 116 l 347 116 l 463 116 l 463 231 l 463 463 l 347 463 l 347 347 l 231 347 l 116 347 l 116 463 l 0 463 l 0 694 l 0 926 l 116 926 l 116 926 m 463 694 l 463 926 l 347 926 l 116 926 l 116 694 l 116 463 l 231 463 l 347 463 l 347 579 l 463 579 l 463 694 z "},"ˈ":{"ha":1389,"x_min":0,"x_max":0,"o":""},"‣":{"ha":1389,"x_min":0,"x_max":0,"o":""},"․":{"ha":1389,"x_min":0,"x_max":0,"o":""},"‥":{"ha":1389,"x_min":0,"x_max":0,"o":""},"‱":{"ha":1389,"x_min":0,"x_max":0,"o":""},"※":{"ha":1389,"x_min":0,"x_max":0,"o":""},"‽":{"ha":1389,"x_min":0,"x_max":0,"o":""},"⁶":{"ha":1389,"x_min":0,"x_max":0,"o":""},"₥":{"ha":1389,"x_min":0,"x_max":0,"o":""},"₦":{"ha":1389,"x_min":0,"x_max":0,"o":""},"℔":{"ha":1389,"x_min":0,"x_max":0,"o":""},"ℕ":{"ha":1389,"x_min":0,"x_max":0,"o":""},"℣":{"ha":1389,"x_min":0,"x_max":0,"o":""},"ℤ":{"ha":1389,"x_min":0,"x_max":0,"o":""},"℥":{"ha":1389,"x_min":0,"x_max":0,"o":""},"∃":{"ha":1389,"x_min":0,"x_max":0,"o":""},"∄":{"ha":1389,"x_min":0,"x_max":0,"o":""},"∅":{"ha":1389,"x_min":0,"x_max":0,"o":""},"∐":{"ha":1389,"x_min":0,"x_max":0,"o":""},"∓":{"ha":1389,"x_min":0,"x_max":0,"o":""},"∔":{"ha":1389,"x_min":0,"x_max":0,"o":""},"∖":{"ha":1389,"x_min":0,"x_max":0,"o":""},"∗":{"ha":1389,"x_min":0,"x_max":0,"o":""},"∘":{"ha":1389,"x_min":0,"x_max":0,"o":""},"∛":{"ha":1389,"x_min":0,"x_max":0,"o":""},"∜":{"ha":1389,"x_min":0,"x_max":0,"o":""},"∝":{"ha":1389,"x_min":0,"x_max":0,"o":""},"∪":{"ha":1389,"x_min":0,"x_max":0,"o":""},"≢":{"ha":1389,"x_min":0,"x_max":0,"o":""},"≣":{"ha":1389,"x_min":0,"x_max":0,"o":""},"━":{"ha":1389,"x_min":0,"x_max":0,"o":""},"┍":{"ha":1389,"x_min":0,"x_max":0,"o":""},"┎":{"ha":1389,"x_min":0,"x_max":0,"o":""},"┏":{"ha":1389,"x_min":0,"x_max":0,"o":""},"┑":{"ha":1389,"x_min":0,"x_max":0,"o":""},"┒":{"ha":1389,"x_min":0,"x_max":0,"o":""},"┓":{"ha":1389,"x_min":0,"x_max":0,"o":""},"┕":{"ha":1389,"x_min":0,"x_max":0,"o":""},"┖":{"ha":1389,"x_min":0,"x_max":0,"o":""},"┗":{"ha":1389,"x_min":0,"x_max":0,"o":""},"┙":{"ha":1389,"x_min":0,"x_max":0,"o":""},"┚":{"ha":1389,"x_min":0,"x_max":0,"o":""},"┛":{"ha":1389,"x_min":0,"x_max":0,"o":""},"▁":{"ha":1389,"x_min":0,"x_max":0,"o":""},"▂":{"ha":1389,"x_min":0,"x_max":0,"o":""},"▃":{"ha":1389,"x_min":0,"x_max":0,"o":""},"▅":{"ha":1389,"x_min":0,"x_max":0,"o":""},"▆":{"ha":1389,"x_min":0,"x_max":0,"o":""},"▇":{"ha":1389,"x_min":0,"x_max":0,"o":""},"▉":{"ha":1389,"x_min":0,"x_max":0,"o":""},"▊":{"ha":1389,"x_min":0,"x_max":0,"o":""},"▋":{"ha":1389,"x_min":0,"x_max":0,"o":""},"▍":{"ha":1389,"x_min":0,"x_max":0,"o":""},"▎":{"ha":1389,"x_min":0,"x_max":0,"o":""},"▏":{"ha":1389,"x_min":0,"x_max":0,"o":""},"▻":{"ha":1389,"x_min":0,"x_max":0,"o":""},"◌":{"ha":1389,"x_min":0,"x_max":0,"o":""},"◍":{"ha":1389,"x_min":0,"x_max":0,"o":""},"◎":{"ha":1389,"x_min":0,"x_max":0,"o":""},"☽":{"ha":1389,"x_min":0,"x_max":0,"o":""},"☾":{"ha":1389,"x_min":0,"x_max":0,"o":""},"☿":{"ha":1389,"x_min":0,"x_max":0,"o":""},"♁":{"ha":1389,"x_min":0,"x_max":0,"o":""},"♡":{"ha":1389,"x_min":0,"x_max":0,"o":""},"♢":{"ha":1389,"x_min":0,"x_max":0,"o":""},"♤":{"ha":1389,"x_min":0,"x_max":0,"o":""},"♧":{"ha":1389,"x_min":0,"x_max":0,"o":""},"♨":{"ha":1389,"x_min":0,"x_max":0,"o":""},"♩":{"ha":1389,"x_min":0,"x_max":0,"o":""},"":{"ha":1389,"x_min":0,"x_max":0,"o":""},"ﬃ":{"ha":1389,"x_min":0,"x_max":0,"o":""},"ﬄ":{"ha":1389,"x_min":0,"x_max":0,"o":""},"\u0000":{"ha":1389,"x_min":0,"x_max":0,"o":""},"\r":{"ha":1389,"x_min":0,"x_max":0,"o":""}," ":{"ha":463,"x_min":0,"x_max":0,"o":""},"!":{"ha":231,"x_min":0,"x_max":116,"o":"m 0 0 l 0 116 l 116 116 l 116 0 l 116 0 l 0 0 m 0 579 l 0 1042 l 116 1042 l 116 579 l 116 231 l 0 231 l 0 579 z "},"\"":{"ha":463,"x_min":0,"x_max":347,"o":"m 231 810 l 231 1042 l 347 1042 l 347 810 l 347 694 l 231 694 l 231 810 m 0 810 l 0 1042 l 116 1042 l 116 810 l 116 694 l 0 694 l 0 810 z "},"#":{"ha":926,"x_min":0,"x_max":810,"o":"m 231 926 l 231 1042 l 347 1042 l 347 926 l 347 810 l 463 810 l 579 810 l 579 926 l 579 1042 l 694 1042 l 694 926 l 694 810 l 810 810 l 810 694 l 694 694 l 694 579 l 694 463 l 579 463 l 579 347 l 694 347 l 810 347 l 810 231 l 694 231 l 579 231 l 579 116 l 579 0 l 463 0 l 463 116 l 463 231 l 347 231 l 231 231 l 231 116 l 231 0 l 116 0 l 116 116 l 116 231 l 0 231 l 0 231 l 0 347 l 116 347 l 116 463 l 231 463 l 231 579 l 231 694 l 116 694 l 116 810 l 231 810 l 231 926 m 579 579 l 579 694 l 463 694 l 347 694 l 347 579 l 347 463 l 231 463 l 231 347 l 347 347 l 463 347 l 463 463 l 579 463 l 579 579 z "},"$":{"ha":694,"x_min":0,"x_max":579,"o":"m 231 1042 l 231 1157 l 347 1157 l 347 1042 l 347 1042 l 463 1042 l 463 926 l 579 926 l 579 810 l 579 810 l 463 810 l 463 926 l 347 926 l 347 694 l 347 579 l 463 579 l 463 463 l 579 463 l 579 231 l 579 116 l 463 116 l 463 0 l 347 0 l 347 -116 l 347 -116 l 231 -116 l 231 0 l 116 0 l 116 0 l 116 116 l 0 116 l 0 231 l 116 231 l 116 116 l 116 116 l 231 116 l 231 231 l 231 463 l 116 463 l 116 463 l 116 579 l 0 579 l 0 694 l 0 926 l 116 926 l 116 926 l 116 1042 l 231 1042 m 231 694 l 231 926 l 116 926 l 116 694 l 116 579 l 231 579 l 231 694 m 463 231 l 463 463 l 347 463 l 347 231 l 347 116 l 463 116 l 463 231 z "},"%":{"ha":1157,"x_min":0,"x_max":1042,"o":"m 116 926 l 116 1042 l 231 1042 l 347 1042 l 347 926 l 347 926 l 463 926 l 463 810 l 463 694 l 579 694 l 579 694 l 579 810 l 694 810 l 694 926 l 694 1042 l 810 1042 l 810 926 l 810 810 l 694 810 l 694 694 l 579 694 l 579 579 l 579 463 l 694 463 l 694 579 l 810 579 l 926 579 l 926 463 l 1042 463 l 1042 231 l 1042 116 l 926 116 l 926 0 l 810 0 l 694 0 l 694 116 l 579 116 l 579 231 l 579 463 l 463 463 l 463 347 l 463 231 l 347 231 l 347 116 l 347 0 l 231 0 l 231 116 l 231 231 l 347 231 l 347 347 l 347 463 l 231 463 l 116 463 l 116 579 l 0 579 l 0 694 l 0 926 l 116 926 l 116 926 m 347 694 l 347 926 l 231 926 l 116 926 l 116 694 l 116 579 l 231 579 l 347 579 l 347 463 l 347 463 l 463 463 l 463 579 l 347 579 l 347 694 m 926 231 l 926 463 l 810 463 l 694 463 l 694 231 l 694 116 l 810 116 l 926 116 l 926 231 z "},"&":{"ha":810,"x_min":0,"x_max":694,"o":"m 231 926 l 231 1042 l 347 1042 l 463 1042 l 463 926 l 579 926 l 579 810 l 579 694 l 463 694 l 463 579 l 347 579 l 347 463 l 347 347 l 463 347 l 579 347 l 579 463 l 579 579 l 694 579 l 694 463 l 694 347 l 579 347 l 579 231 l 579 231 l 463 231 l 463 116 l 579 116 l 694 116 l 694 0 l 579 0 l 463 0 l 463 116 l 347 116 l 347 0 l 231 0 l 116 0 l 116 116 l 0 116 l 0 231 l 0 463 l 116 463 l 116 694 l 116 926 l 231 926 m 463 810 l 463 926 l 347 926 l 231 926 l 231 694 l 231 579 l 347 579 l 347 579 l 347 694 l 463 694 l 463 810 m 231 347 l 231 463 l 116 463 l 116 231 l 116 116 l 231 116 l 347 116 l 347 231 l 347 347 l 231 347 z "},"'":{"ha":231,"x_min":0,"x_max":116,"o":"m 0 810 l 0 1042 l 116 1042 l 116 810 l 116 694 l 0 694 l 0 810 z "},"(":{"ha":463,"x_min":0,"x_max":347,"o":"m 231 926 l 231 1042 l 347 1042 l 347 926 l 347 926 l 231 926 l 231 810 l 231 694 l 116 694 l 116 347 l 116 116 l 231 116 l 231 0 l 231 -116 l 347 -116 l 347 -231 l 347 -231 l 231 -231 l 231 -116 l 116 -116 l 116 0 l 116 116 l 0 116 l 0 347 l 0 694 l 116 694 l 116 810 l 116 926 l 231 926 z "},")":{"ha":463,"x_min":0,"x_max":347,"o":"m 0 926 l 0 1042 l 116 1042 l 116 926 l 231 926 l 231 810 l 231 694 l 347 694 l 347 347 l 347 116 l 231 116 l 231 0 l 231 -116 l 116 -116 l 116 -231 l 0 -231 l 0 -231 l 0 -116 l 116 -116 l 116 0 l 116 116 l 231 116 l 231 347 l 231 694 l 116 694 l 116 810 l 116 926 l 0 926 l 0 926 z "},"*":{"ha":463,"x_min":0,"x_max":347,"o":"m 116 926 l 116 1042 l 231 1042 l 231 926 l 347 926 l 347 810 l 347 810 l 231 810 l 231 694 l 347 694 l 347 579 l 347 579 l 231 579 l 231 694 l 116 694 l 116 579 l 116 579 l 0 579 l 0 694 l 116 694 l 116 694 l 116 810 l 0 810 l 0 926 l 116 926 l 116 926 z "},"+":{"ha":694,"x_min":0,"x_max":579,"o":"m 231 694 l 231 810 l 347 810 l 347 694 l 347 579 l 463 579 l 579 579 l 579 463 l 463 463 l 347 463 l 347 347 l 347 231 l 231 231 l 231 347 l 231 463 l 116 463 l 0 463 l 0 579 l 116 579 l 231 579 l 231 694 z "},",":{"ha":347,"x_min":0,"x_max":231,"o":"m 116 0 l 116 116 l 231 116 l 231 0 l 231 -116 l 116 -116 l 116 -231 l 0 -231 l 0 -231 l 0 -116 l 116 -116 l 116 0 z "},"-":{"ha":463,"x_min":0,"x_max":347,"o":"m 0 347 l 0 463 l 231 463 l 347 463 l 347 347 l 231 347 l 116 347 l 0 347 z "},".":{"ha":231,"x_min":0,"x_max":116,"o":"m 0 0 l 0 116 l 116 116 l 116 0 l 116 0 l 0 0 z "},"/":{"ha":463,"x_min":0,"x_max":347,"o":"m 231 926 l 231 1042 l 347 1042 l 347 926 l 347 810 l 231 810 l 231 579 l 231 347 l 116 347 l 116 116 l 116 0 l 0 0 l 0 116 l 0 347 l 116 347 l 116 579 l 116 810 l 231 810 l 231 926 z "},":":{"ha":231,"x_min":0,"x_max":116,"o":"m 0 0 l 0 116 l 116 116 l 116 0 l 116 0 l 0 0 m 0 694 l 0 810 l 116 810 l 116 694 l 116 694 l 0 694 z "},";":{"ha":347,"x_min":0,"x_max":231,"o":"m 116 0 l 116 116 l 231 116 l 231 0 l 231 -116 l 116 -116 l 116 -231 l 0 -231 l 0 -231 l 0 -116 l 116 -116 l 116 0 m 116 694 l 116 810 l 231 810 l 231 694 l 231 694 l 116 694 z "},"<":{"ha":694,"x_min":0,"x_max":579,"o":"m 347 694 l 347 810 l 463 810 l 579 810 l 579 694 l 463 694 l 347 694 l 347 579 l 231 579 l 116 579 l 116 463 l 231 463 l 347 463 l 347 347 l 463 347 l 579 347 l 579 231 l 463 231 l 347 231 l 347 347 l 231 347 l 116 347 l 116 463 l 0 463 l 0 579 l 116 579 l 116 579 l 116 694 l 231 694 l 347 694 z "},"=":{"ha":694,"x_min":0,"x_max":579,"o":"m 0 231 l 0 347 l 347 347 l 579 347 l 579 231 l 347 231 l 0 231 m 0 579 l 0 694 l 347 694 l 579 694 l 579 579 l 347 579 l 0 579 z "},">":{"ha":694,"x_min":0,"x_max":579,"o":"m 0 694 l 0 810 l 116 810 l 231 810 l 231 694 l 347 694 l 463 694 l 463 579 l 579 579 l 579 463 l 579 463 l 463 463 l 463 347 l 347 347 l 231 347 l 231 231 l 116 231 l 0 231 l 0 347 l 116 347 l 231 347 l 231 463 l 347 463 l 463 463 l 463 579 l 347 579 l 231 579 l 231 694 l 116 694 l 0 694 z "},"?":{"ha":694,"x_min":0,"x_max":579,"o":"m 231 0 l 231 116 l 347 116 l 347 0 l 347 0 l 231 0 m 116 926 l 116 1042 l 347 1042 l 463 1042 l 463 926 l 579 926 l 579 694 l 579 579 l 463 579 l 463 463 l 347 463 l 347 347 l 347 231 l 231 231 l 231 347 l 231 463 l 347 463 l 347 463 l 347 579 l 463 579 l 463 694 l 463 926 l 347 926 l 116 926 l 116 810 l 116 810 l 0 810 l 0 926 l 116 926 l 116 926 z "},"@":{"ha":1273,"x_min":0,"x_max":1157,"o":"m 347 926 l 347 1042 l 579 1042 l 926 1042 l 926 926 l 1042 926 l 1042 810 l 1042 810 l 1157 810 l 1157 579 l 1157 347 l 1042 347 l 1042 231 l 1042 231 l 926 231 l 926 116 l 810 116 l 810 116 l 810 231 l 694 231 l 579 231 l 579 116 l 463 116 l 347 116 l 347 231 l 231 231 l 231 347 l 231 579 l 347 579 l 347 579 l 347 694 l 579 694 l 694 694 l 694 579 l 810 579 l 810 579 l 810 694 l 926 694 l 926 579 l 810 579 l 810 347 l 810 231 l 926 231 l 926 347 l 1042 347 l 1042 579 l 1042 810 l 926 810 l 926 926 l 579 926 l 347 926 l 347 810 l 347 810 l 231 810 l 231 694 l 116 694 l 116 347 l 116 0 l 231 0 l 231 -116 l 579 -116 l 810 -116 l 810 0 l 926 0 l 926 -116 l 810 -116 l 810 -231 l 579 -231 l 231 -231 l 231 -116 l 116 -116 l 116 -116 l 116 0 l 0 0 l 0 347 l 0 694 l 116 694 l 116 694 l 116 810 l 231 810 l 231 926 l 347 926 l 347 926 m 694 463 l 694 579 l 579 579 l 347 579 l 347 347 l 347 231 l 463 231 l 579 231 l 579 347 l 694 347 l 694 463 z "},"A":{"ha":926,"x_min":0,"x_max":810,"o":"m 347 926 l 347 1042 l 463 1042 l 463 926 l 463 926 l 579 926 l 579 694 l 579 579 l 694 579 l 694 347 l 694 231 l 810 231 l 810 116 l 810 0 l 694 0 l 694 116 l 694 231 l 579 231 l 579 347 l 463 347 l 231 347 l 231 231 l 231 231 l 116 231 l 116 116 l 116 0 l 0 0 l 0 116 l 0 231 l 116 231 l 116 347 l 116 579 l 231 579 l 231 694 l 231 926 l 347 926 m 463 694 l 463 926 l 347 926 l 347 694 l 347 579 l 231 579 l 231 463 l 463 463 l 579 463 l 579 579 l 463 579 l 463 694 z "},"B":{"ha":810,"x_min":0,"x_max":694,"o":"m 0 463 l 0 1042 l 347 1042 l 579 1042 l 579 926 l 579 926 l 694 926 l 694 694 l 694 579 l 579 579 l 579 463 l 579 463 l 694 463 l 694 231 l 694 116 l 579 116 l 579 0 l 347 0 l 0 0 l 0 463 m 579 694 l 579 926 l 347 926 l 116 926 l 116 694 l 116 579 l 347 579 l 579 579 l 579 694 m 579 231 l 579 463 l 347 463 l 116 463 l 116 231 l 116 116 l 347 116 l 579 116 l 579 231 z "},"C":{"ha":926,"x_min":0,"x_max":810,"o":"m 231 926 l 231 1042 l 463 1042 l 694 1042 l 694 926 l 810 926 l 810 810 l 810 810 l 694 810 l 694 926 l 463 926 l 231 926 l 231 810 l 116 810 l 116 463 l 116 231 l 231 231 l 231 116 l 463 116 l 694 116 l 694 231 l 810 231 l 810 116 l 810 116 l 694 116 l 694 0 l 463 0 l 231 0 l 231 116 l 116 116 l 116 116 l 116 231 l 0 231 l 0 463 l 0 810 l 116 810 l 116 810 l 116 926 l 231 926 z "},"D":{"ha":926,"x_min":0,"x_max":810,"o":"m 0 463 l 0 1042 l 347 1042 l 579 1042 l 579 926 l 579 926 l 694 926 l 694 810 l 810 810 l 810 463 l 810 231 l 694 231 l 694 116 l 579 116 l 579 0 l 347 0 l 0 0 l 0 463 m 579 810 l 579 926 l 347 926 l 116 926 l 116 463 l 116 116 l 347 116 l 579 116 l 579 231 l 694 231 l 694 463 l 694 810 l 579 810 l 579 810 z "},"E":{"ha":810,"x_min":0,"x_max":694,"o":"m 0 463 l 0 1042 l 347 1042 l 694 1042 l 694 926 l 347 926 l 116 926 l 116 694 l 116 579 l 347 579 l 579 579 l 579 463 l 347 463 l 116 463 l 116 231 l 116 116 l 347 116 l 694 116 l 694 0 l 347 0 l 0 0 l 0 463 z "},"F":{"ha":694,"x_min":0,"x_max":579,"o":"m 0 463 l 0 1042 l 347 1042 l 579 1042 l 579 926 l 347 926 l 116 926 l 116 694 l 116 579 l 347 579 l 579 579 l 579 463 l 347 463 l 116 463 l 116 231 l 116 0 l 0 0 l 0 463 z "},"G":{"ha":926,"x_min":0,"x_max":810,"o":"m 231 926 l 231 1042 l 463 1042 l 694 1042 l 694 926 l 810 926 l 810 810 l 810 810 l 694 810 l 694 926 l 463 926 l 231 926 l 231 810 l 116 810 l 116 463 l 116 231 l 231 231 l 231 116 l 463 116 l 694 116 l 694 231 l 694 463 l 579 463 l 463 463 l 463 579 l 579 579 l 810 579 l 810 347 l 810 116 l 694 116 l 694 0 l 463 0 l 231 0 l 231 116 l 116 116 l 116 116 l 116 231 l 0 231 l 0 463 l 0 810 l 116 810 l 116 810 l 116 926 l 231 926 z "},"H":{"ha":926,"x_min":0,"x_max":810,"o":"m 0 463 l 0 1042 l 116 1042 l 116 810 l 116 579 l 347 579 l 694 579 l 694 810 l 694 1042 l 810 1042 l 810 463 l 810 0 l 694 0 l 694 231 l 694 463 l 347 463 l 116 463 l 116 231 l 116 0 l 0 0 l 0 463 z "},"I":{"ha":231,"x_min":0,"x_max":116,"o":"m 0 463 l 0 1042 l 116 1042 l 116 463 l 116 0 l 0 0 l 0 463 z "},"J":{"ha":694,"x_min":0,"x_max":579,"o":"m 231 926 l 231 1042 l 463 1042 l 579 1042 l 579 579 l 579 116 l 463 116 l 463 0 l 231 0 l 116 0 l 116 116 l 0 116 l 0 116 l 0 231 l 116 231 l 116 116 l 231 116 l 463 116 l 463 463 l 463 926 l 347 926 l 231 926 z "},"K":{"ha":926,"x_min":0,"x_max":810,"o":"m 0 463 l 0 1042 l 116 1042 l 116 810 l 116 579 l 231 579 l 231 694 l 347 694 l 347 694 l 347 810 l 463 810 l 463 926 l 579 926 l 579 926 l 579 1042 l 694 1042 l 694 926 l 579 926 l 579 810 l 579 810 l 463 810 l 463 694 l 347 694 l 347 579 l 347 463 l 463 463 l 463 347 l 579 347 l 579 231 l 579 231 l 694 231 l 694 116 l 810 116 l 810 0 l 810 0 l 694 0 l 694 116 l 579 116 l 579 116 l 579 231 l 463 231 l 463 347 l 347 347 l 347 347 l 347 463 l 231 463 l 116 463 l 116 231 l 116 0 l 0 0 l 0 463 z "},"L":{"ha":694,"x_min":0,"x_max":579,"o":"m 0 463 l 0 1042 l 116 1042 l 116 579 l 116 116 l 347 116 l 579 116 l 579 0 l 347 0 l 0 0 l 0 463 z "},"M":{"ha":926,"x_min":0,"x_max":810,"o":"m 0 463 l 0 1042 l 116 1042 l 116 926 l 116 810 l 231 810 l 231 694 l 231 579 l 347 579 l 347 347 l 347 231 l 463 231 l 463 347 l 463 579 l 579 579 l 579 694 l 579 810 l 694 810 l 694 926 l 694 1042 l 810 1042 l 810 463 l 810 0 l 694 0 l 694 231 l 694 579 l 579 579 l 579 347 l 579 231 l 463 231 l 463 116 l 463 0 l 347 0 l 347 116 l 347 231 l 231 231 l 231 347 l 231 579 l 116 579 l 116 231 l 116 0 l 0 0 l 0 463 z "},"N":{"ha":926,"x_min":0,"x_max":810,"o":"m 0 463 l 0 1042 l 116 1042 l 116 926 l 116 926 l 231 926 l 231 810 l 347 810 l 347 694 l 347 579 l 463 579 l 463 463 l 579 463 l 579 347 l 579 231 l 694 231 l 694 579 l 694 1042 l 810 1042 l 810 463 l 810 0 l 694 0 l 694 116 l 579 116 l 579 116 l 579 231 l 463 231 l 463 347 l 463 463 l 347 463 l 347 463 l 347 579 l 231 579 l 231 694 l 231 810 l 116 810 l 116 347 l 116 0 l 0 0 l 0 463 z "},"O":{"ha":926,"x_min":0,"x_max":810,"o":"m 231 926 l 231 1042 l 347 1042 l 579 1042 l 579 926 l 579 926 l 694 926 l 694 810 l 810 810 l 810 463 l 810 231 l 694 231 l 694 116 l 579 116 l 579 0 l 347 0 l 231 0 l 231 116 l 116 116 l 116 116 l 116 231 l 0 231 l 0 463 l 0 810 l 116 810 l 116 810 l 116 926 l 231 926 m 579 810 l 579 926 l 347 926 l 231 926 l 231 810 l 116 810 l 116 463 l 116 231 l 231 231 l 231 116 l 347 116 l 579 116 l 579 231 l 694 231 l 694 463 l 694 810 l 579 810 l 579 810 z "},"P":{"ha":810,"x_min":0,"x_max":694,"o":"m 0 463 l 0 1042 l 347 1042 l 579 1042 l 579 926 l 579 926 l 694 926 l 694 694 l 694 579 l 579 579 l 579 463 l 347 463 l 116 463 l 116 231 l 116 0 l 0 0 l 0 463 m 579 694 l 579 926 l 347 926 l 116 926 l 116 694 l 116 579 l 347 579 l 579 579 l 579 694 z "},"Q":{"ha":926,"x_min":0,"x_max":810,"o":"m 231 926 l 231 1042 l 347 1042 l 579 1042 l 579 926 l 579 926 l 694 926 l 694 810 l 810 810 l 810 463 l 810 231 l 694 231 l 694 116 l 579 116 l 579 0 l 579 0 l 463 0 l 463 -116 l 579 -116 l 694 -116 l 694 -231 l 579 -231 l 463 -231 l 463 -116 l 347 -116 l 347 -116 l 347 0 l 231 0 l 231 116 l 116 116 l 116 116 l 116 231 l 0 231 l 0 463 l 0 810 l 116 810 l 116 810 l 116 926 l 231 926 m 579 810 l 579 926 l 347 926 l 231 926 l 231 810 l 116 810 l 116 463 l 116 231 l 231 231 l 231 116 l 347 116 l 579 116 l 579 231 l 694 231 l 694 463 l 694 810 l 579 810 l 579 810 z "},"R":{"ha":926,"x_min":0,"x_max":810,"o":"m 0 463 l 0 1042 l 347 1042 l 694 1042 l 694 926 l 810 926 l 810 694 l 810 579 l 694 579 l 694 463 l 579 463 l 579 347 l 579 231 l 694 231 l 694 116 l 810 116 l 810 0 l 810 0 l 694 0 l 694 116 l 579 116 l 579 116 l 579 231 l 463 231 l 463 347 l 463 463 l 347 463 l 116 463 l 116 231 l 116 0 l 0 0 l 0 463 m 694 694 l 694 926 l 347 926 l 116 926 l 116 694 l 116 579 l 347 579 l 694 579 l 694 694 z "},"S":{"ha":810,"x_min":0,"x_max":694,"o":"m 116 926 l 116 1042 l 347 1042 l 579 1042 l 579 926 l 579 926 l 694 926 l 694 810 l 579 810 l 579 810 l 579 926 l 347 926 l 116 926 l 116 810 l 116 694 l 231 694 l 347 694 l 347 579 l 463 579 l 579 579 l 579 463 l 579 463 l 694 463 l 694 231 l 694 116 l 579 116 l 579 0 l 347 0 l 116 0 l 116 116 l 0 116 l 0 231 l 116 231 l 116 116 l 347 116 l 463 116 l 579 116 l 579 231 l 579 347 l 579 463 l 463 463 l 347 463 l 347 579 l 231 579 l 116 579 l 116 694 l 0 694 l 0 810 l 0 926 l 116 926 l 116 926 z "},"T":{"ha":926,"x_min":0,"x_max":810,"o":"m 0 926 l 0 1042 l 463 1042 l 810 1042 l 810 926 l 694 926 l 463 926 l 463 463 l 463 0 l 347 0 l 347 463 l 347 926 l 231 926 l 0 926 z "},"U":{"ha":926,"x_min":0,"x_max":810,"o":"m 0 579 l 0 1042 l 116 1042 l 116 579 l 116 231 l 231 231 l 231 116 l 347 116 l 579 116 l 579 231 l 694 231 l 694 579 l 694 1042 l 810 1042 l 810 579 l 810 231 l 694 231 l 694 116 l 579 116 l 579 0 l 347 0 l 231 0 l 231 116 l 116 116 l 116 116 l 116 231 l 0 231 l 0 579 z "},"V":{"ha":926,"x_min":0,"x_max":810,"o":"m 0 926 l 0 1042 l 116 1042 l 116 926 l 116 810 l 231 810 l 231 579 l 231 463 l 347 463 l 347 231 l 347 116 l 463 116 l 463 231 l 463 463 l 579 463 l 579 579 l 579 810 l 694 810 l 694 926 l 694 1042 l 810 1042 l 810 926 l 810 810 l 694 810 l 694 579 l 694 463 l 579 463 l 579 231 l 579 116 l 463 116 l 463 0 l 463 0 l 347 0 l 347 116 l 231 116 l 231 231 l 231 463 l 116 463 l 116 579 l 116 810 l 0 810 l 0 926 z "},"W":{"ha":1157,"x_min":0,"x_max":1042,"o":"m 0 926 l 0 1042 l 116 1042 l 116 926 l 116 810 l 231 810 l 231 463 l 231 231 l 347 231 l 347 463 l 347 810 l 463 810 l 463 926 l 463 1042 l 579 1042 l 579 926 l 579 810 l 694 810 l 694 463 l 694 231 l 810 231 l 810 463 l 810 810 l 926 810 l 926 926 l 926 1042 l 1042 1042 l 1042 926 l 1042 810 l 926 810 l 926 463 l 926 231 l 810 231 l 810 116 l 810 0 l 694 0 l 694 116 l 694 231 l 579 231 l 579 463 l 579 810 l 463 810 l 463 463 l 463 231 l 347 231 l 347 116 l 347 0 l 231 0 l 231 116 l 231 231 l 116 231 l 116 463 l 116 810 l 0 810 l 0 926 z "},"X":{"ha":926,"x_min":0,"x_max":810,"o":"m 0 926 l 0 1042 l 116 1042 l 116 926 l 231 926 l 231 810 l 231 810 l 347 810 l 347 694 l 347 579 l 463 579 l 463 694 l 463 810 l 579 810 l 579 926 l 694 926 l 694 926 l 694 1042 l 810 1042 l 810 926 l 694 926 l 694 810 l 694 810 l 579 810 l 579 694 l 579 579 l 463 579 l 463 463 l 463 463 l 579 463 l 579 347 l 579 231 l 694 231 l 694 116 l 694 116 l 810 116 l 810 0 l 694 0 l 694 0 l 694 116 l 579 116 l 579 231 l 463 231 l 463 347 l 463 463 l 347 463 l 347 347 l 347 231 l 231 231 l 231 116 l 231 116 l 116 116 l 116 0 l 0 0 l 0 0 l 0 116 l 116 116 l 116 231 l 231 231 l 231 347 l 231 463 l 347 463 l 347 579 l 231 579 l 231 694 l 231 810 l 116 810 l 116 926 l 0 926 l 0 926 z "},"Y":{"ha":926,"x_min":0,"x_max":810,"o":"m 0 926 l 0 1042 l 116 1042 l 116 926 l 231 926 l 231 810 l 231 810 l 347 810 l 347 694 l 347 579 l 463 579 l 463 694 l 463 810 l 579 810 l 579 926 l 694 926 l 694 926 l 694 1042 l 810 1042 l 810 926 l 694 926 l 694 810 l 694 810 l 579 810 l 579 694 l 579 579 l 463 579 l 463 231 l 463 0 l 347 0 l 347 231 l 347 579 l 231 579 l 231 694 l 231 810 l 116 810 l 116 926 l 0 926 l 0 926 z "},"Z":{"ha":694,"x_min":0,"x_max":579,"o":"m 0 926 l 0 1042 l 347 1042 l 579 1042 l 579 926 l 579 810 l 463 810 l 463 694 l 463 579 l 347 579 l 347 463 l 347 463 l 231 463 l 231 347 l 231 231 l 116 231 l 116 116 l 347 116 l 579 116 l 579 0 l 347 0 l 0 0 l 0 116 l 0 231 l 116 231 l 116 347 l 116 463 l 231 463 l 231 579 l 347 579 l 347 694 l 347 810 l 463 810 l 463 926 l 231 926 l 0 926 z "},"[":{"ha":347,"x_min":0,"x_max":231,"o":"m 0 347 l 0 1042 l 116 1042 l 231 1042 l 231 926 l 116 926 l 116 347 l 116 -116 l 231 -116 l 231 -231 l 116 -231 l 0 -231 l 0 347 z "},"\\":{"ha":463,"x_min":0,"x_max":347,"o":"m 0 810 l 0 1042 l 116 1042 l 116 810 l 116 694 l 231 694 l 231 463 l 231 231 l 347 231 l 347 116 l 347 0 l 231 0 l 231 116 l 231 231 l 116 231 l 116 463 l 116 694 l 0 694 l 0 810 z "},"]":{"ha":347,"x_min":0,"x_max":231,"o":"m 0 926 l 0 1042 l 116 1042 l 231 1042 l 231 347 l 231 -231 l 116 -231 l 0 -231 l 0 -116 l 116 -116 l 116 347 l 116 926 l 0 926 l 0 926 z "},"^":{"ha":694,"x_min":0,"x_max":579,"o":"m 231 926 l 231 1042 l 347 1042 l 347 926 l 463 926 l 463 694 l 463 579 l 579 579 l 579 463 l 463 463 l 463 463 l 463 579 l 347 579 l 347 694 l 347 926 l 231 926 l 231 810 l 231 694 l 116 694 l 116 579 l 116 463 l 0 463 l 0 579 l 0 694 l 116 694 l 116 810 l 116 926 l 231 926 l 231 926 z "},"_":{"ha":926,"x_min":0,"x_max":810,"o":"m 0 -347 l 0 -231 l 463 -231 l 810 -231 l 810 -347 l 463 -347 l 0 -347 z "},"`":{"ha":347,"x_min":0,"x_max":231,"o":"m 0 1042 l 0 1157 l 116 1157 l 116 1042 l 116 1042 l 231 1042 l 231 926 l 116 926 l 116 926 l 116 1042 l 0 1042 z "},"a":{"ha":694,"x_min":0,"x_max":694,"o":"m 116 694 l 116 810 l 347 810 l 463 810 l 463 694 l 579 694 l 579 347 l 579 116 l 694 116 l 694 0 l 579 0 l 579 0 l 579 116 l 463 116 l 347 116 l 347 0 l 231 0 l 116 0 l 116 116 l 0 116 l 0 231 l 0 347 l 116 347 l 116 347 l 116 463 l 347 463 l 463 463 l 463 579 l 463 694 l 347 694 l 116 694 l 116 579 l 116 579 l 0 579 l 0 694 l 116 694 l 116 694 m 463 231 l 463 347 l 347 347 l 116 347 l 116 231 l 116 116 l 231 116 l 347 116 l 347 231 l 463 231 z "},"b":{"ha":694,"x_min":0,"x_max":579,"o":"m 0 463 l 0 1042 l 116 1042 l 116 810 l 116 694 l 231 694 l 231 810 l 347 810 l 463 810 l 463 694 l 579 694 l 579 347 l 579 116 l 463 116 l 463 0 l 347 0 l 231 0 l 231 116 l 116 116 l 116 0 l 116 0 l 0 0 l 0 463 m 463 347 l 463 694 l 347 694 l 231 694 l 231 579 l 116 579 l 116 347 l 116 231 l 231 231 l 231 116 l 347 116 l 463 116 l 463 347 z "},"c":{"ha":579,"x_min":0,"x_max":463,"o":"m 116 694 l 116 810 l 231 810 l 347 810 l 347 694 l 347 694 l 463 694 l 463 579 l 347 579 l 347 579 l 347 694 l 231 694 l 116 694 l 116 347 l 116 116 l 231 116 l 347 116 l 347 231 l 463 231 l 463 116 l 347 116 l 347 0 l 231 0 l 116 0 l 116 116 l 0 116 l 0 347 l 0 694 l 116 694 l 116 694 z "},"d":{"ha":694,"x_min":0,"x_max":579,"o":"m 463 810 l 463 1042 l 579 1042 l 579 463 l 579 0 l 463 0 l 463 116 l 347 116 l 347 0 l 231 0 l 116 0 l 116 116 l 0 116 l 0 347 l 0 694 l 116 694 l 116 694 l 116 810 l 231 810 l 347 810 l 347 694 l 347 694 l 463 694 l 463 810 m 347 579 l 347 694 l 231 694 l 116 694 l 116 347 l 116 116 l 231 116 l 347 116 l 347 231 l 463 231 l 463 347 l 463 579 l 347 579 l 347 579 z "},"e":{"ha":694,"x_min":0,"x_max":579,"o":"m 116 694 l 116 810 l 347 810 l 463 810 l 463 694 l 579 694 l 579 463 l 579 347 l 347 347 l 116 347 l 116 231 l 116 116 l 347 116 l 463 116 l 463 231 l 579 231 l 579 116 l 579 116 l 463 116 l 463 0 l 347 0 l 116 0 l 116 116 l 0 116 l 0 347 l 0 694 l 116 694 l 116 694 m 463 579 l 463 694 l 347 694 l 116 694 l 116 579 l 116 463 l 347 463 l 463 463 l 463 579 z "},"f":{"ha":463,"x_min":0,"x_max":347,"o":"m 116 926 l 116 1042 l 231 1042 l 347 1042 l 347 926 l 231 926 l 231 810 l 231 810 l 347 810 l 347 694 l 231 694 l 231 347 l 231 0 l 116 0 l 116 347 l 116 694 l 0 694 l 0 694 l 0 810 l 116 810 l 116 926 z "},"g":{"ha":694,"x_min":0,"x_max":579,"o":"m 116 694 l 116 810 l 231 810 l 347 810 l 347 694 l 347 694 l 463 694 l 463 810 l 579 810 l 579 347 l 579 -116 l 463 -116 l 463 -231 l 231 -231 l 0 -231 l 0 -116 l 231 -116 l 463 -116 l 463 0 l 463 116 l 347 116 l 347 0 l 231 0 l 116 0 l 116 116 l 0 116 l 0 347 l 0 694 l 116 694 l 116 694 m 347 579 l 347 694 l 231 694 l 116 694 l 116 347 l 116 116 l 231 116 l 347 116 l 347 231 l 463 231 l 463 347 l 463 579 l 347 579 l 347 579 z "},"h":{"ha":694,"x_min":0,"x_max":579,"o":"m 0 463 l 0 1042 l 116 1042 l 116 810 l 116 694 l 231 694 l 231 810 l 347 810 l 463 810 l 463 694 l 579 694 l 579 347 l 579 0 l 463 0 l 463 347 l 463 694 l 347 694 l 231 694 l 231 579 l 116 579 l 116 231 l 116 0 l 0 0 l 0 463 z "},"i":{"ha":231,"x_min":0,"x_max":116,"o":"m 0 347 l 0 810 l 116 810 l 116 347 l 116 0 l 0 0 l 0 347 m 0 926 l 0 1042 l 116 1042 l 116 926 l 116 926 l 0 926 z "},"j":{"ha":347,"x_min":0,"x_max":231,"o":"m 116 347 l 116 810 l 231 810 l 231 347 l 231 -116 l 116 -116 l 116 -231 l 0 -231 l 0 -231 l 0 -116 l 116 -116 l 116 347 m 116 926 l 116 1042 l 231 1042 l 231 926 l 231 926 l 116 926 z "},"k":{"ha":694,"x_min":0,"x_max":579,"o":"m 0 463 l 0 1042 l 116 1042 l 116 694 l 116 463 l 231 463 l 231 579 l 347 579 l 347 579 l 347 694 l 463 694 l 463 810 l 579 810 l 579 694 l 579 694 l 463 694 l 463 579 l 347 579 l 347 463 l 347 463 l 231 463 l 231 347 l 347 347 l 347 231 l 347 231 l 463 231 l 463 116 l 579 116 l 579 0 l 579 0 l 463 0 l 463 116 l 347 116 l 347 116 l 347 231 l 231 231 l 231 347 l 116 347 l 116 116 l 116 0 l 0 0 l 0 463 z "},"l":{"ha":231,"x_min":0,"x_max":116,"o":"m 0 463 l 0 1042 l 116 1042 l 116 463 l 116 0 l 0 0 l 0 463 z "},"m":{"ha":1157,"x_min":0,"x_max":1042,"o":"m 0 347 l 0 810 l 116 810 l 116 694 l 116 694 l 231 694 l 231 810 l 347 810 l 463 810 l 463 694 l 579 694 l 694 694 l 694 810 l 810 810 l 926 810 l 926 694 l 1042 694 l 1042 347 l 1042 0 l 926 0 l 926 347 l 926 694 l 810 694 l 694 694 l 694 579 l 579 579 l 579 231 l 579 0 l 463 0 l 463 347 l 463 694 l 347 694 l 231 694 l 231 579 l 116 579 l 116 231 l 116 0 l 0 0 l 0 347 z "},"n":{"ha":694,"x_min":0,"x_max":579,"o":"m 0 347 l 0 810 l 116 810 l 116 694 l 116 694 l 231 694 l 231 810 l 347 810 l 463 810 l 463 694 l 579 694 l 579 347 l 579 0 l 463 0 l 463 347 l 463 694 l 347 694 l 231 694 l 231 579 l 116 579 l 116 231 l 116 0 l 0 0 l 0 347 z "},"o":{"ha":694,"x_min":0,"x_max":579,"o":"m 116 694 l 116 810 l 347 810 l 463 810 l 463 694 l 579 694 l 579 347 l 579 116 l 463 116 l 463 0 l 347 0 l 116 0 l 116 116 l 0 116 l 0 347 l 0 694 l 116 694 l 116 694 m 463 347 l 463 694 l 347 694 l 116 694 l 116 347 l 116 116 l 347 116 l 463 116 l 463 347 z "},"p":{"ha":694,"x_min":0,"x_max":579,"o":"m 0 231 l 0 810 l 116 810 l 116 694 l 116 694 l 231 694 l 231 810 l 347 810 l 463 810 l 463 694 l 579 694 l 579 347 l 579 116 l 463 116 l 463 0 l 347 0 l 231 0 l 231 116 l 116 116 l 116 -116 l 116 -231 l 0 -231 l 0 231 m 463 347 l 463 694 l 347 694 l 231 694 l 231 579 l 116 579 l 116 347 l 116 231 l 231 231 l 231 116 l 347 116 l 463 116 l 463 347 z "},"q":{"ha":694,"x_min":0,"x_max":579,"o":"m 116 694 l 116 810 l 231 810 l 347 810 l 347 694 l 347 694 l 463 694 l 463 810 l 579 810 l 579 231 l 579 -231 l 463 -231 l 463 -116 l 463 116 l 347 116 l 347 0 l 231 0 l 116 0 l 116 116 l 0 116 l 0 347 l 0 694 l 116 694 l 116 694 m 347 579 l 347 694 l 231 694 l 116 694 l 116 347 l 116 116 l 231 116 l 347 116 l 347 231 l 463 231 l 463 347 l 463 579 l 347 579 l 347 579 z "},"r":{"ha":463,"x_min":0,"x_max":347,"o":"m 0 347 l 0 810 l 116 810 l 347 810 l 347 694 l 231 694 l 116 694 l 116 347 l 116 0 l 0 0 l 0 347 z "},"s":{"ha":694,"x_min":0,"x_max":579,"o":"m 116 694 l 116 810 l 347 810 l 463 810 l 463 694 l 579 694 l 579 579 l 579 579 l 463 579 l 463 694 l 347 694 l 116 694 l 116 579 l 116 463 l 347 463 l 463 463 l 463 347 l 579 347 l 579 231 l 579 116 l 463 116 l 463 0 l 347 0 l 116 0 l 116 116 l 0 116 l 0 231 l 116 231 l 116 116 l 347 116 l 463 116 l 463 231 l 463 347 l 347 347 l 116 347 l 116 463 l 0 463 l 0 579 l 0 694 l 116 694 l 116 694 z "},"t":{"ha":463,"x_min":0,"x_max":347,"o":"m 116 926 l 116 1042 l 231 1042 l 231 926 l 231 810 l 347 810 l 347 694 l 231 694 l 231 347 l 231 116 l 347 116 l 347 0 l 231 0 l 231 0 l 231 116 l 116 116 l 116 347 l 116 694 l 0 694 l 0 694 l 0 810 l 116 810 l 116 926 z "},"u":{"ha":694,"x_min":0,"x_max":579,"o":"m 0 463 l 0 810 l 116 810 l 116 463 l 116 116 l 231 116 l 347 116 l 347 231 l 463 231 l 463 463 l 463 810 l 579 810 l 579 347 l 579 0 l 463 0 l 463 116 l 347 116 l 347 0 l 231 0 l 116 0 l 116 116 l 0 116 l 0 463 z "},"v":{"ha":694,"x_min":0,"x_max":579,"o":"m 0 694 l 0 810 l 116 810 l 116 694 l 116 579 l 231 579 l 231 347 l 231 116 l 347 116 l 347 347 l 347 579 l 463 579 l 463 694 l 463 810 l 579 810 l 579 694 l 579 579 l 463 579 l 463 347 l 463 116 l 347 116 l 347 0 l 231 0 l 231 0 l 231 116 l 116 116 l 116 347 l 116 579 l 0 579 l 0 694 z "},"w":{"ha":1157,"x_min":0,"x_max":1042,"o":"m 0 694 l 0 810 l 116 810 l 116 694 l 116 579 l 231 579 l 231 347 l 231 231 l 347 231 l 347 347 l 347 579 l 463 579 l 463 694 l 463 810 l 579 810 l 579 694 l 579 579 l 694 579 l 694 347 l 694 231 l 810 231 l 810 347 l 810 579 l 926 579 l 926 694 l 926 810 l 1042 810 l 1042 694 l 1042 579 l 926 579 l 926 347 l 926 231 l 810 231 l 810 116 l 810 0 l 694 0 l 694 116 l 694 231 l 579 231 l 579 347 l 579 579 l 463 579 l 463 347 l 463 231 l 347 231 l 347 116 l 347 0 l 231 0 l 231 116 l 231 231 l 116 231 l 116 347 l 116 579 l 0 579 l 0 694 z "},"x":{"ha":694,"x_min":0,"x_max":579,"o":"m 0 694 l 0 810 l 116 810 l 116 694 l 231 694 l 231 579 l 231 463 l 347 463 l 347 579 l 347 694 l 463 694 l 463 694 l 463 810 l 579 810 l 579 694 l 463 694 l 463 579 l 463 463 l 347 463 l 347 347 l 463 347 l 463 231 l 463 116 l 579 116 l 579 0 l 463 0 l 463 0 l 463 116 l 347 116 l 347 231 l 347 347 l 231 347 l 231 231 l 231 116 l 116 116 l 116 0 l 0 0 l 0 0 l 0 116 l 116 116 l 116 231 l 116 347 l 231 347 l 231 347 l 231 463 l 116 463 l 116 579 l 116 694 l 0 694 l 0 694 z "},"y":{"ha":694,"x_min":0,"x_max":579,"o":"m 0 694 l 0 810 l 116 810 l 116 694 l 116 579 l 231 579 l 231 347 l 231 116 l 347 116 l 347 347 l 347 579 l 463 579 l 463 694 l 463 810 l 579 810 l 579 694 l 579 579 l 463 579 l 463 347 l 463 116 l 347 116 l 347 0 l 347 -116 l 231 -116 l 231 -231 l 116 -231 l 0 -231 l 0 -116 l 116 -116 l 231 -116 l 231 0 l 231 116 l 116 116 l 116 347 l 116 579 l 0 579 l 0 694 z "},"z":{"ha":694,"x_min":0,"x_max":579,"o":"m 0 694 l 0 810 l 231 810 l 579 810 l 579 694 l 579 579 l 463 579 l 463 463 l 463 463 l 347 463 l 347 347 l 231 347 l 231 231 l 231 231 l 116 231 l 116 116 l 347 116 l 579 116 l 579 0 l 231 0 l 0 0 l 0 116 l 0 231 l 116 231 l 116 347 l 231 347 l 231 347 l 231 463 l 347 463 l 347 579 l 463 579 l 463 579 l 463 694 l 231 694 l 0 694 z "},"{":{"ha":463,"x_min":0,"x_max":347,"o":"m 231 926 l 231 1042 l 347 1042 l 347 926 l 231 926 l 231 694 l 231 463 l 116 463 l 116 347 l 231 347 l 231 116 l 231 -116 l 347 -116 l 347 -231 l 231 -231 l 231 -231 l 231 -116 l 116 -116 l 116 116 l 116 347 l 0 347 l 0 347 l 0 463 l 116 463 l 116 694 l 116 926 l 231 926 l 231 926 z "},"|":{"ha":231,"x_min":0,"x_max":116,"o":"m 0 347 l 0 1042 l 116 1042 l 116 347 l 116 -347 l 0 -347 l 0 347 z "},"}":{"ha":463,"x_min":0,"x_max":347,"o":"m 0 926 l 0 1042 l 116 1042 l 116 926 l 116 926 l 231 926 l 231 694 l 231 463 l 347 463 l 347 347 l 347 347 l 231 347 l 231 116 l 231 -116 l 116 -116 l 116 -231 l 116 -231 l 0 -231 l 0 -116 l 116 -116 l 116 116 l 116 347 l 231 347 l 231 463 l 116 463 l 116 694 l 116 926 l 0 926 z "},"~":{"ha":694,"x_min":0,"x_max":579,"o":"m 116 579 l 116 694 l 231 694 l 347 694 l 347 579 l 347 579 l 463 579 l 463 694 l 579 694 l 579 579 l 579 579 l 463 579 l 463 463 l 347 463 l 347 463 l 347 579 l 231 579 l 116 579 l 116 463 l 116 463 l 0 463 l 0 579 l 116 579 l 116 579 z "},"¡":{"ha":231,"x_min":0,"x_max":116,"o":"m 0 116 l 0 579 l 116 579 l 116 116 l 116 -231 l 0 -231 l 0 116 m 0 694 l 0 810 l 116 810 l 116 694 l 116 694 l 0 694 z "},"¢":{"ha":810,"x_min":0,"x_max":694,"o":"m 347 810 l 347 926 l 463 926 l 463 810 l 579 810 l 694 810 l 694 694 l 694 579 l 579 579 l 579 694 l 463 694 l 463 463 l 463 231 l 579 231 l 579 347 l 694 347 l 694 231 l 694 231 l 579 231 l 579 116 l 463 116 l 463 0 l 463 0 l 347 0 l 347 116 l 231 116 l 231 116 l 231 231 l 116 231 l 116 347 l 0 347 l 0 463 l 0 694 l 116 694 l 116 810 l 231 810 l 347 810 m 347 463 l 347 694 l 231 694 l 231 579 l 231 579 l 116 579 l 116 463 l 231 463 l 231 347 l 231 231 l 347 231 l 347 463 z "},"£":{"ha":694,"x_min":0,"x_max":579,"o":"m 231 926 l 231 1042 l 347 1042 l 463 1042 l 463 926 l 579 926 l 579 810 l 579 810 l 463 810 l 463 926 l 347 926 l 231 926 l 231 694 l 231 579 l 347 579 l 463 579 l 463 463 l 347 463 l 231 463 l 231 231 l 231 116 l 347 116 l 463 116 l 463 231 l 579 231 l 579 116 l 579 116 l 463 116 l 463 0 l 231 0 l 0 0 l 0 116 l 116 116 l 116 231 l 116 463 l 0 463 l 0 579 l 116 579 l 116 694 l 116 926 l 231 926 z "},"¤":{"ha":694,"x_min":0,"x_max":579,"o":"m 0 694 l 0 810 l 116 810 l 116 694 l 116 694 l 231 694 l 231 810 l 347 810 l 347 694 l 347 694 l 463 694 l 463 810 l 579 810 l 579 694 l 579 694 l 463 694 l 463 579 l 579 579 l 579 463 l 579 463 l 463 463 l 463 347 l 579 347 l 579 231 l 579 231 l 463 231 l 463 347 l 347 347 l 347 231 l 347 231 l 231 231 l 231 347 l 116 347 l 116 231 l 116 231 l 0 231 l 0 347 l 116 347 l 116 347 l 116 463 l 0 463 l 0 579 l 116 579 l 116 579 l 116 694 l 0 694 m 347 579 l 347 694 l 231 694 l 231 579 l 116 579 l 116 463 l 116 463 l 231 463 l 231 347 l 347 347 l 347 347 l 347 463 l 463 463 l 463 579 l 347 579 l 347 579 z "},"¥":{"ha":926,"x_min":0,"x_max":810,"o":"m 0 926 l 0 1042 l 116 1042 l 116 926 l 231 926 l 231 810 l 231 810 l 347 810 l 347 694 l 347 579 l 463 579 l 463 694 l 463 810 l 579 810 l 579 926 l 694 926 l 694 926 l 694 1042 l 810 1042 l 810 926 l 694 926 l 694 810 l 694 810 l 579 810 l 579 694 l 579 579 l 694 579 l 694 463 l 579 463 l 463 463 l 463 347 l 579 347 l 694 347 l 694 231 l 579 231 l 463 231 l 463 116 l 463 0 l 347 0 l 347 116 l 347 231 l 231 231 l 116 231 l 116 347 l 231 347 l 347 347 l 347 463 l 231 463 l 116 463 l 116 579 l 231 579 l 231 694 l 231 810 l 116 810 l 116 926 l 0 926 l 0 926 z "},"¦":{"ha":231,"x_min":0,"x_max":116,"o":"m 0 -116 l 0 231 l 116 231 l 116 -116 l 116 -347 l 0 -347 l 0 -116 m 0 694 l 0 1042 l 116 1042 l 116 694 l 116 463 l 0 463 l 0 694 z "},"§":{"ha":694,"x_min":0,"x_max":579,"o":"m 116 926 l 116 1042 l 347 1042 l 463 1042 l 463 926 l 579 926 l 579 810 l 579 810 l 463 810 l 463 926 l 347 926 l 116 926 l 116 810 l 116 694 l 347 694 l 463 694 l 463 579 l 579 579 l 579 463 l 579 347 l 463 347 l 463 231 l 579 231 l 579 116 l 579 0 l 463 0 l 463 -116 l 347 -116 l 116 -116 l 116 0 l 0 0 l 0 116 l 116 116 l 116 0 l 347 0 l 463 0 l 463 116 l 463 231 l 347 231 l 116 231 l 116 347 l 0 347 l 0 463 l 0 579 l 116 579 l 116 579 l 116 694 l 0 694 l 0 810 l 0 926 l 116 926 l 116 926 m 463 463 l 463 579 l 347 579 l 116 579 l 116 463 l 116 347 l 347 347 l 463 347 l 463 463 z "},"¨":{"ha":463,"x_min":0,"x_max":347,"o":"m 231 926 l 231 1042 l 347 1042 l 347 926 l 231 926 l 231 926 m 0 926 l 0 1042 l 116 1042 l 116 926 l 0 926 l 0 926 z "},"©":{"ha":1157,"x_min":0,"x_max":1042,"o":"m 347 694 l 347 810 l 463 810 l 694 810 l 694 694 l 694 694 l 810 694 l 810 579 l 694 579 l 694 579 l 694 694 l 463 694 l 347 694 l 347 463 l 347 347 l 463 347 l 694 347 l 694 463 l 810 463 l 810 347 l 694 347 l 694 231 l 463 231 l 347 231 l 347 347 l 231 347 l 231 463 l 231 694 l 347 694 m 231 926 l 231 1042 l 463 1042 l 810 1042 l 810 926 l 926 926 l 926 810 l 926 810 l 1042 810 l 1042 463 l 1042 231 l 926 231 l 926 116 l 926 116 l 810 116 l 810 0 l 463 0 l 231 0 l 231 116 l 116 116 l 116 231 l 0 231 l 0 463 l 0 810 l 116 810 l 116 926 l 231 926 l 231 926 m 810 810 l 810 926 l 463 926 l 231 926 l 231 810 l 231 810 l 116 810 l 116 463 l 116 231 l 231 231 l 231 116 l 463 116 l 810 116 l 810 231 l 926 231 l 926 463 l 926 810 l 810 810 z "},"ª":{"ha":579,"x_min":0,"x_max":463,"o":"m 0 926 l 0 1042 l 116 1042 l 231 1042 l 231 926 l 231 926 l 347 926 l 347 694 l 347 579 l 463 579 l 463 463 l 463 463 l 347 463 l 347 579 l 231 579 l 231 463 l 231 463 l 116 463 l 116 579 l 0 579 l 0 579 l 0 694 l 116 694 l 116 810 l 231 810 l 231 810 l 231 926 l 116 926 l 0 926 m 231 579 l 231 694 l 116 694 l 116 579 l 231 579 l 231 579 z "},"«":{"ha":810,"x_min":0,"x_max":694,"o":"m 579 579 l 579 694 l 694 694 l 694 579 l 694 579 l 579 579 l 579 463 l 463 463 l 463 347 l 463 347 l 579 347 l 579 231 l 694 231 l 694 116 l 694 116 l 579 116 l 579 231 l 463 231 l 463 231 l 463 347 l 347 347 l 347 463 l 463 463 l 463 463 l 463 579 l 579 579 m 231 579 l 231 694 l 347 694 l 347 579 l 231 579 l 231 463 l 231 463 l 116 463 l 116 347 l 231 347 l 231 231 l 231 231 l 347 231 l 347 116 l 231 116 l 231 116 l 231 231 l 116 231 l 116 347 l 0 347 l 0 347 l 0 463 l 116 463 l 116 579 l 231 579 l 231 579 z "},"¬":{"ha":694,"x_min":0,"x_max":579,"o":"m 0 463 l 0 579 l 347 579 l 579 579 l 579 347 l 579 231 l 463 231 l 463 347 l 463 463 l 231 463 l 0 463 z "},"­":{"ha":347,"x_min":0,"x_max":231,"o":"m 0 347 l 0 463 l 116 463 l 231 463 l 231 347 l 116 347 l 0 347 z "},"®":{"ha":1157,"x_min":0,"x_max":1042,"o":"m 347 463 l 347 810 l 463 810 l 694 810 l 694 694 l 694 694 l 810 694 l 810 579 l 694 579 l 694 463 l 694 347 l 810 347 l 810 231 l 694 231 l 694 231 l 694 347 l 579 347 l 579 463 l 463 463 l 463 347 l 463 231 l 347 231 l 347 463 m 694 579 l 694 694 l 579 694 l 463 694 l 463 579 l 579 579 l 694 579 m 231 926 l 231 1042 l 463 1042 l 810 1042 l 810 926 l 926 926 l 926 810 l 926 810 l 1042 810 l 1042 463 l 1042 231 l 926 231 l 926 116 l 926 116 l 810 116 l 810 0 l 463 0 l 231 0 l 231 116 l 116 116 l 116 231 l 0 231 l 0 463 l 0 810 l 116 810 l 116 926 l 231 926 l 231 926 m 810 810 l 810 926 l 463 926 l 231 926 l 231 810 l 231 810 l 116 810 l 116 463 l 116 231 l 231 231 l 231 116 l 463 116 l 810 116 l 810 231 l 926 231 l 926 463 l 926 810 l 810 810 z "},"¯":{"ha":926,"x_min":0,"x_max":810,"o":"m 0 1042 l 0 1157 l 463 1157 l 810 1157 l 810 1042 l 463 1042 l 0 1042 z "},"°":{"ha":463,"x_min":0,"x_max":347,"o":"m 116 926 l 116 1042 l 231 1042 l 231 926 l 347 926 l 347 810 l 347 810 l 231 810 l 231 694 l 116 694 l 116 694 l 116 810 l 0 810 l 0 926 l 116 926 l 116 926 m 231 810 l 231 926 l 116 926 l 116 810 l 116 810 l 231 810 z "},"±":{"ha":694,"x_min":0,"x_max":579,"o":"m 0 0 l 0 116 l 347 116 l 579 116 l 579 0 l 347 0 l 0 0 m 231 694 l 231 810 l 347 810 l 347 694 l 347 579 l 463 579 l 579 579 l 579 463 l 463 463 l 347 463 l 347 347 l 347 231 l 231 231 l 231 347 l 231 463 l 116 463 l 0 463 l 0 579 l 116 579 l 231 579 l 231 694 z "},"²":{"ha":579,"x_min":0,"x_max":463,"o":"m 0 926 l 0 1042 l 231 1042 l 347 1042 l 347 926 l 463 926 l 463 810 l 463 810 l 347 810 l 347 694 l 231 694 l 231 579 l 347 579 l 463 579 l 463 463 l 231 463 l 0 463 l 0 579 l 116 579 l 116 694 l 231 694 l 231 694 l 231 810 l 347 810 l 347 926 l 231 926 l 0 926 z "},"³":{"ha":579,"x_min":0,"x_max":463,"o":"m 0 926 l 0 1042 l 231 1042 l 347 1042 l 347 926 l 463 926 l 463 810 l 463 810 l 347 810 l 347 694 l 463 694 l 463 579 l 463 579 l 347 579 l 347 463 l 231 463 l 0 463 l 0 579 l 231 579 l 347 579 l 347 694 l 231 694 l 116 694 l 116 810 l 231 810 l 347 810 l 347 926 l 231 926 l 0 926 z "},"´":{"ha":347,"x_min":0,"x_max":231,"o":"m 116 1042 l 116 1157 l 231 1157 l 231 1042 l 116 1042 l 116 926 l 116 926 l 0 926 l 0 1042 l 116 1042 l 116 1042 z "},"µ":{"ha":810,"x_min":0,"x_max":694,"o":"m 0 231 l 0 810 l 116 810 l 116 463 l 116 116 l 347 116 l 463 116 l 463 463 l 463 810 l 579 810 l 579 463 l 579 116 l 694 116 l 694 0 l 579 0 l 579 0 l 579 116 l 463 116 l 463 0 l 347 0 l 116 0 l 116 -116 l 116 -231 l 0 -231 l 0 231 z "},"¶":{"ha":810,"x_min":0,"x_max":694,"o":"m 116 926 l 116 1042 l 463 1042 l 694 1042 l 694 926 l 694 926 l 579 926 l 579 347 l 579 -231 l 463 -231 l 463 347 l 463 926 l 347 926 l 347 347 l 347 -231 l 231 -231 l 231 116 l 231 463 l 116 463 l 116 579 l 0 579 l 0 694 l 0 926 l 116 926 z "},"·":{"ha":231,"x_min":0,"x_max":116,"o":"m 0 347 l 0 463 l 116 463 l 116 347 l 116 347 l 0 347 z "},"¸":{"ha":347,"x_min":0,"x_max":231,"o":"m 0 -116 l 0 0 l 116 0 l 116 -116 l 116 -116 l 231 -116 l 231 -231 l 116 -231 l 116 -347 l 116 -347 l 0 -347 l 0 -231 l 116 -231 l 116 -231 l 116 -116 l 0 -116 z "},"¹":{"ha":463,"x_min":0,"x_max":347,"o":"m 116 926 l 116 1042 l 231 1042 l 231 810 l 231 579 l 347 579 l 347 463 l 116 463 l 0 463 l 0 579 l 116 579 l 116 694 l 116 810 l 0 810 l 0 926 l 116 926 l 116 926 z "},"º":{"ha":463,"x_min":0,"x_max":347,"o":"m 116 926 l 116 1042 l 231 1042 l 231 926 l 231 926 l 347 926 l 347 694 l 347 579 l 231 579 l 231 463 l 231 463 l 116 463 l 116 579 l 0 579 l 0 694 l 0 926 l 116 926 m 231 694 l 231 926 l 116 926 l 116 694 l 116 579 l 231 579 l 231 694 z "},"»":{"ha":810,"x_min":0,"x_max":694,"o":"m 347 579 l 347 694 l 463 694 l 463 579 l 579 579 l 579 463 l 579 463 l 694 463 l 694 347 l 579 347 l 579 231 l 579 231 l 463 231 l 463 116 l 347 116 l 347 116 l 347 231 l 463 231 l 463 347 l 579 347 l 579 347 l 579 463 l 463 463 l 463 579 l 347 579 l 347 579 m 0 579 l 0 694 l 116 694 l 116 579 l 116 579 l 231 579 l 231 463 l 347 463 l 347 347 l 347 347 l 231 347 l 231 231 l 116 231 l 116 116 l 116 116 l 0 116 l 0 231 l 116 231 l 116 231 l 116 347 l 231 347 l 231 463 l 116 463 l 116 463 l 116 579 l 0 579 z "},"¼":{"ha":1157,"x_min":0,"x_max":1042,"o":"m 810 463 l 810 579 l 926 579 l 926 347 l 926 231 l 1042 231 l 1042 116 l 1042 116 l 926 116 l 926 0 l 810 0 l 810 0 l 810 116 l 694 116 l 579 116 l 579 231 l 579 347 l 694 347 l 694 463 l 810 463 l 810 463 m 810 231 l 810 347 l 694 347 l 694 231 l 810 231 l 810 231 m 116 926 l 116 1042 l 231 1042 l 231 810 l 231 579 l 347 579 l 463 579 l 463 694 l 579 694 l 579 810 l 579 926 l 694 926 l 694 1042 l 810 1042 l 810 926 l 810 926 l 694 926 l 694 810 l 694 694 l 579 694 l 579 579 l 579 579 l 463 579 l 463 463 l 463 347 l 347 347 l 347 231 l 347 116 l 231 116 l 231 0 l 116 0 l 116 0 l 116 116 l 231 116 l 231 231 l 231 347 l 347 347 l 347 347 l 347 463 l 116 463 l 0 463 l 0 579 l 116 579 l 116 694 l 116 810 l 0 810 l 0 926 l 116 926 l 116 926 z "},"½":{"ha":1157,"x_min":0,"x_max":1042,"o":"m 116 926 l 116 1042 l 231 1042 l 231 810 l 231 579 l 347 579 l 463 579 l 463 694 l 579 694 l 579 810 l 579 926 l 694 926 l 694 1042 l 810 1042 l 810 926 l 810 926 l 694 926 l 694 810 l 694 694 l 579 694 l 579 579 l 810 579 l 926 579 l 926 463 l 1042 463 l 1042 347 l 1042 347 l 926 347 l 926 231 l 810 231 l 810 116 l 926 116 l 1042 116 l 1042 0 l 810 0 l 579 0 l 579 116 l 694 116 l 694 231 l 810 231 l 810 231 l 810 347 l 926 347 l 926 463 l 810 463 l 579 463 l 579 579 l 463 579 l 463 463 l 463 347 l 347 347 l 347 231 l 347 116 l 231 116 l 231 0 l 116 0 l 116 0 l 116 116 l 231 116 l 231 231 l 231 347 l 347 347 l 347 347 l 347 463 l 116 463 l 0 463 l 0 579 l 116 579 l 116 694 l 116 810 l 0 810 l 0 926 l 116 926 l 116 926 z "},"¾":{"ha":1273,"x_min":0,"x_max":1157,"o":"m 926 926 l 926 1042 l 1042 1042 l 1042 926 l 926 926 l 926 810 l 926 694 l 810 694 l 810 579 l 694 579 l 694 463 l 694 347 l 810 347 l 810 463 l 926 463 l 926 463 l 926 579 l 1042 579 l 1042 347 l 1042 231 l 1157 231 l 1157 116 l 1157 116 l 1042 116 l 1042 0 l 926 0 l 926 0 l 926 116 l 810 116 l 694 116 l 694 231 l 694 347 l 579 347 l 579 231 l 579 116 l 463 116 l 463 0 l 463 0 l 347 0 l 347 116 l 463 116 l 463 231 l 463 347 l 579 347 l 579 463 l 579 579 l 694 579 l 694 579 l 694 694 l 810 694 l 810 810 l 810 926 l 926 926 l 926 926 m 926 231 l 926 347 l 810 347 l 810 231 l 926 231 l 926 231 m 0 926 l 0 1042 l 231 1042 l 347 1042 l 347 926 l 463 926 l 463 810 l 463 810 l 347 810 l 347 694 l 463 694 l 463 579 l 463 579 l 347 579 l 347 463 l 231 463 l 0 463 l 0 579 l 231 579 l 347 579 l 347 694 l 231 694 l 116 694 l 116 810 l 231 810 l 347 810 l 347 926 l 231 926 l 0 926 z "},"¿":{"ha":694,"x_min":0,"x_max":579,"o":"m 231 463 l 231 579 l 347 579 l 347 463 l 347 347 l 231 347 l 231 231 l 116 231 l 116 0 l 116 -116 l 347 -116 l 463 -116 l 463 0 l 579 0 l 579 -116 l 579 -116 l 463 -116 l 463 -231 l 347 -231 l 116 -231 l 116 -116 l 0 -116 l 0 0 l 0 231 l 116 231 l 116 231 l 116 347 l 231 347 l 231 463 m 231 694 l 231 810 l 347 810 l 347 694 l 347 694 l 231 694 z "},"À":{"ha":926,"x_min":0,"x_max":810,"o":"m 347 926 l 347 1042 l 463 1042 l 463 926 l 463 926 l 579 926 l 579 694 l 579 579 l 694 579 l 694 347 l 694 231 l 810 231 l 810 116 l 810 0 l 694 0 l 694 116 l 694 231 l 579 231 l 579 347 l 463 347 l 231 347 l 231 231 l 231 231 l 116 231 l 116 116 l 116 0 l 0 0 l 0 116 l 0 231 l 116 231 l 116 347 l 116 579 l 231 579 l 231 694 l 231 926 l 347 926 m 463 694 l 463 926 l 347 926 l 347 694 l 347 579 l 231 579 l 231 463 l 463 463 l 579 463 l 579 579 l 463 579 l 463 694 m 347 1273 l 347 1389 l 463 1389 l 463 1273 l 463 1273 l 579 1273 l 579 1157 l 463 1157 l 463 1157 l 463 1273 l 347 1273 z "},"Á":{"ha":926,"x_min":0,"x_max":810,"o":"m 347 926 l 347 1042 l 463 1042 l 463 926 l 463 926 l 579 926 l 579 694 l 579 579 l 694 579 l 694 347 l 694 231 l 810 231 l 810 116 l 810 0 l 694 0 l 694 116 l 694 231 l 579 231 l 579 347 l 463 347 l 231 347 l 231 231 l 231 231 l 116 231 l 116 116 l 116 0 l 0 0 l 0 116 l 0 231 l 116 231 l 116 347 l 116 579 l 231 579 l 231 694 l 231 926 l 347 926 m 463 694 l 463 926 l 347 926 l 347 694 l 347 579 l 231 579 l 231 463 l 463 463 l 579 463 l 579 579 l 463 579 l 463 694 m 463 1273 l 463 1389 l 579 1389 l 579 1273 l 463 1273 l 463 1157 l 463 1157 l 347 1157 l 347 1273 l 463 1273 l 463 1273 z "},"Â":{"ha":926,"x_min":0,"x_max":810,"o":"m 347 926 l 347 1042 l 463 1042 l 463 926 l 463 926 l 579 926 l 579 694 l 579 579 l 694 579 l 694 347 l 694 231 l 810 231 l 810 116 l 810 0 l 694 0 l 694 116 l 694 231 l 579 231 l 579 347 l 463 347 l 231 347 l 231 231 l 231 231 l 116 231 l 116 116 l 116 0 l 0 0 l 0 116 l 0 231 l 116 231 l 116 347 l 116 579 l 231 579 l 231 694 l 231 926 l 347 926 m 463 694 l 463 926 l 347 926 l 347 694 l 347 579 l 231 579 l 231 463 l 463 463 l 579 463 l 579 579 l 463 579 l 463 694 m 347 1273 l 347 1389 l 463 1389 l 463 1273 l 463 1273 l 579 1273 l 579 1157 l 463 1157 l 463 1157 l 463 1273 l 347 1273 l 347 1157 l 231 1157 l 231 1157 l 231 1273 l 347 1273 z "},"Ã":{"ha":926,"x_min":0,"x_max":810,"o":"m 347 926 l 347 1042 l 463 1042 l 463 926 l 463 926 l 579 926 l 579 694 l 579 579 l 694 579 l 694 347 l 694 231 l 810 231 l 810 116 l 810 0 l 694 0 l 694 116 l 694 231 l 579 231 l 579 347 l 463 347 l 231 347 l 231 231 l 231 231 l 116 231 l 116 116 l 116 0 l 0 0 l 0 116 l 0 231 l 116 231 l 116 347 l 116 579 l 231 579 l 231 694 l 231 926 l 347 926 m 463 694 l 463 926 l 347 926 l 347 694 l 347 579 l 231 579 l 231 463 l 463 463 l 579 463 l 579 579 l 463 579 l 463 694 m 347 1273 l 347 1389 l 463 1389 l 463 1273 l 463 1273 l 579 1273 l 579 1389 l 694 1389 l 694 1273 l 694 1273 l 579 1273 l 579 1157 l 463 1157 l 463 1157 l 463 1273 l 347 1273 l 347 1157 l 231 1157 l 231 1157 l 231 1273 l 347 1273 z "},"Ä":{"ha":926,"x_min":0,"x_max":810,"o":"m 347 926 l 347 1042 l 463 1042 l 463 926 l 463 926 l 579 926 l 579 694 l 579 579 l 694 579 l 694 347 l 694 231 l 810 231 l 810 116 l 810 0 l 694 0 l 694 116 l 694 231 l 579 231 l 579 347 l 463 347 l 231 347 l 231 231 l 231 231 l 116 231 l 116 116 l 116 0 l 0 0 l 0 116 l 0 231 l 116 231 l 116 347 l 116 579 l 231 579 l 231 694 l 231 926 l 347 926 m 463 694 l 463 926 l 347 926 l 347 694 l 347 579 l 231 579 l 231 463 l 463 463 l 579 463 l 579 579 l 463 579 l 463 694 m 463 1157 l 463 1273 l 579 1273 l 579 1157 l 463 1157 l 463 1157 m 231 1157 l 231 1273 l 347 1273 l 347 1157 l 231 1157 l 231 1157 z "},"Å":{"ha":926,"x_min":0,"x_max":810,"o":"m 347 1157 l 347 1273 l 463 1273 l 463 1157 l 463 1157 l 579 1157 l 579 1042 l 463 1042 l 463 926 l 463 926 l 579 926 l 579 694 l 579 579 l 694 579 l 694 347 l 694 231 l 810 231 l 810 116 l 810 0 l 694 0 l 694 116 l 694 231 l 579 231 l 579 347 l 463 347 l 231 347 l 231 231 l 231 231 l 116 231 l 116 116 l 116 0 l 0 0 l 0 116 l 0 231 l 116 231 l 116 347 l 116 579 l 231 579 l 231 694 l 231 926 l 347 926 l 347 1042 l 231 1042 l 231 1042 l 231 1157 l 347 1157 m 463 1042 l 463 1157 l 347 1157 l 347 1042 l 463 1042 l 463 1042 m 463 694 l 463 926 l 347 926 l 347 694 l 347 579 l 231 579 l 231 463 l 463 463 l 579 463 l 579 579 l 463 579 l 463 694 z "},"Æ":{"ha":1389,"x_min":0,"x_max":1273,"o":"m 463 926 l 463 1042 l 926 1042 l 1273 1042 l 1273 926 l 1042 926 l 810 926 l 810 694 l 810 579 l 926 579 l 1157 579 l 1157 463 l 926 463 l 810 463 l 810 231 l 810 116 l 1042 116 l 1273 116 l 1273 0 l 926 0 l 694 0 l 694 116 l 694 347 l 463 347 l 231 347 l 231 231 l 231 116 l 116 116 l 116 0 l 0 0 l 0 0 l 0 116 l 116 116 l 116 231 l 116 347 l 231 347 l 231 463 l 231 579 l 347 579 l 347 694 l 347 810 l 463 810 l 463 926 m 694 694 l 694 926 l 579 926 l 579 810 l 463 810 l 463 694 l 463 579 l 347 579 l 347 463 l 463 463 l 694 463 l 694 694 z "},"Ç":{"ha":926,"x_min":0,"x_max":810,"o":"m 231 926 l 231 1042 l 463 1042 l 694 1042 l 694 926 l 810 926 l 810 810 l 810 810 l 694 810 l 694 926 l 463 926 l 231 926 l 231 810 l 116 810 l 116 463 l 116 231 l 231 231 l 231 116 l 463 116 l 694 116 l 694 231 l 810 231 l 810 116 l 810 116 l 694 116 l 694 0 l 579 0 l 463 0 l 463 -116 l 579 -116 l 579 -231 l 579 -231 l 463 -231 l 463 -347 l 347 -347 l 347 -347 l 347 -231 l 463 -231 l 463 -116 l 347 -116 l 347 -116 l 347 0 l 231 0 l 231 116 l 116 116 l 116 116 l 116 231 l 0 231 l 0 463 l 0 810 l 116 810 l 116 810 l 116 926 l 231 926 z "},"È":{"ha":810,"x_min":0,"x_max":694,"o":"m 0 463 l 0 1042 l 347 1042 l 694 1042 l 694 926 l 347 926 l 116 926 l 116 694 l 116 579 l 347 579 l 579 579 l 579 463 l 347 463 l 116 463 l 116 231 l 116 116 l 347 116 l 694 116 l 694 0 l 347 0 l 0 0 l 0 463 m 231 1273 l 231 1389 l 347 1389 l 347 1273 l 347 1273 l 463 1273 l 463 1157 l 347 1157 l 347 1157 l 347 1273 l 231 1273 z "},"É":{"ha":810,"x_min":0,"x_max":694,"o":"m 0 463 l 0 1042 l 347 1042 l 694 1042 l 694 926 l 347 926 l 116 926 l 116 694 l 116 579 l 347 579 l 579 579 l 579 463 l 347 463 l 116 463 l 116 231 l 116 116 l 347 116 l 694 116 l 694 0 l 347 0 l 0 0 l 0 463 m 347 1273 l 347 1389 l 463 1389 l 463 1273 l 347 1273 l 347 1157 l 347 1157 l 231 1157 l 231 1273 l 347 1273 l 347 1273 z "},"Ê":{"ha":810,"x_min":0,"x_max":694,"o":"m 0 463 l 0 1042 l 347 1042 l 694 1042 l 694 926 l 347 926 l 116 926 l 116 694 l 116 579 l 347 579 l 579 579 l 579 463 l 347 463 l 116 463 l 116 231 l 116 116 l 347 116 l 694 116 l 694 0 l 347 0 l 0 0 l 0 463 m 347 1273 l 347 1389 l 463 1389 l 463 1273 l 579 1273 l 579 1157 l 579 1157 l 463 1157 l 463 1273 l 347 1273 l 347 1157 l 347 1157 l 231 1157 l 231 1273 l 347 1273 l 347 1273 z "},"Ë":{"ha":810,"x_min":0,"x_max":694,"o":"m 0 463 l 0 1042 l 347 1042 l 694 1042 l 694 926 l 347 926 l 116 926 l 116 694 l 116 579 l 347 579 l 579 579 l 579 463 l 347 463 l 116 463 l 116 231 l 116 116 l 347 116 l 694 116 l 694 0 l 347 0 l 0 0 l 0 463 m 463 1157 l 463 1273 l 579 1273 l 579 1157 l 579 1157 l 463 1157 m 231 1157 l 231 1273 l 347 1273 l 347 1157 l 347 1157 l 231 1157 z "},"Ì":{"ha":347,"x_min":0,"x_max":231,"o":"m 116 463 l 116 1042 l 231 1042 l 231 463 l 231 0 l 116 0 l 116 463 m 0 1273 l 0 1389 l 116 1389 l 116 1273 l 231 1273 l 231 1157 l 231 1157 l 116 1157 l 116 1273 l 0 1273 l 0 1273 z "},"Í":{"ha":347,"x_min":0,"x_max":231,"o":"m 0 463 l 0 1042 l 116 1042 l 116 463 l 116 0 l 0 0 l 0 463 m 116 1273 l 116 1389 l 231 1389 l 231 1273 l 116 1273 l 116 1157 l 116 1157 l 0 1157 l 0 1273 l 116 1273 l 116 1273 z "},"Î":{"ha":463,"x_min":0,"x_max":347,"o":"m 116 463 l 116 1042 l 231 1042 l 231 463 l 231 0 l 116 0 l 116 463 m 116 1273 l 116 1389 l 231 1389 l 231 1273 l 231 1273 l 347 1273 l 347 1157 l 231 1157 l 231 1157 l 231 1273 l 116 1273 l 116 1157 l 0 1157 l 0 1157 l 0 1273 l 116 1273 z "},"Ï":{"ha":463,"x_min":0,"x_max":347,"o":"m 116 463 l 116 1042 l 231 1042 l 231 463 l 231 0 l 116 0 l 116 463 m 231 1157 l 231 1273 l 347 1273 l 347 1157 l 231 1157 l 231 1157 m 0 1157 l 0 1273 l 116 1273 l 116 1157 l 0 1157 l 0 1157 z "},"Ð":{"ha":1042,"x_min":0,"x_max":926,"o":"m 116 810 l 116 1042 l 463 1042 l 694 1042 l 694 926 l 694 926 l 810 926 l 810 810 l 926 810 l 926 463 l 926 231 l 810 231 l 810 116 l 694 116 l 694 0 l 463 0 l 116 0 l 116 231 l 116 463 l 0 463 l 0 463 l 0 579 l 116 579 l 116 810 m 694 810 l 694 926 l 463 926 l 231 926 l 231 694 l 231 579 l 347 579 l 463 579 l 463 463 l 347 463 l 231 463 l 231 231 l 231 116 l 463 116 l 694 116 l 694 231 l 810 231 l 810 463 l 810 810 l 694 810 l 694 810 z "},"Ñ":{"ha":926,"x_min":0,"x_max":810,"o":"m 0 463 l 0 1042 l 116 1042 l 116 926 l 116 926 l 231 926 l 231 810 l 347 810 l 347 694 l 347 579 l 463 579 l 463 463 l 579 463 l 579 347 l 579 231 l 694 231 l 694 579 l 694 1042 l 810 1042 l 810 463 l 810 0 l 694 0 l 694 116 l 579 116 l 579 116 l 579 231 l 463 231 l 463 347 l 463 463 l 347 463 l 347 463 l 347 579 l 231 579 l 231 694 l 231 810 l 116 810 l 116 347 l 116 0 l 0 0 l 0 463 m 347 1273 l 347 1389 l 463 1389 l 463 1273 l 579 1273 l 579 1273 l 579 1389 l 694 1389 l 694 1273 l 579 1273 l 579 1157 l 579 1157 l 463 1157 l 463 1273 l 347 1273 l 347 1157 l 347 1157 l 231 1157 l 231 1273 l 347 1273 l 347 1273 z "},"Ò":{"ha":926,"x_min":0,"x_max":810,"o":"m 231 926 l 231 1042 l 347 1042 l 579 1042 l 579 926 l 579 926 l 694 926 l 694 810 l 810 810 l 810 463 l 810 231 l 694 231 l 694 116 l 579 116 l 579 0 l 347 0 l 231 0 l 231 116 l 116 116 l 116 116 l 116 231 l 0 231 l 0 463 l 0 810 l 116 810 l 116 810 l 116 926 l 231 926 m 579 810 l 579 926 l 347 926 l 231 926 l 231 810 l 116 810 l 116 463 l 116 231 l 231 231 l 231 116 l 347 116 l 579 116 l 579 231 l 694 231 l 694 463 l 694 810 l 579 810 l 579 810 m 231 1273 l 231 1389 l 347 1389 l 347 1273 l 347 1273 l 463 1273 l 463 1157 l 347 1157 l 347 1157 l 347 1273 l 231 1273 z "},"Ó":{"ha":926,"x_min":0,"x_max":810,"o":"m 231 926 l 231 1042 l 347 1042 l 579 1042 l 579 926 l 579 926 l 694 926 l 694 810 l 810 810 l 810 463 l 810 231 l 694 231 l 694 116 l 579 116 l 579 0 l 347 0 l 231 0 l 231 116 l 116 116 l 116 116 l 116 231 l 0 231 l 0 463 l 0 810 l 116 810 l 116 810 l 116 926 l 231 926 m 579 810 l 579 926 l 347 926 l 231 926 l 231 810 l 116 810 l 116 463 l 116 231 l 231 231 l 231 116 l 347 116 l 579 116 l 579 231 l 694 231 l 694 463 l 694 810 l 579 810 l 579 810 m 463 1273 l 463 1389 l 579 1389 l 579 1273 l 579 1273 l 463 1273 l 463 1157 l 347 1157 l 347 1157 l 347 1273 l 463 1273 z "},"Ô":{"ha":926,"x_min":0,"x_max":810,"o":"m 231 926 l 231 1042 l 347 1042 l 579 1042 l 579 926 l 579 926 l 694 926 l 694 810 l 810 810 l 810 463 l 810 231 l 694 231 l 694 116 l 579 116 l 579 0 l 347 0 l 231 0 l 231 116 l 116 116 l 116 116 l 116 231 l 0 231 l 0 463 l 0 810 l 116 810 l 116 810 l 116 926 l 231 926 m 579 810 l 579 926 l 347 926 l 231 926 l 231 810 l 116 810 l 116 463 l 116 231 l 231 231 l 231 116 l 347 116 l 579 116 l 579 231 l 694 231 l 694 463 l 694 810 l 579 810 l 579 810 m 347 1273 l 347 1389 l 463 1389 l 463 1273 l 579 1273 l 579 1157 l 579 1157 l 463 1157 l 463 1273 l 347 1273 l 347 1157 l 347 1157 l 231 1157 l 231 1273 l 347 1273 l 347 1273 z "},"Õ":{"ha":926,"x_min":0,"x_max":810,"o":"m 231 926 l 231 1042 l 347 1042 l 579 1042 l 579 926 l 579 926 l 694 926 l 694 810 l 810 810 l 810 463 l 810 231 l 694 231 l 694 116 l 579 116 l 579 0 l 347 0 l 231 0 l 231 116 l 116 116 l 116 116 l 116 231 l 0 231 l 0 463 l 0 810 l 116 810 l 116 810 l 116 926 l 231 926 m 579 810 l 579 926 l 347 926 l 231 926 l 231 810 l 116 810 l 116 463 l 116 231 l 231 231 l 231 116 l 347 116 l 579 116 l 579 231 l 694 231 l 694 463 l 694 810 l 579 810 l 579 810 m 347 1273 l 347 1389 l 463 1389 l 463 1273 l 579 1273 l 579 1273 l 579 1389 l 694 1389 l 694 1273 l 579 1273 l 579 1157 l 579 1157 l 463 1157 l 463 1273 l 347 1273 l 347 1157 l 347 1157 l 231 1157 l 231 1273 l 347 1273 l 347 1273 z "},"Ö":{"ha":926,"x_min":0,"x_max":810,"o":"m 231 926 l 231 1042 l 347 1042 l 579 1042 l 579 926 l 579 926 l 694 926 l 694 810 l 810 810 l 810 463 l 810 231 l 694 231 l 694 116 l 579 116 l 579 0 l 347 0 l 231 0 l 231 116 l 116 116 l 116 116 l 116 231 l 0 231 l 0 463 l 0 810 l 116 810 l 116 810 l 116 926 l 231 926 m 579 810 l 579 926 l 347 926 l 231 926 l 231 810 l 116 810 l 116 463 l 116 231 l 231 231 l 231 116 l 347 116 l 579 116 l 579 231 l 694 231 l 694 463 l 694 810 l 579 810 l 579 810 m 463 1157 l 463 1273 l 579 1273 l 579 1157 l 579 1157 l 463 1157 m 231 1157 l 231 1273 l 347 1273 l 347 1157 l 347 1157 l 231 1157 z "},"×":{"ha":694,"x_min":0,"x_max":579,"o":"m 0 694 l 0 810 l 116 810 l 116 694 l 116 694 l 231 694 l 231 579 l 347 579 l 347 579 l 347 694 l 463 694 l 463 810 l 579 810 l 579 694 l 579 694 l 463 694 l 463 579 l 347 579 l 347 463 l 347 463 l 463 463 l 463 347 l 579 347 l 579 231 l 579 231 l 463 231 l 463 347 l 347 347 l 347 347 l 347 463 l 231 463 l 231 347 l 116 347 l 116 231 l 116 231 l 0 231 l 0 347 l 116 347 l 116 347 l 116 463 l 231 463 l 231 579 l 116 579 l 116 579 l 116 694 l 0 694 z "},"Ø":{"ha":926,"x_min":0,"x_max":810,"o":"m 463 694 l 463 810 l 579 810 l 579 694 l 579 579 l 463 579 l 463 463 l 347 463 l 347 347 l 347 231 l 231 231 l 231 347 l 231 463 l 347 463 l 347 463 l 347 579 l 463 579 l 463 694 m 231 926 l 231 1042 l 347 1042 l 579 1042 l 579 926 l 579 926 l 694 926 l 694 1042 l 810 1042 l 810 926 l 810 926 l 694 926 l 694 810 l 810 810 l 810 463 l 810 231 l 694 231 l 694 116 l 579 116 l 579 0 l 347 0 l 231 0 l 231 116 l 116 116 l 116 0 l 116 0 l 0 0 l 0 116 l 116 116 l 116 116 l 116 231 l 0 231 l 0 463 l 0 810 l 116 810 l 116 810 l 116 926 l 231 926 m 579 810 l 579 926 l 347 926 l 231 926 l 231 810 l 116 810 l 116 463 l 116 231 l 231 231 l 231 116 l 347 116 l 579 116 l 579 231 l 694 231 l 694 463 l 694 810 l 579 810 l 579 810 z "},"Ù":{"ha":926,"x_min":0,"x_max":810,"o":"m 0 579 l 0 1042 l 116 1042 l 116 579 l 116 231 l 231 231 l 231 116 l 347 116 l 579 116 l 579 231 l 694 231 l 694 579 l 694 1042 l 810 1042 l 810 579 l 810 231 l 694 231 l 694 116 l 579 116 l 579 0 l 347 0 l 231 0 l 231 116 l 116 116 l 116 116 l 116 231 l 0 231 l 0 579 m 347 1273 l 347 1389 l 463 1389 l 463 1273 l 579 1273 l 579 1157 l 579 1157 l 463 1157 l 463 1273 l 347 1273 l 347 1273 z "},"Ú":{"ha":926,"x_min":0,"x_max":810,"o":"m 0 579 l 0 1042 l 116 1042 l 116 579 l 116 231 l 231 231 l 231 116 l 347 116 l 579 116 l 579 231 l 694 231 l 694 579 l 694 1042 l 810 1042 l 810 579 l 810 231 l 694 231 l 694 116 l 579 116 l 579 0 l 347 0 l 231 0 l 231 116 l 116 116 l 116 116 l 116 231 l 0 231 l 0 579 m 463 1273 l 463 1389 l 579 1389 l 579 1273 l 579 1273 l 463 1273 l 463 1157 l 347 1157 l 347 1157 l 347 1273 l 463 1273 z "},"Û":{"ha":926,"x_min":0,"x_max":810,"o":"m 0 579 l 0 1042 l 116 1042 l 116 579 l 116 231 l 231 231 l 231 116 l 347 116 l 579 116 l 579 231 l 694 231 l 694 579 l 694 1042 l 810 1042 l 810 579 l 810 231 l 694 231 l 694 116 l 579 116 l 579 0 l 347 0 l 231 0 l 231 116 l 116 116 l 116 116 l 116 231 l 0 231 l 0 579 m 347 1273 l 347 1389 l 463 1389 l 463 1273 l 579 1273 l 579 1157 l 579 1157 l 463 1157 l 463 1273 l 347 1273 l 347 1157 l 347 1157 l 231 1157 l 231 1273 l 347 1273 l 347 1273 z "},"Ü":{"ha":926,"x_min":0,"x_max":810,"o":"m 0 579 l 0 1042 l 116 1042 l 116 579 l 116 231 l 231 231 l 231 116 l 347 116 l 579 116 l 579 231 l 694 231 l 694 579 l 694 1042 l 810 1042 l 810 579 l 810 231 l 694 231 l 694 116 l 579 116 l 579 0 l 347 0 l 231 0 l 231 116 l 116 116 l 116 116 l 116 231 l 0 231 l 0 579 m 463 1157 l 463 1273 l 579 1273 l 579 1157 l 579 1157 l 463 1157 m 231 1157 l 231 1273 l 347 1273 l 347 1157 l 347 1157 l 231 1157 z "},"Ý":{"ha":926,"x_min":0,"x_max":810,"o":"m 0 926 l 0 1042 l 116 1042 l 116 926 l 231 926 l 231 810 l 231 810 l 347 810 l 347 694 l 347 579 l 463 579 l 463 694 l 463 810 l 579 810 l 579 926 l 694 926 l 694 926 l 694 1042 l 810 1042 l 810 926 l 694 926 l 694 810 l 694 810 l 579 810 l 579 694 l 579 579 l 463 579 l 463 231 l 463 0 l 347 0 l 347 231 l 347 579 l 231 579 l 231 694 l 231 810 l 116 810 l 116 926 l 0 926 l 0 926 m 463 1273 l 463 1389 l 579 1389 l 579 1273 l 463 1273 l 463 1157 l 463 1157 l 347 1157 l 347 1273 l 463 1273 l 463 1273 z "},"Þ":{"ha":810,"x_min":0,"x_max":694,"o":"m 0 463 l 0 1042 l 116 1042 l 116 926 l 116 810 l 347 810 l 579 810 l 579 694 l 579 694 l 694 694 l 694 463 l 694 347 l 579 347 l 579 231 l 347 231 l 116 231 l 116 116 l 116 0 l 0 0 l 0 463 m 579 463 l 579 694 l 347 694 l 116 694 l 116 463 l 116 347 l 347 347 l 579 347 l 579 463 z "},"ß":{"ha":810,"x_min":0,"x_max":694,"o":"m 116 926 l 116 1042 l 347 1042 l 463 1042 l 463 926 l 579 926 l 579 810 l 579 694 l 463 694 l 463 579 l 463 463 l 579 463 l 579 347 l 579 347 l 694 347 l 694 231 l 694 116 l 579 116 l 579 0 l 347 0 l 231 0 l 231 116 l 347 116 l 579 116 l 579 231 l 579 347 l 463 347 l 463 463 l 347 463 l 347 579 l 347 694 l 463 694 l 463 810 l 463 926 l 347 926 l 116 926 l 116 463 l 116 0 l 0 0 l 0 463 l 0 926 l 116 926 l 116 926 z "},"à":{"ha":810,"x_min":0,"x_max":694,"o":"m 116 694 l 116 810 l 347 810 l 463 810 l 463 694 l 579 694 l 579 347 l 579 116 l 694 116 l 694 0 l 579 0 l 579 0 l 579 116 l 463 116 l 347 116 l 347 0 l 231 0 l 116 0 l 116 116 l 0 116 l 0 231 l 0 347 l 116 347 l 116 347 l 116 463 l 347 463 l 463 463 l 463 579 l 463 694 l 347 694 l 116 694 l 116 579 l 116 579 l 0 579 l 0 694 l 116 694 l 116 694 m 463 231 l 463 347 l 347 347 l 116 347 l 116 231 l 116 116 l 231 116 l 347 116 l 347 231 l 463 231 m 231 1042 l 231 1157 l 347 1157 l 347 1042 l 347 1042 l 463 1042 l 463 926 l 347 926 l 347 926 l 347 1042 l 231 1042 z "},"á":{"ha":810,"x_min":0,"x_max":694,"o":"m 116 694 l 116 810 l 347 810 l 463 810 l 463 694 l 579 694 l 579 347 l 579 116 l 694 116 l 694 0 l 579 0 l 579 0 l 579 116 l 463 116 l 347 116 l 347 0 l 231 0 l 116 0 l 116 116 l 0 116 l 0 231 l 0 347 l 116 347 l 116 347 l 116 463 l 347 463 l 463 463 l 463 579 l 463 694 l 347 694 l 116 694 l 116 579 l 116 579 l 0 579 l 0 694 l 116 694 l 116 694 m 463 231 l 463 347 l 347 347 l 116 347 l 116 231 l 116 116 l 231 116 l 347 116 l 347 231 l 463 231 m 347 1042 l 347 1157 l 463 1157 l 463 1042 l 347 1042 l 347 926 l 347 926 l 231 926 l 231 1042 l 347 1042 l 347 1042 z "},"â":{"ha":810,"x_min":0,"x_max":694,"o":"m 116 694 l 116 810 l 347 810 l 463 810 l 463 694 l 579 694 l 579 347 l 579 116 l 694 116 l 694 0 l 579 0 l 579 0 l 579 116 l 463 116 l 347 116 l 347 0 l 231 0 l 116 0 l 116 116 l 0 116 l 0 231 l 0 347 l 116 347 l 116 347 l 116 463 l 347 463 l 463 463 l 463 579 l 463 694 l 347 694 l 116 694 l 116 579 l 116 579 l 0 579 l 0 694 l 116 694 l 116 694 m 463 231 l 463 347 l 347 347 l 116 347 l 116 231 l 116 116 l 231 116 l 347 116 l 347 231 l 463 231 m 231 1042 l 231 1157 l 347 1157 l 347 1042 l 347 1042 l 463 1042 l 463 926 l 347 926 l 347 926 l 347 1042 l 231 1042 l 231 926 l 116 926 l 116 926 l 116 1042 l 231 1042 z "},"ã":{"ha":810,"x_min":0,"x_max":694,"o":"m 116 694 l 116 810 l 347 810 l 463 810 l 463 694 l 579 694 l 579 347 l 579 116 l 694 116 l 694 0 l 579 0 l 579 0 l 579 116 l 463 116 l 347 116 l 347 0 l 231 0 l 116 0 l 116 116 l 0 116 l 0 231 l 0 347 l 116 347 l 116 347 l 116 463 l 347 463 l 463 463 l 463 579 l 463 694 l 347 694 l 116 694 l 116 579 l 116 579 l 0 579 l 0 694 l 116 694 l 116 694 m 463 231 l 463 347 l 347 347 l 116 347 l 116 231 l 116 116 l 231 116 l 347 116 l 347 231 l 463 231 m 231 1042 l 231 1157 l 347 1157 l 347 1042 l 347 1042 l 463 1042 l 463 1157 l 579 1157 l 579 1042 l 579 1042 l 463 1042 l 463 926 l 347 926 l 347 926 l 347 1042 l 231 1042 l 231 926 l 116 926 l 116 926 l 116 1042 l 231 1042 z "},"ä":{"ha":810,"x_min":0,"x_max":694,"o":"m 116 694 l 116 810 l 347 810 l 463 810 l 463 694 l 579 694 l 579 347 l 579 116 l 694 116 l 694 0 l 579 0 l 579 0 l 579 116 l 463 116 l 347 116 l 347 0 l 231 0 l 116 0 l 116 116 l 0 116 l 0 231 l 0 347 l 116 347 l 116 347 l 116 463 l 347 463 l 463 463 l 463 579 l 463 694 l 347 694 l 116 694 l 116 579 l 116 579 l 0 579 l 0 694 l 116 694 l 116 694 m 463 231 l 463 347 l 347 347 l 116 347 l 116 231 l 116 116 l 231 116 l 347 116 l 347 231 l 463 231 m 347 926 l 347 1042 l 463 1042 l 463 926 l 347 926 l 347 926 m 116 926 l 116 1042 l 231 1042 l 231 926 l 116 926 l 116 926 z "},"å":{"ha":810,"x_min":0,"x_max":694,"o":"m 116 694 l 116 810 l 347 810 l 463 810 l 463 694 l 579 694 l 579 347 l 579 116 l 694 116 l 694 0 l 579 0 l 579 0 l 579 116 l 463 116 l 347 116 l 347 0 l 231 0 l 116 0 l 116 116 l 0 116 l 0 231 l 0 347 l 116 347 l 116 347 l 116 463 l 347 463 l 463 463 l 463 579 l 463 694 l 347 694 l 116 694 l 116 579 l 116 579 l 0 579 l 0 694 l 116 694 l 116 694 m 463 231 l 463 347 l 347 347 l 116 347 l 116 231 l 116 116 l 231 116 l 347 116 l 347 231 l 463 231 m 231 1157 l 231 1273 l 347 1273 l 347 1157 l 347 1157 l 463 1157 l 463 1042 l 347 1042 l 347 926 l 347 926 l 231 926 l 231 1042 l 116 1042 l 116 1042 l 116 1157 l 231 1157 m 347 1042 l 347 1157 l 231 1157 l 231 1042 l 347 1042 l 347 1042 z "},"æ":{"ha":1157,"x_min":0,"x_max":1042,"o":"m 116 694 l 116 810 l 347 810 l 463 810 l 463 694 l 579 694 l 579 694 l 579 810 l 810 810 l 926 810 l 926 694 l 1042 694 l 1042 463 l 1042 347 l 810 347 l 579 347 l 579 231 l 579 116 l 810 116 l 926 116 l 926 231 l 1042 231 l 1042 116 l 1042 116 l 926 116 l 926 0 l 810 0 l 579 0 l 579 116 l 463 116 l 347 116 l 347 0 l 231 0 l 116 0 l 116 116 l 0 116 l 0 231 l 0 347 l 116 347 l 116 347 l 116 463 l 347 463 l 463 463 l 463 579 l 463 694 l 347 694 l 116 694 l 116 579 l 116 579 l 0 579 l 0 694 l 116 694 l 116 694 m 926 579 l 926 694 l 810 694 l 579 694 l 579 579 l 579 463 l 810 463 l 926 463 l 926 579 m 463 231 l 463 347 l 347 347 l 116 347 l 116 231 l 116 116 l 231 116 l 347 116 l 347 231 l 463 231 z "},"ç":{"ha":579,"x_min":0,"x_max":463,"o":"m 116 694 l 116 810 l 231 810 l 347 810 l 347 694 l 347 694 l 463 694 l 463 579 l 347 579 l 347 579 l 347 694 l 231 694 l 116 694 l 116 347 l 116 116 l 231 116 l 347 116 l 347 231 l 463 231 l 463 116 l 347 116 l 347 0 l 347 0 l 231 0 l 231 -116 l 347 -116 l 347 -231 l 347 -231 l 231 -231 l 231 -347 l 116 -347 l 116 -347 l 116 -231 l 231 -231 l 231 -116 l 116 -116 l 116 0 l 116 116 l 0 116 l 0 347 l 0 694 l 116 694 l 116 694 z "},"è":{"ha":694,"x_min":0,"x_max":579,"o":"m 116 694 l 116 810 l 347 810 l 463 810 l 463 694 l 579 694 l 579 463 l 579 347 l 347 347 l 116 347 l 116 231 l 116 116 l 347 116 l 463 116 l 463 231 l 579 231 l 579 116 l 579 116 l 463 116 l 463 0 l 347 0 l 116 0 l 116 116 l 0 116 l 0 347 l 0 694 l 116 694 l 116 694 m 463 579 l 463 694 l 347 694 l 116 694 l 116 579 l 116 463 l 347 463 l 463 463 l 463 579 m 231 1042 l 231 1157 l 347 1157 l 347 1042 l 347 1042 l 463 1042 l 463 926 l 347 926 l 347 926 l 347 1042 l 231 1042 z "},"é":{"ha":694,"x_min":0,"x_max":579,"o":"m 116 694 l 116 810 l 347 810 l 463 810 l 463 694 l 579 694 l 579 463 l 579 347 l 347 347 l 116 347 l 116 231 l 116 116 l 347 116 l 463 116 l 463 231 l 579 231 l 579 116 l 579 116 l 463 116 l 463 0 l 347 0 l 116 0 l 116 116 l 0 116 l 0 347 l 0 694 l 116 694 l 116 694 m 463 579 l 463 694 l 347 694 l 116 694 l 116 579 l 116 463 l 347 463 l 463 463 l 463 579 m 347 1042 l 347 1157 l 463 1157 l 463 1042 l 347 1042 l 347 926 l 347 926 l 231 926 l 231 1042 l 347 1042 l 347 1042 z "},"ê":{"ha":694,"x_min":0,"x_max":579,"o":"m 116 694 l 116 810 l 347 810 l 463 810 l 463 694 l 579 694 l 579 463 l 579 347 l 347 347 l 116 347 l 116 231 l 116 116 l 347 116 l 463 116 l 463 231 l 579 231 l 579 116 l 579 116 l 463 116 l 463 0 l 347 0 l 116 0 l 116 116 l 0 116 l 0 347 l 0 694 l 116 694 l 116 694 m 463 579 l 463 694 l 347 694 l 116 694 l 116 579 l 116 463 l 347 463 l 463 463 l 463 579 m 231 1042 l 231 1157 l 347 1157 l 347 1042 l 347 1042 l 463 1042 l 463 926 l 347 926 l 347 926 l 347 1042 l 231 1042 l 231 926 l 116 926 l 116 926 l 116 1042 l 231 1042 z "},"ë":{"ha":694,"x_min":0,"x_max":579,"o":"m 116 694 l 116 810 l 347 810 l 463 810 l 463 694 l 579 694 l 579 463 l 579 347 l 347 347 l 116 347 l 116 231 l 116 116 l 347 116 l 463 116 l 463 231 l 579 231 l 579 116 l 579 116 l 463 116 l 463 0 l 347 0 l 116 0 l 116 116 l 0 116 l 0 347 l 0 694 l 116 694 l 116 694 m 463 579 l 463 694 l 347 694 l 116 694 l 116 579 l 116 463 l 347 463 l 463 463 l 463 579 m 347 926 l 347 1042 l 463 1042 l 463 926 l 347 926 l 347 926 m 116 926 l 116 1042 l 231 1042 l 231 926 l 116 926 l 116 926 z "},"ì":{"ha":347,"x_min":0,"x_max":231,"o":"m 116 347 l 116 810 l 231 810 l 231 347 l 231 0 l 116 0 l 116 347 m 0 1042 l 0 1157 l 116 1157 l 116 1042 l 231 1042 l 231 926 l 231 926 l 116 926 l 116 1042 l 0 1042 l 0 1042 z "},"í":{"ha":347,"x_min":0,"x_max":231,"o":"m 0 347 l 0 810 l 116 810 l 116 347 l 116 0 l 0 0 l 0 347 m 116 1042 l 116 1157 l 231 1157 l 231 1042 l 116 1042 l 116 926 l 116 926 l 0 926 l 0 1042 l 116 1042 l 116 1042 z "},"î":{"ha":463,"x_min":0,"x_max":347,"o":"m 116 347 l 116 810 l 231 810 l 231 347 l 231 0 l 116 0 l 116 347 m 116 1042 l 116 1157 l 231 1157 l 231 1042 l 231 1042 l 347 1042 l 347 926 l 231 926 l 231 926 l 231 1042 l 116 1042 l 116 926 l 0 926 l 0 926 l 0 1042 l 116 1042 z "},"ï":{"ha":463,"x_min":0,"x_max":347,"o":"m 116 347 l 116 810 l 231 810 l 231 347 l 231 0 l 116 0 l 116 347 m 231 926 l 231 1042 l 347 1042 l 347 926 l 231 926 l 231 926 m 0 926 l 0 1042 l 116 1042 l 116 926 l 0 926 l 0 926 z "},"ð":{"ha":694,"x_min":0,"x_max":579,"o":"m 116 926 l 116 1042 l 231 1042 l 231 926 l 347 926 l 347 926 l 347 1042 l 463 1042 l 463 926 l 347 926 l 347 810 l 347 810 l 463 810 l 463 694 l 579 694 l 579 347 l 579 116 l 463 116 l 463 0 l 347 0 l 116 0 l 116 116 l 0 116 l 0 347 l 0 579 l 116 579 l 116 579 l 116 694 l 231 694 l 347 694 l 347 810 l 231 810 l 116 810 l 116 926 m 463 347 l 463 579 l 347 579 l 116 579 l 116 347 l 116 116 l 347 116 l 463 116 l 463 347 z "},"ñ":{"ha":694,"x_min":0,"x_max":579,"o":"m 0 347 l 0 810 l 116 810 l 116 694 l 116 694 l 231 694 l 231 810 l 347 810 l 463 810 l 463 694 l 579 694 l 579 347 l 579 0 l 463 0 l 463 347 l 463 694 l 347 694 l 231 694 l 231 579 l 116 579 l 116 231 l 116 0 l 0 0 l 0 347 m 231 1042 l 231 1157 l 347 1157 l 347 1042 l 347 1042 l 463 1042 l 463 1157 l 579 1157 l 579 1042 l 579 1042 l 463 1042 l 463 926 l 347 926 l 347 926 l 347 1042 l 231 1042 l 231 926 l 116 926 l 116 926 l 116 1042 l 231 1042 z "},"ò":{"ha":694,"x_min":0,"x_max":579,"o":"m 116 694 l 116 810 l 347 810 l 463 810 l 463 694 l 579 694 l 579 347 l 579 116 l 463 116 l 463 0 l 347 0 l 116 0 l 116 116 l 0 116 l 0 347 l 0 694 l 116 694 l 116 694 m 463 347 l 463 694 l 347 694 l 116 694 l 116 347 l 116 116 l 347 116 l 463 116 l 463 347 m 231 1042 l 231 1157 l 347 1157 l 347 1042 l 347 1042 l 463 1042 l 463 926 l 347 926 l 347 926 l 347 1042 l 231 1042 z "},"ó":{"ha":694,"x_min":0,"x_max":579,"o":"m 116 694 l 116 810 l 347 810 l 463 810 l 463 694 l 579 694 l 579 347 l 579 116 l 463 116 l 463 0 l 347 0 l 116 0 l 116 116 l 0 116 l 0 347 l 0 694 l 116 694 l 116 694 m 463 347 l 463 694 l 347 694 l 116 694 l 116 347 l 116 116 l 347 116 l 463 116 l 463 347 m 347 1042 l 347 1157 l 463 1157 l 463 1042 l 347 1042 l 347 926 l 347 926 l 231 926 l 231 1042 l 347 1042 l 347 1042 z "},"ô":{"ha":694,"x_min":0,"x_max":579,"o":"m 116 694 l 116 810 l 347 810 l 463 810 l 463 694 l 579 694 l 579 347 l 579 116 l 463 116 l 463 0 l 347 0 l 116 0 l 116 116 l 0 116 l 0 347 l 0 694 l 116 694 l 116 694 m 463 347 l 463 694 l 347 694 l 116 694 l 116 347 l 116 116 l 347 116 l 463 116 l 463 347 m 231 1042 l 231 1157 l 347 1157 l 347 1042 l 347 1042 l 463 1042 l 463 926 l 347 926 l 347 926 l 347 1042 l 231 1042 l 231 926 l 116 926 l 116 926 l 116 1042 l 231 1042 z "},"õ":{"ha":694,"x_min":0,"x_max":579,"o":"m 116 694 l 116 810 l 347 810 l 463 810 l 463 694 l 579 694 l 579 347 l 579 116 l 463 116 l 463 0 l 347 0 l 116 0 l 116 116 l 0 116 l 0 347 l 0 694 l 116 694 l 116 694 m 463 347 l 463 694 l 347 694 l 116 694 l 116 347 l 116 116 l 347 116 l 463 116 l 463 347 m 231 1042 l 231 1157 l 347 1157 l 347 1042 l 347 1042 l 463 1042 l 463 1157 l 579 1157 l 579 1042 l 579 1042 l 463 1042 l 463 926 l 347 926 l 347 926 l 347 1042 l 231 1042 l 231 926 l 116 926 l 116 926 l 116 1042 l 231 1042 z "},"ö":{"ha":694,"x_min":0,"x_max":579,"o":"m 116 694 l 116 810 l 347 810 l 463 810 l 463 694 l 579 694 l 579 347 l 579 116 l 463 116 l 463 0 l 347 0 l 116 0 l 116 116 l 0 116 l 0 347 l 0 694 l 116 694 l 116 694 m 463 347 l 463 694 l 347 694 l 116 694 l 116 347 l 116 116 l 347 116 l 463 116 l 463 347 m 347 926 l 347 1042 l 463 1042 l 463 926 l 347 926 l 347 926 m 116 926 l 116 1042 l 231 1042 l 231 926 l 116 926 l 116 926 z "},"÷":{"ha":694,"x_min":0,"x_max":579,"o":"m 231 231 l 231 347 l 347 347 l 347 231 l 347 231 l 231 231 m 0 463 l 0 579 l 347 579 l 579 579 l 579 463 l 347 463 l 0 463 m 231 694 l 231 810 l 347 810 l 347 694 l 347 694 l 231 694 z "},"ø":{"ha":694,"x_min":0,"x_max":579,"o":"m 231 347 l 231 463 l 347 463 l 347 347 l 347 347 l 231 347 m 116 694 l 116 810 l 347 810 l 579 810 l 579 463 l 579 116 l 463 116 l 463 0 l 231 0 l 0 0 l 0 347 l 0 694 l 116 694 l 116 694 m 463 579 l 463 694 l 347 694 l 116 694 l 116 463 l 116 347 l 231 347 l 231 231 l 116 231 l 116 116 l 347 116 l 463 116 l 463 231 l 463 463 l 347 463 l 347 463 l 347 579 l 463 579 z "},"ù":{"ha":694,"x_min":0,"x_max":579,"o":"m 0 463 l 0 810 l 116 810 l 116 463 l 116 116 l 231 116 l 347 116 l 347 231 l 463 231 l 463 463 l 463 810 l 579 810 l 579 347 l 579 0 l 463 0 l 463 116 l 347 116 l 347 0 l 231 0 l 116 0 l 116 116 l 0 116 l 0 463 m 231 1042 l 231 1157 l 347 1157 l 347 1042 l 347 1042 l 463 1042 l 463 926 l 347 926 l 347 926 l 347 1042 l 231 1042 z "},"ú":{"ha":694,"x_min":0,"x_max":579,"o":"m 0 463 l 0 810 l 116 810 l 116 463 l 116 116 l 231 116 l 347 116 l 347 231 l 463 231 l 463 463 l 463 810 l 579 810 l 579 347 l 579 0 l 463 0 l 463 116 l 347 116 l 347 0 l 231 0 l 116 0 l 116 116 l 0 116 l 0 463 m 347 1042 l 347 1157 l 463 1157 l 463 1042 l 347 1042 l 347 926 l 347 926 l 231 926 l 231 1042 l 347 1042 l 347 1042 z "},"û":{"ha":694,"x_min":0,"x_max":579,"o":"m 0 463 l 0 810 l 116 810 l 116 463 l 116 116 l 231 116 l 347 116 l 347 231 l 463 231 l 463 463 l 463 810 l 579 810 l 579 347 l 579 0 l 463 0 l 463 116 l 347 116 l 347 0 l 231 0 l 116 0 l 116 116 l 0 116 l 0 463 m 231 1042 l 231 1157 l 347 1157 l 347 1042 l 347 1042 l 463 1042 l 463 926 l 347 926 l 347 926 l 347 1042 l 231 1042 l 231 926 l 116 926 l 116 926 l 116 1042 l 231 1042 z "},"ü":{"ha":694,"x_min":0,"x_max":579,"o":"m 0 463 l 0 810 l 116 810 l 116 463 l 116 116 l 231 116 l 347 116 l 347 231 l 463 231 l 463 463 l 463 810 l 579 810 l 579 347 l 579 0 l 463 0 l 463 116 l 347 116 l 347 0 l 231 0 l 116 0 l 116 116 l 0 116 l 0 463 m 347 926 l 347 1042 l 463 1042 l 463 926 l 347 926 l 347 926 m 116 926 l 116 1042 l 231 1042 l 231 926 l 116 926 l 116 926 z "},"ý":{"ha":694,"x_min":0,"x_max":579,"o":"m 0 694 l 0 810 l 116 810 l 116 694 l 116 579 l 231 579 l 231 347 l 231 116 l 347 116 l 347 347 l 347 579 l 463 579 l 463 694 l 463 810 l 579 810 l 579 694 l 579 579 l 463 579 l 463 347 l 463 116 l 347 116 l 347 0 l 347 -116 l 231 -116 l 231 -231 l 116 -231 l 0 -231 l 0 -116 l 116 -116 l 231 -116 l 231 0 l 231 116 l 116 116 l 116 347 l 116 579 l 0 579 l 0 694 m 463 1042 l 463 1157 l 579 1157 l 579 1042 l 463 1042 l 463 926 l 463 926 l 347 926 l 347 1042 l 463 1042 l 463 1042 z "},"þ":{"ha":694,"x_min":0,"x_max":579,"o":"m 0 347 l 0 1042 l 116 1042 l 116 810 l 116 694 l 231 694 l 231 810 l 347 810 l 463 810 l 463 694 l 579 694 l 579 347 l 579 116 l 463 116 l 463 0 l 347 0 l 231 0 l 231 116 l 116 116 l 116 -116 l 116 -231 l 0 -231 l 0 347 m 463 347 l 463 694 l 347 694 l 231 694 l 231 579 l 116 579 l 116 347 l 116 231 l 231 231 l 231 116 l 347 116 l 463 116 l 463 347 z "},"ÿ":{"ha":694,"x_min":0,"x_max":579,"o":"m 0 694 l 0 810 l 116 810 l 116 694 l 116 579 l 231 579 l 231 347 l 231 116 l 347 116 l 347 347 l 347 579 l 463 579 l 463 694 l 463 810 l 579 810 l 579 694 l 579 579 l 463 579 l 463 347 l 463 116 l 347 116 l 347 0 l 347 -116 l 231 -116 l 231 -231 l 116 -231 l 0 -231 l 0 -116 l 116 -116 l 231 -116 l 231 0 l 231 116 l 116 116 l 116 347 l 116 579 l 0 579 l 0 694 m 347 926 l 347 1042 l 463 1042 l 463 926 l 463 926 l 347 926 m 116 926 l 116 1042 l 231 1042 l 231 926 l 231 926 l 116 926 z "},"Ā":{"ha":926,"x_min":0,"x_max":810,"o":"m 347 926 l 347 1042 l 463 1042 l 463 926 l 463 926 l 579 926 l 579 694 l 579 579 l 694 579 l 694 347 l 694 231 l 810 231 l 810 116 l 810 0 l 694 0 l 694 116 l 694 231 l 579 231 l 579 347 l 463 347 l 231 347 l 231 231 l 231 231 l 116 231 l 116 116 l 116 0 l 0 0 l 0 116 l 0 231 l 116 231 l 116 347 l 116 579 l 231 579 l 231 694 l 231 926 l 347 926 m 463 694 l 463 926 l 347 926 l 347 694 l 347 579 l 231 579 l 231 463 l 463 463 l 579 463 l 579 579 l 463 579 l 463 694 m 231 1157 l 231 1273 l 463 1273 l 579 1273 l 579 1157 l 463 1157 l 231 1157 z "},"ā":{"ha":810,"x_min":0,"x_max":694,"o":"m 116 694 l 116 810 l 347 810 l 463 810 l 463 694 l 579 694 l 579 347 l 579 116 l 694 116 l 694 0 l 579 0 l 579 0 l 579 116 l 463 116 l 347 116 l 347 0 l 231 0 l 116 0 l 116 116 l 0 116 l 0 231 l 0 347 l 116 347 l 116 347 l 116 463 l 347 463 l 463 463 l 463 579 l 463 694 l 347 694 l 116 694 l 116 579 l 116 579 l 0 579 l 0 694 l 116 694 l 116 694 m 463 231 l 463 347 l 347 347 l 116 347 l 116 231 l 116 116 l 231 116 l 347 116 l 347 231 l 463 231 m 116 926 l 116 1042 l 347 1042 l 463 1042 l 463 926 l 347 926 l 116 926 z "},"Ă":{"ha":926,"x_min":0,"x_max":810,"o":"m 347 926 l 347 1042 l 463 1042 l 463 926 l 463 926 l 579 926 l 579 694 l 579 579 l 694 579 l 694 347 l 694 231 l 810 231 l 810 116 l 810 0 l 694 0 l 694 116 l 694 231 l 579 231 l 579 347 l 463 347 l 231 347 l 231 231 l 231 231 l 116 231 l 116 116 l 116 0 l 0 0 l 0 116 l 0 231 l 116 231 l 116 347 l 116 579 l 231 579 l 231 694 l 231 926 l 347 926 m 463 694 l 463 926 l 347 926 l 347 694 l 347 579 l 231 579 l 231 463 l 463 463 l 579 463 l 579 579 l 463 579 l 463 694 m 231 1273 l 231 1389 l 347 1389 l 347 1273 l 463 1273 l 579 1273 l 579 1389 l 694 1389 l 694 1273 l 694 1273 l 579 1273 l 579 1157 l 463 1157 l 347 1157 l 347 1273 l 231 1273 l 231 1273 z "},"ă":{"ha":810,"x_min":0,"x_max":694,"o":"m 116 694 l 116 810 l 347 810 l 463 810 l 463 694 l 579 694 l 579 347 l 579 116 l 694 116 l 694 0 l 579 0 l 579 0 l 579 116 l 463 116 l 347 116 l 347 0 l 231 0 l 116 0 l 116 116 l 0 116 l 0 231 l 0 347 l 116 347 l 116 347 l 116 463 l 347 463 l 463 463 l 463 579 l 463 694 l 347 694 l 116 694 l 116 579 l 116 579 l 0 579 l 0 694 l 116 694 l 116 694 m 463 231 l 463 347 l 347 347 l 116 347 l 116 231 l 116 116 l 231 116 l 347 116 l 347 231 l 463 231 m 116 1042 l 116 1157 l 231 1157 l 231 1042 l 347 1042 l 463 1042 l 463 1157 l 579 1157 l 579 1042 l 579 1042 l 463 1042 l 463 926 l 347 926 l 231 926 l 231 1042 l 116 1042 l 116 1042 z "},"Ą":{"ha":926,"x_min":0,"x_max":810,"o":"m 347 926 l 347 1042 l 463 1042 l 463 926 l 463 926 l 579 926 l 579 694 l 579 579 l 694 579 l 694 347 l 694 231 l 810 231 l 810 0 l 810 -116 l 694 -116 l 694 -231 l 694 -231 l 810 -231 l 810 -347 l 694 -347 l 694 -347 l 694 -231 l 579 -231 l 579 -116 l 694 -116 l 694 0 l 694 231 l 579 231 l 579 347 l 463 347 l 231 347 l 231 231 l 231 231 l 116 231 l 116 116 l 116 0 l 0 0 l 0 116 l 0 231 l 116 231 l 116 347 l 116 579 l 231 579 l 231 694 l 231 926 l 347 926 m 463 694 l 463 926 l 347 926 l 347 694 l 347 579 l 231 579 l 231 463 l 463 463 l 579 463 l 579 579 l 463 579 l 463 694 z "},"ą":{"ha":810,"x_min":0,"x_max":694,"o":"m 116 694 l 116 810 l 347 810 l 463 810 l 463 694 l 579 694 l 579 347 l 579 116 l 694 116 l 694 0 l 694 -116 l 579 -116 l 579 -231 l 579 -231 l 694 -231 l 694 -347 l 579 -347 l 579 -347 l 579 -231 l 463 -231 l 463 -116 l 579 -116 l 579 0 l 579 116 l 463 116 l 347 116 l 347 0 l 231 0 l 116 0 l 116 116 l 0 116 l 0 231 l 0 347 l 116 347 l 116 347 l 116 463 l 347 463 l 463 463 l 463 579 l 463 694 l 347 694 l 116 694 l 116 579 l 116 579 l 0 579 l 0 694 l 116 694 l 116 694 m 463 231 l 463 347 l 347 347 l 116 347 l 116 231 l 116 116 l 231 116 l 347 116 l 347 231 l 463 231 z "},"Ć":{"ha":926,"x_min":0,"x_max":810,"o":"m 231 926 l 231 1042 l 463 1042 l 694 1042 l 694 926 l 810 926 l 810 810 l 810 810 l 694 810 l 694 926 l 463 926 l 231 926 l 231 810 l 116 810 l 116 463 l 116 231 l 231 231 l 231 116 l 463 116 l 694 116 l 694 231 l 810 231 l 810 116 l 810 116 l 694 116 l 694 0 l 463 0 l 231 0 l 231 116 l 116 116 l 116 116 l 116 231 l 0 231 l 0 463 l 0 810 l 116 810 l 116 810 l 116 926 l 231 926 m 463 1273 l 463 1389 l 579 1389 l 579 1273 l 579 1273 l 463 1273 l 463 1157 l 347 1157 l 347 1157 l 347 1273 l 463 1273 z "},"ć":{"ha":579,"x_min":0,"x_max":463,"o":"m 116 694 l 116 810 l 231 810 l 347 810 l 347 694 l 347 694 l 463 694 l 463 579 l 347 579 l 347 579 l 347 694 l 231 694 l 116 694 l 116 347 l 116 116 l 231 116 l 347 116 l 347 231 l 463 231 l 463 116 l 347 116 l 347 0 l 231 0 l 116 0 l 116 116 l 0 116 l 0 347 l 0 694 l 116 694 l 116 694 m 347 1042 l 347 1157 l 463 1157 l 463 1042 l 347 1042 l 347 926 l 347 926 l 231 926 l 231 1042 l 347 1042 l 347 1042 z "},"Ĉ":{"ha":926,"x_min":0,"x_max":810,"o":"m 231 926 l 231 1042 l 463 1042 l 694 1042 l 694 926 l 810 926 l 810 810 l 810 810 l 694 810 l 694 926 l 463 926 l 231 926 l 231 810 l 116 810 l 116 463 l 116 231 l 231 231 l 231 116 l 463 116 l 694 116 l 694 231 l 810 231 l 810 116 l 810 116 l 694 116 l 694 0 l 463 0 l 231 0 l 231 116 l 116 116 l 116 116 l 116 231 l 0 231 l 0 463 l 0 810 l 116 810 l 116 810 l 116 926 l 231 926 m 347 1273 l 347 1389 l 463 1389 l 463 1273 l 579 1273 l 579 1157 l 579 1157 l 463 1157 l 463 1273 l 347 1273 l 347 1157 l 347 1157 l 231 1157 l 231 1273 l 347 1273 l 347 1273 z "},"ĉ":{"ha":579,"x_min":0,"x_max":463,"o":"m 116 694 l 116 810 l 231 810 l 347 810 l 347 694 l 347 694 l 463 694 l 463 579 l 347 579 l 347 579 l 347 694 l 231 694 l 116 694 l 116 347 l 116 116 l 231 116 l 347 116 l 347 231 l 463 231 l 463 116 l 347 116 l 347 0 l 231 0 l 116 0 l 116 116 l 0 116 l 0 347 l 0 694 l 116 694 l 116 694 m 231 1042 l 231 1157 l 347 1157 l 347 1042 l 347 1042 l 463 1042 l 463 926 l 347 926 l 347 926 l 347 1042 l 231 1042 l 231 926 l 116 926 l 116 926 l 116 1042 l 231 1042 z "},"Ċ":{"ha":926,"x_min":0,"x_max":810,"o":"m 231 926 l 231 1042 l 463 1042 l 694 1042 l 694 926 l 810 926 l 810 810 l 810 810 l 694 810 l 694 926 l 463 926 l 231 926 l 231 810 l 116 810 l 116 463 l 116 231 l 231 231 l 231 116 l 463 116 l 694 116 l 694 231 l 810 231 l 810 116 l 810 116 l 694 116 l 694 0 l 463 0 l 231 0 l 231 116 l 116 116 l 116 116 l 116 231 l 0 231 l 0 463 l 0 810 l 116 810 l 116 810 l 116 926 l 231 926 m 347 1157 l 347 1273 l 463 1273 l 463 1157 l 347 1157 l 347 1157 z "},"ċ":{"ha":579,"x_min":0,"x_max":463,"o":"m 116 694 l 116 810 l 231 810 l 347 810 l 347 694 l 347 694 l 463 694 l 463 579 l 347 579 l 347 579 l 347 694 l 231 694 l 116 694 l 116 347 l 116 116 l 231 116 l 347 116 l 347 231 l 463 231 l 463 116 l 347 116 l 347 0 l 231 0 l 116 0 l 116 116 l 0 116 l 0 347 l 0 694 l 116 694 l 116 694 m 231 926 l 231 1042 l 347 1042 l 347 926 l 347 926 l 231 926 z "},"Č":{"ha":926,"x_min":0,"x_max":810,"o":"m 231 926 l 231 1042 l 463 1042 l 694 1042 l 694 926 l 810 926 l 810 810 l 810 810 l 694 810 l 694 926 l 463 926 l 231 926 l 231 810 l 116 810 l 116 463 l 116 231 l 231 231 l 231 116 l 463 116 l 694 116 l 694 231 l 810 231 l 810 116 l 810 116 l 694 116 l 694 0 l 463 0 l 231 0 l 231 116 l 116 116 l 116 116 l 116 231 l 0 231 l 0 463 l 0 810 l 116 810 l 116 810 l 116 926 l 231 926 m 231 1273 l 231 1389 l 347 1389 l 347 1273 l 347 1273 l 463 1273 l 463 1389 l 579 1389 l 579 1273 l 579 1273 l 463 1273 l 463 1157 l 347 1157 l 347 1157 l 347 1273 l 231 1273 z "},"č":{"ha":579,"x_min":0,"x_max":463,"o":"m 116 694 l 116 810 l 231 810 l 347 810 l 347 694 l 347 694 l 463 694 l 463 579 l 347 579 l 347 579 l 347 694 l 231 694 l 116 694 l 116 347 l 116 116 l 231 116 l 347 116 l 347 231 l 463 231 l 463 116 l 347 116 l 347 0 l 231 0 l 116 0 l 116 116 l 0 116 l 0 347 l 0 694 l 116 694 l 116 694 m 116 1042 l 116 1157 l 231 1157 l 231 1042 l 347 1042 l 347 1042 l 347 1157 l 463 1157 l 463 1042 l 347 1042 l 347 926 l 347 926 l 231 926 l 231 1042 l 116 1042 l 116 1042 z "},"Ď":{"ha":926,"x_min":0,"x_max":810,"o":"m 0 463 l 0 1042 l 347 1042 l 579 1042 l 579 926 l 579 926 l 694 926 l 694 810 l 810 810 l 810 463 l 810 231 l 694 231 l 694 116 l 579 116 l 579 0 l 347 0 l 0 0 l 0 463 m 579 810 l 579 926 l 347 926 l 116 926 l 116 463 l 116 116 l 347 116 l 579 116 l 579 231 l 694 231 l 694 463 l 694 810 l 579 810 l 579 810 m 231 1273 l 231 1389 l 347 1389 l 347 1273 l 347 1273 l 463 1273 l 463 1389 l 579 1389 l 579 1273 l 579 1273 l 463 1273 l 463 1157 l 347 1157 l 347 1157 l 347 1273 l 231 1273 z "},"ď":{"ha":926,"x_min":0,"x_max":810,"o":"m 694 926 l 694 1042 l 810 1042 l 810 926 l 810 810 l 694 810 l 694 926 m 463 810 l 463 1042 l 579 1042 l 579 463 l 579 0 l 463 0 l 463 116 l 347 116 l 347 0 l 231 0 l 116 0 l 116 116 l 0 116 l 0 347 l 0 694 l 116 694 l 116 694 l 116 810 l 231 810 l 347 810 l 347 694 l 347 694 l 463 694 l 463 810 m 347 579 l 347 694 l 231 694 l 116 694 l 116 347 l 116 116 l 231 116 l 347 116 l 347 231 l 463 231 l 463 347 l 463 579 l 347 579 l 347 579 z "},"Đ":{"ha":1042,"x_min":0,"x_max":926,"o":"m 116 810 l 116 1042 l 463 1042 l 694 1042 l 694 926 l 694 926 l 810 926 l 810 810 l 926 810 l 926 463 l 926 231 l 810 231 l 810 116 l 694 116 l 694 0 l 463 0 l 116 0 l 116 231 l 116 463 l 0 463 l 0 463 l 0 579 l 116 579 l 116 810 m 694 810 l 694 926 l 463 926 l 231 926 l 231 694 l 231 579 l 347 579 l 463 579 l 463 463 l 347 463 l 231 463 l 231 231 l 231 116 l 463 116 l 694 116 l 694 231 l 810 231 l 810 463 l 810 810 l 694 810 l 694 810 z "},"đ":{"ha":810,"x_min":0,"x_max":694,"o":"m 463 926 l 463 1042 l 579 1042 l 579 926 l 579 926 l 694 926 l 694 810 l 579 810 l 579 347 l 579 0 l 347 0 l 116 0 l 116 116 l 0 116 l 0 347 l 0 579 l 116 579 l 116 579 l 116 694 l 231 694 l 347 694 l 347 579 l 347 579 l 463 579 l 463 694 l 463 810 l 347 810 l 231 810 l 231 926 l 347 926 l 463 926 m 347 463 l 347 579 l 231 579 l 116 579 l 116 347 l 116 116 l 347 116 l 463 116 l 463 231 l 463 463 l 347 463 l 347 463 z "},"Ē":{"ha":810,"x_min":0,"x_max":694,"o":"m 0 463 l 0 1042 l 347 1042 l 694 1042 l 694 926 l 347 926 l 116 926 l 116 694 l 116 579 l 347 579 l 579 579 l 579 463 l 347 463 l 116 463 l 116 231 l 116 116 l 347 116 l 694 116 l 694 0 l 347 0 l 0 0 l 0 463 m 231 1157 l 231 1273 l 347 1273 l 579 1273 l 579 1157 l 347 1157 l 231 1157 z "},"ē":{"ha":694,"x_min":0,"x_max":579,"o":"m 116 694 l 116 810 l 347 810 l 463 810 l 463 694 l 579 694 l 579 463 l 579 347 l 347 347 l 116 347 l 116 231 l 116 116 l 347 116 l 463 116 l 463 231 l 579 231 l 579 116 l 579 116 l 463 116 l 463 0 l 347 0 l 116 0 l 116 116 l 0 116 l 0 347 l 0 694 l 116 694 l 116 694 m 463 579 l 463 694 l 347 694 l 116 694 l 116 579 l 116 463 l 347 463 l 463 463 l 463 579 m 116 926 l 116 1042 l 347 1042 l 463 1042 l 463 926 l 347 926 l 116 926 z "},"Ĕ":{"ha":810,"x_min":0,"x_max":694,"o":"m 0 463 l 0 1042 l 347 1042 l 694 1042 l 694 926 l 347 926 l 116 926 l 116 694 l 116 579 l 347 579 l 579 579 l 579 463 l 347 463 l 116 463 l 116 231 l 116 116 l 347 116 l 694 116 l 694 0 l 347 0 l 0 0 l 0 463 m 116 1273 l 116 1389 l 231 1389 l 231 1273 l 347 1273 l 463 1273 l 463 1389 l 579 1389 l 579 1273 l 579 1273 l 463 1273 l 463 1157 l 347 1157 l 231 1157 l 231 1273 l 116 1273 l 116 1273 z "},"ĕ":{"ha":694,"x_min":0,"x_max":579,"o":"m 116 694 l 116 810 l 347 810 l 463 810 l 463 694 l 579 694 l 579 463 l 579 347 l 347 347 l 116 347 l 116 231 l 116 116 l 347 116 l 463 116 l 463 231 l 579 231 l 579 116 l 579 116 l 463 116 l 463 0 l 347 0 l 116 0 l 116 116 l 0 116 l 0 347 l 0 694 l 116 694 l 116 694 m 463 579 l 463 694 l 347 694 l 116 694 l 116 579 l 116 463 l 347 463 l 463 463 l 463 579 m 116 1042 l 116 1157 l 231 1157 l 231 1042 l 347 1042 l 463 1042 l 463 1157 l 579 1157 l 579 1042 l 579 1042 l 463 1042 l 463 926 l 347 926 l 231 926 l 231 1042 l 116 1042 l 116 1042 z "},"Ė":{"ha":810,"x_min":0,"x_max":694,"o":"m 0 463 l 0 1042 l 347 1042 l 694 1042 l 694 926 l 347 926 l 116 926 l 116 694 l 116 579 l 347 579 l 579 579 l 579 463 l 347 463 l 116 463 l 116 231 l 116 116 l 347 116 l 694 116 l 694 0 l 347 0 l 0 0 l 0 463 m 347 1157 l 347 1273 l 463 1273 l 463 1157 l 347 1157 l 347 1157 z "},"ė":{"ha":694,"x_min":0,"x_max":579,"o":"m 116 694 l 116 810 l 347 810 l 463 810 l 463 694 l 579 694 l 579 463 l 579 347 l 347 347 l 116 347 l 116 231 l 116 116 l 347 116 l 463 116 l 463 231 l 579 231 l 579 116 l 579 116 l 463 116 l 463 0 l 347 0 l 116 0 l 116 116 l 0 116 l 0 347 l 0 694 l 116 694 l 116 694 m 463 579 l 463 694 l 347 694 l 116 694 l 116 579 l 116 463 l 347 463 l 463 463 l 463 579 m 231 926 l 231 1042 l 347 1042 l 347 926 l 347 926 l 231 926 z "},"Ę":{"ha":810,"x_min":0,"x_max":694,"o":"m 0 463 l 0 1042 l 347 1042 l 694 1042 l 694 926 l 347 926 l 116 926 l 116 694 l 116 579 l 347 579 l 579 579 l 579 463 l 347 463 l 116 463 l 116 231 l 116 116 l 347 116 l 694 116 l 694 0 l 694 -116 l 579 -116 l 579 -231 l 579 -231 l 694 -231 l 694 -347 l 579 -347 l 579 -347 l 579 -231 l 463 -231 l 463 -116 l 579 -116 l 579 -116 l 579 0 l 347 0 l 0 0 l 0 463 z "},"ę":{"ha":694,"x_min":0,"x_max":579,"o":"m 116 694 l 116 810 l 347 810 l 463 810 l 463 694 l 579 694 l 579 463 l 579 347 l 347 347 l 116 347 l 116 231 l 116 116 l 347 116 l 463 116 l 463 231 l 579 231 l 579 116 l 579 116 l 463 116 l 463 0 l 463 -116 l 347 -116 l 347 -231 l 347 -231 l 463 -231 l 463 -347 l 347 -347 l 347 -347 l 347 -231 l 231 -231 l 231 -116 l 347 -116 l 347 -116 l 347 0 l 231 0 l 116 0 l 116 116 l 0 116 l 0 347 l 0 694 l 116 694 l 116 694 m 463 579 l 463 694 l 347 694 l 116 694 l 116 579 l 116 463 l 347 463 l 463 463 l 463 579 z "},"Ě":{"ha":810,"x_min":0,"x_max":694,"o":"m 0 463 l 0 1042 l 347 1042 l 694 1042 l 694 926 l 347 926 l 116 926 l 116 694 l 116 579 l 347 579 l 579 579 l 579 463 l 347 463 l 116 463 l 116 231 l 116 116 l 347 116 l 694 116 l 694 0 l 347 0 l 0 0 l 0 463 m 231 1273 l 231 1389 l 347 1389 l 347 1273 l 347 1273 l 463 1273 l 463 1389 l 579 1389 l 579 1273 l 579 1273 l 463 1273 l 463 1157 l 347 1157 l 347 1157 l 347 1273 l 231 1273 z "},"ě":{"ha":694,"x_min":0,"x_max":579,"o":"m 116 694 l 116 810 l 347 810 l 463 810 l 463 694 l 579 694 l 579 463 l 579 347 l 347 347 l 116 347 l 116 231 l 116 116 l 347 116 l 463 116 l 463 231 l 579 231 l 579 116 l 579 116 l 463 116 l 463 0 l 347 0 l 116 0 l 116 116 l 0 116 l 0 347 l 0 694 l 116 694 l 116 694 m 463 579 l 463 694 l 347 694 l 116 694 l 116 579 l 116 463 l 347 463 l 463 463 l 463 579 m 116 1042 l 116 1157 l 231 1157 l 231 1042 l 347 1042 l 347 1042 l 347 1157 l 463 1157 l 463 1042 l 347 1042 l 347 926 l 347 926 l 231 926 l 231 1042 l 116 1042 l 116 1042 z "},"Ĝ":{"ha":926,"x_min":0,"x_max":810,"o":"m 231 926 l 231 1042 l 463 1042 l 694 1042 l 694 926 l 810 926 l 810 810 l 810 810 l 694 810 l 694 926 l 463 926 l 231 926 l 231 810 l 116 810 l 116 463 l 116 231 l 231 231 l 231 116 l 463 116 l 694 116 l 694 231 l 694 463 l 579 463 l 463 463 l 463 579 l 579 579 l 810 579 l 810 347 l 810 116 l 694 116 l 694 0 l 463 0 l 231 0 l 231 116 l 116 116 l 116 116 l 116 231 l 0 231 l 0 463 l 0 810 l 116 810 l 116 810 l 116 926 l 231 926 m 347 1273 l 347 1389 l 463 1389 l 463 1273 l 579 1273 l 579 1157 l 579 1157 l 463 1157 l 463 1273 l 347 1273 l 347 1157 l 347 1157 l 231 1157 l 231 1273 l 347 1273 l 347 1273 z "},"ĝ":{"ha":694,"x_min":0,"x_max":579,"o":"m 116 694 l 116 810 l 231 810 l 347 810 l 347 694 l 347 694 l 463 694 l 463 810 l 579 810 l 579 347 l 579 -116 l 463 -116 l 463 -231 l 231 -231 l 0 -231 l 0 -116 l 231 -116 l 463 -116 l 463 0 l 463 116 l 347 116 l 347 0 l 231 0 l 116 0 l 116 116 l 0 116 l 0 347 l 0 694 l 116 694 l 116 694 m 347 579 l 347 694 l 231 694 l 116 694 l 116 347 l 116 116 l 231 116 l 347 116 l 347 231 l 463 231 l 463 347 l 463 579 l 347 579 l 347 579 m 231 1042 l 231 1157 l 347 1157 l 347 1042 l 347 1042 l 463 1042 l 463 926 l 347 926 l 347 926 l 347 1042 l 231 1042 l 231 926 l 116 926 l 116 926 l 116 1042 l 231 1042 z "},"Ğ":{"ha":926,"x_min":0,"x_max":810,"o":"m 231 926 l 231 1042 l 463 1042 l 694 1042 l 694 926 l 810 926 l 810 810 l 810 810 l 694 810 l 694 926 l 463 926 l 231 926 l 231 810 l 116 810 l 116 463 l 116 231 l 231 231 l 231 116 l 463 116 l 694 116 l 694 231 l 694 463 l 579 463 l 463 463 l 463 579 l 579 579 l 810 579 l 810 347 l 810 116 l 694 116 l 694 0 l 463 0 l 231 0 l 231 116 l 116 116 l 116 116 l 116 231 l 0 231 l 0 463 l 0 810 l 116 810 l 116 810 l 116 926 l 231 926 m 231 1273 l 231 1389 l 347 1389 l 347 1273 l 463 1273 l 579 1273 l 579 1389 l 694 1389 l 694 1273 l 579 1273 l 579 1157 l 463 1157 l 347 1157 l 347 1273 l 231 1273 z "},"ğ":{"ha":694,"x_min":0,"x_max":579,"o":"m 116 694 l 116 810 l 231 810 l 347 810 l 347 694 l 347 694 l 463 694 l 463 810 l 579 810 l 579 347 l 579 -116 l 463 -116 l 463 -231 l 231 -231 l 0 -231 l 0 -116 l 231 -116 l 463 -116 l 463 0 l 463 116 l 347 116 l 347 0 l 231 0 l 116 0 l 116 116 l 0 116 l 0 347 l 0 694 l 116 694 l 116 694 m 347 579 l 347 694 l 231 694 l 116 694 l 116 347 l 116 116 l 231 116 l 347 116 l 347 231 l 463 231 l 463 347 l 463 579 l 347 579 l 347 579 m 116 1042 l 116 1157 l 231 1157 l 231 1042 l 347 1042 l 463 1042 l 463 1157 l 579 1157 l 579 1042 l 579 1042 l 463 1042 l 463 926 l 347 926 l 231 926 l 231 1042 l 116 1042 l 116 1042 z "},"Ġ":{"ha":926,"x_min":0,"x_max":810,"o":"m 231 926 l 231 1042 l 463 1042 l 694 1042 l 694 926 l 810 926 l 810 810 l 810 810 l 694 810 l 694 926 l 463 926 l 231 926 l 231 810 l 116 810 l 116 463 l 116 231 l 231 231 l 231 116 l 463 116 l 694 116 l 694 231 l 694 463 l 579 463 l 463 463 l 463 579 l 579 579 l 810 579 l 810 347 l 810 116 l 694 116 l 694 0 l 463 0 l 231 0 l 231 116 l 116 116 l 116 116 l 116 231 l 0 231 l 0 463 l 0 810 l 116 810 l 116 810 l 116 926 l 231 926 m 347 1157 l 347 1273 l 463 1273 l 463 1157 l 347 1157 l 347 1157 z "},"ġ":{"ha":694,"x_min":0,"x_max":579,"o":"m 116 694 l 116 810 l 231 810 l 347 810 l 347 694 l 347 694 l 463 694 l 463 810 l 579 810 l 579 347 l 579 -116 l 463 -116 l 463 -231 l 231 -231 l 0 -231 l 0 -116 l 231 -116 l 463 -116 l 463 0 l 463 116 l 347 116 l 347 0 l 231 0 l 116 0 l 116 116 l 0 116 l 0 347 l 0 694 l 116 694 l 116 694 m 347 579 l 347 694 l 231 694 l 116 694 l 116 347 l 116 116 l 231 116 l 347 116 l 347 231 l 463 231 l 463 347 l 463 579 l 347 579 l 347 579 m 231 926 l 231 1042 l 347 1042 l 347 926 l 347 926 l 231 926 z "},"Ģ":{"ha":926,"x_min":0,"x_max":810,"o":"m 463 -231 l 463 -116 l 579 -116 l 579 -231 l 579 -231 l 463 -231 l 463 -347 l 347 -347 l 347 -347 l 347 -231 l 463 -231 m 231 926 l 231 1042 l 463 1042 l 694 1042 l 694 926 l 810 926 l 810 810 l 810 810 l 694 810 l 694 926 l 463 926 l 231 926 l 231 810 l 116 810 l 116 463 l 116 231 l 231 231 l 231 116 l 463 116 l 694 116 l 694 231 l 694 463 l 579 463 l 463 463 l 463 579 l 579 579 l 810 579 l 810 347 l 810 116 l 694 116 l 694 0 l 463 0 l 231 0 l 231 116 l 116 116 l 116 116 l 116 231 l 0 231 l 0 463 l 0 810 l 116 810 l 116 810 l 116 926 l 231 926 z "},"ģ":{"ha":694,"x_min":0,"x_max":579,"o":"m 116 694 l 116 810 l 231 810 l 347 810 l 347 694 l 347 694 l 463 694 l 463 810 l 579 810 l 579 347 l 579 -116 l 463 -116 l 463 -231 l 231 -231 l 0 -231 l 0 -116 l 231 -116 l 463 -116 l 463 0 l 463 116 l 347 116 l 347 0 l 231 0 l 116 0 l 116 116 l 0 116 l 0 347 l 0 694 l 116 694 l 116 694 m 347 579 l 347 694 l 231 694 l 116 694 l 116 347 l 116 116 l 231 116 l 347 116 l 347 231 l 463 231 l 463 347 l 463 579 l 347 579 l 347 579 m 231 1042 l 231 1157 l 347 1157 l 347 1042 l 347 926 l 231 926 l 231 1042 z "},"Ĥ":{"ha":926,"x_min":0,"x_max":810,"o":"m 0 463 l 0 1042 l 116 1042 l 116 810 l 116 579 l 347 579 l 694 579 l 694 810 l 694 1042 l 810 1042 l 810 463 l 810 0 l 694 0 l 694 231 l 694 463 l 347 463 l 116 463 l 116 231 l 116 0 l 0 0 l 0 463 m 347 1273 l 347 1389 l 463 1389 l 463 1273 l 579 1273 l 579 1157 l 579 1157 l 463 1157 l 463 1273 l 347 1273 l 347 1157 l 347 1157 l 231 1157 l 231 1273 l 347 1273 l 347 1273 z "},"ĥ":{"ha":694,"x_min":0,"x_max":579,"o":"m 0 463 l 0 1042 l 116 1042 l 116 810 l 116 694 l 231 694 l 231 810 l 347 810 l 463 810 l 463 694 l 579 694 l 579 347 l 579 0 l 463 0 l 463 347 l 463 694 l 347 694 l 231 694 l 231 579 l 116 579 l 116 231 l 116 0 l 0 0 l 0 463 m 231 1273 l 231 1389 l 347 1389 l 347 1273 l 347 1273 l 463 1273 l 463 1157 l 347 1157 l 347 1157 l 347 1273 l 231 1273 l 231 1157 l 116 1157 l 116 1157 l 116 1273 l 231 1273 z "},"Ħ":{"ha":1157,"x_min":0,"x_max":1042,"o":"m 116 926 l 116 1042 l 231 1042 l 231 926 l 231 810 l 463 810 l 810 810 l 810 926 l 810 1042 l 926 1042 l 926 926 l 926 810 l 1042 810 l 1042 694 l 926 694 l 926 347 l 926 0 l 810 0 l 810 231 l 810 463 l 463 463 l 231 463 l 231 231 l 231 0 l 116 0 l 116 347 l 116 694 l 0 694 l 0 694 l 0 810 l 116 810 l 116 926 m 810 579 l 810 694 l 463 694 l 231 694 l 231 579 l 463 579 l 810 579 z "},"ħ":{"ha":810,"x_min":0,"x_max":694,"o":"m 116 926 l 116 1042 l 231 1042 l 231 926 l 347 926 l 463 926 l 463 810 l 347 810 l 231 810 l 231 694 l 231 579 l 347 579 l 347 694 l 463 694 l 579 694 l 579 579 l 694 579 l 694 231 l 694 0 l 579 0 l 579 231 l 579 579 l 463 579 l 347 579 l 347 463 l 231 463 l 231 231 l 231 0 l 116 0 l 116 347 l 116 810 l 0 810 l 0 810 l 0 926 l 116 926 z "},"Ĩ":{"ha":579,"x_min":0,"x_max":463,"o":"m 116 463 l 116 1042 l 231 1042 l 231 463 l 231 0 l 116 0 l 116 463 m 116 1273 l 116 1389 l 231 1389 l 231 1273 l 231 1273 l 347 1273 l 347 1389 l 463 1389 l 463 1273 l 463 1273 l 347 1273 l 347 1157 l 231 1157 l 231 1157 l 231 1273 l 116 1273 l 116 1157 l 0 1157 l 0 1157 l 0 1273 l 116 1273 z "},"ĩ":{"ha":579,"x_min":0,"x_max":463,"o":"m 116 347 l 116 810 l 231 810 l 231 347 l 231 0 l 116 0 l 116 347 m 116 1042 l 116 1157 l 231 1157 l 231 1042 l 231 1042 l 347 1042 l 347 1157 l 463 1157 l 463 1042 l 463 1042 l 347 1042 l 347 926 l 231 926 l 231 926 l 231 1042 l 116 1042 l 116 926 l 0 926 l 0 926 l 0 1042 l 116 1042 z "},"Ī":{"ha":463,"x_min":0,"x_max":347,"o":"m 116 463 l 116 1042 l 231 1042 l 231 463 l 231 0 l 116 0 l 116 463 m 0 1157 l 0 1273 l 231 1273 l 347 1273 l 347 1157 l 231 1157 l 0 1157 z "},"ī":{"ha":463,"x_min":0,"x_max":347,"o":"m 116 347 l 116 810 l 231 810 l 231 347 l 231 0 l 116 0 l 116 347 m 0 926 l 0 1042 l 231 1042 l 347 1042 l 347 926 l 231 926 l 0 926 z "},"Ĭ":{"ha":579,"x_min":0,"x_max":463,"o":"m 116 463 l 116 1042 l 231 1042 l 231 463 l 231 0 l 116 0 l 116 463 m 0 1273 l 0 1389 l 116 1389 l 116 1273 l 231 1273 l 347 1273 l 347 1389 l 463 1389 l 463 1273 l 463 1273 l 347 1273 l 347 1157 l 231 1157 l 116 1157 l 116 1273 l 0 1273 l 0 1273 z "},"ĭ":{"ha":579,"x_min":0,"x_max":463,"o":"m 116 347 l 116 810 l 231 810 l 231 347 l 231 0 l 116 0 l 116 347 m 0 1042 l 0 1157 l 116 1157 l 116 1042 l 231 1042 l 347 1042 l 347 1157 l 463 1157 l 463 1042 l 463 1042 l 347 1042 l 347 926 l 231 926 l 116 926 l 116 1042 l 0 1042 l 0 1042 z "},"Į":{"ha":347,"x_min":0,"x_max":231,"o":"m 116 463 l 116 1042 l 231 1042 l 231 463 l 231 -116 l 116 -116 l 116 -231 l 231 -231 l 231 -347 l 231 -347 l 116 -347 l 116 -231 l 0 -231 l 0 -231 l 0 -116 l 116 -116 l 116 463 z "},"į":{"ha":347,"x_min":0,"x_max":231,"o":"m 116 347 l 116 810 l 231 810 l 231 347 l 231 -116 l 116 -116 l 116 -231 l 231 -231 l 231 -347 l 231 -347 l 116 -347 l 116 -231 l 0 -231 l 0 -231 l 0 -116 l 116 -116 l 116 347 m 116 926 l 116 1042 l 231 1042 l 231 926 l 231 926 l 116 926 z "},"İ":{"ha":231,"x_min":0,"x_max":116,"o":"m 0 463 l 0 1042 l 116 1042 l 116 463 l 116 0 l 0 0 l 0 463 m 0 1157 l 0 1273 l 116 1273 l 116 1157 l 116 1157 l 0 1157 z "},"ı":{"ha":231,"x_min":0,"x_max":116,"o":"m 0 347 l 0 810 l 116 810 l 116 347 l 116 0 l 0 0 l 0 347 z "},"Ĳ":{"ha":926,"x_min":0,"x_max":810,"o":"m 463 926 l 463 1042 l 579 1042 l 810 1042 l 810 579 l 810 116 l 694 116 l 694 0 l 579 0 l 347 0 l 347 116 l 231 116 l 231 231 l 347 231 l 347 116 l 579 116 l 694 116 l 694 463 l 694 926 l 579 926 l 463 926 m 0 463 l 0 1042 l 116 1042 l 116 463 l 116 0 l 0 0 l 0 463 z "},"ĳ":{"ha":463,"x_min":0,"x_max":347,"o":"m 231 347 l 231 810 l 347 810 l 347 347 l 347 -116 l 231 -116 l 231 -231 l 116 -231 l 116 -231 l 116 -116 l 231 -116 l 231 347 m 0 347 l 0 810 l 116 810 l 116 347 l 116 0 l 0 0 l 0 347 m 231 926 l 231 1042 l 347 1042 l 347 926 l 347 926 l 231 926 m 0 926 l 0 1042 l 116 1042 l 116 926 l 116 926 l 0 926 z "},"Ĵ":{"ha":694,"x_min":0,"x_max":579,"o":"m 231 926 l 231 1042 l 463 1042 l 579 1042 l 579 579 l 579 116 l 463 116 l 463 0 l 231 0 l 116 0 l 116 116 l 0 116 l 0 116 l 0 231 l 116 231 l 116 116 l 231 116 l 463 116 l 463 463 l 463 926 l 347 926 l 231 926 m 347 1273 l 347 1389 l 463 1389 l 463 1273 l 463 1273 l 579 1273 l 579 1157 l 463 1157 l 463 1157 l 463 1273 l 347 1273 l 347 1157 l 231 1157 l 231 1157 l 231 1273 l 347 1273 z "},"ĵ":{"ha":463,"x_min":0,"x_max":347,"o":"m 116 347 l 116 810 l 231 810 l 231 347 l 231 -116 l 116 -116 l 116 -231 l 0 -231 l 0 -231 l 0 -116 l 116 -116 l 116 347 m 116 1042 l 116 1157 l 231 1157 l 231 1042 l 231 1042 l 347 1042 l 347 926 l 231 926 l 231 926 l 231 1042 l 116 1042 l 116 926 l 0 926 l 0 926 l 0 1042 l 116 1042 z "},"Ķ":{"ha":926,"x_min":0,"x_max":810,"o":"m 347 -231 l 347 -116 l 463 -116 l 463 -231 l 347 -231 l 347 -347 l 347 -347 l 231 -347 l 231 -231 l 347 -231 l 347 -231 m 0 463 l 0 1042 l 116 1042 l 116 810 l 116 579 l 231 579 l 231 694 l 347 694 l 347 694 l 347 810 l 463 810 l 463 926 l 579 926 l 579 926 l 579 1042 l 694 1042 l 694 926 l 579 926 l 579 810 l 579 810 l 463 810 l 463 694 l 347 694 l 347 579 l 347 463 l 463 463 l 463 347 l 579 347 l 579 231 l 579 231 l 694 231 l 694 116 l 810 116 l 810 0 l 810 0 l 694 0 l 694 116 l 579 116 l 579 116 l 579 231 l 463 231 l 463 347 l 347 347 l 347 347 l 347 463 l 231 463 l 116 463 l 116 231 l 116 0 l 0 0 l 0 463 z "},"ķ":{"ha":694,"x_min":0,"x_max":579,"o":"m 231 -231 l 231 -116 l 347 -116 l 347 -231 l 347 -231 l 231 -231 l 231 -347 l 116 -347 l 116 -347 l 116 -231 l 231 -231 m 0 463 l 0 1042 l 116 1042 l 116 694 l 116 463 l 231 463 l 231 579 l 347 579 l 347 579 l 347 694 l 463 694 l 463 810 l 579 810 l 579 694 l 579 694 l 463 694 l 463 579 l 347 579 l 347 463 l 347 463 l 231 463 l 231 347 l 347 347 l 347 231 l 347 231 l 463 231 l 463 116 l 579 116 l 579 0 l 579 0 l 463 0 l 463 116 l 347 116 l 347 116 l 347 231 l 231 231 l 231 347 l 116 347 l 116 116 l 116 0 l 0 0 l 0 463 z "},"ĸ":{"ha":694,"x_min":0,"x_max":579,"o":"m 0 347 l 0 810 l 116 810 l 116 579 l 116 463 l 231 463 l 231 579 l 347 579 l 347 579 l 347 694 l 463 694 l 463 810 l 579 810 l 579 694 l 579 694 l 463 694 l 463 579 l 347 579 l 347 463 l 347 463 l 231 463 l 231 347 l 347 347 l 347 231 l 347 231 l 463 231 l 463 116 l 579 116 l 579 0 l 579 0 l 463 0 l 463 116 l 347 116 l 347 116 l 347 231 l 231 231 l 231 347 l 116 347 l 116 116 l 116 0 l 0 0 l 0 347 z "},"Ĺ":{"ha":694,"x_min":0,"x_max":579,"o":"m 0 463 l 0 1042 l 116 1042 l 116 579 l 116 116 l 347 116 l 579 116 l 579 0 l 347 0 l 0 0 l 0 463 m 231 1273 l 231 1389 l 347 1389 l 347 1273 l 347 1273 l 231 1273 l 231 1157 l 116 1157 l 116 1157 l 116 1273 l 231 1273 z "},"ĺ":{"ha":347,"x_min":0,"x_max":231,"o":"m 0 463 l 0 1042 l 116 1042 l 116 463 l 116 0 l 0 0 l 0 463 m 116 1273 l 116 1389 l 231 1389 l 231 1273 l 116 1273 l 116 1157 l 116 1157 l 0 1157 l 0 1273 l 116 1273 l 116 1273 z "},"Ļ":{"ha":694,"x_min":0,"x_max":579,"o":"m 231 -231 l 231 -116 l 347 -116 l 347 -231 l 347 -231 l 231 -231 l 231 -347 l 116 -347 l 116 -347 l 116 -231 l 231 -231 m 0 463 l 0 1042 l 116 1042 l 116 579 l 116 116 l 347 116 l 579 116 l 579 0 l 347 0 l 0 0 l 0 463 z "},"ļ":{"ha":347,"x_min":0,"x_max":231,"o":"m 116 -231 l 116 -116 l 231 -116 l 231 -231 l 231 -231 l 116 -231 l 116 -347 l 0 -347 l 0 -347 l 0 -231 l 116 -231 m 116 463 l 116 1042 l 231 1042 l 231 463 l 231 0 l 116 0 l 116 463 z "},"Ľ":{"ha":694,"x_min":0,"x_max":579,"o":"m 347 926 l 347 1042 l 463 1042 l 463 926 l 463 810 l 347 810 l 347 926 m 0 463 l 0 1042 l 116 1042 l 116 579 l 116 116 l 347 116 l 579 116 l 579 0 l 347 0 l 0 0 l 0 463 z "},"ľ":{"ha":463,"x_min":0,"x_max":347,"o":"m 231 926 l 231 1042 l 347 1042 l 347 926 l 347 810 l 231 810 l 231 926 m 0 463 l 0 1042 l 116 1042 l 116 463 l 116 0 l 0 0 l 0 463 z "},"Ŀ":{"ha":694,"x_min":0,"x_max":579,"o":"m 347 463 l 347 579 l 463 579 l 463 463 l 347 463 l 347 463 m 0 463 l 0 1042 l 116 1042 l 116 579 l 116 116 l 347 116 l 579 116 l 579 0 l 347 0 l 0 0 l 0 463 z "},"ŀ":{"ha":463,"x_min":0,"x_max":347,"o":"m 231 463 l 231 579 l 347 579 l 347 463 l 347 463 l 231 463 m 0 463 l 0 1042 l 116 1042 l 116 463 l 116 0 l 0 0 l 0 463 z "},"Ł":{"ha":810,"x_min":0,"x_max":694,"o":"m 116 694 l 116 1042 l 231 1042 l 231 810 l 231 579 l 347 579 l 347 694 l 463 694 l 463 579 l 463 579 l 347 579 l 347 463 l 231 463 l 231 231 l 231 116 l 463 116 l 694 116 l 694 0 l 463 0 l 116 0 l 116 116 l 116 347 l 0 347 l 0 347 l 0 463 l 116 463 l 116 694 z "},"ł":{"ha":463,"x_min":0,"x_max":347,"o":"m 116 694 l 116 1042 l 231 1042 l 231 810 l 231 579 l 347 579 l 347 463 l 231 463 l 231 231 l 231 0 l 116 0 l 116 116 l 116 347 l 0 347 l 0 347 l 0 463 l 116 463 l 116 694 z "},"Ń":{"ha":926,"x_min":0,"x_max":810,"o":"m 0 463 l 0 1042 l 116 1042 l 116 926 l 116 926 l 231 926 l 231 810 l 347 810 l 347 694 l 347 579 l 463 579 l 463 463 l 579 463 l 579 347 l 579 231 l 694 231 l 694 579 l 694 1042 l 810 1042 l 810 463 l 810 0 l 694 0 l 694 116 l 579 116 l 579 116 l 579 231 l 463 231 l 463 347 l 463 463 l 347 463 l 347 463 l 347 579 l 231 579 l 231 694 l 231 810 l 116 810 l 116 347 l 116 0 l 0 0 l 0 463 m 463 1273 l 463 1389 l 579 1389 l 579 1273 l 579 1273 l 463 1273 l 463 1157 l 347 1157 l 347 1157 l 347 1273 l 463 1273 z "},"ń":{"ha":694,"x_min":0,"x_max":579,"o":"m 0 347 l 0 810 l 116 810 l 116 694 l 116 694 l 231 694 l 231 810 l 347 810 l 463 810 l 463 694 l 579 694 l 579 347 l 579 0 l 463 0 l 463 347 l 463 694 l 347 694 l 231 694 l 231 579 l 116 579 l 116 231 l 116 0 l 0 0 l 0 347 m 347 1042 l 347 1157 l 463 1157 l 463 1042 l 347 1042 l 347 926 l 347 926 l 231 926 l 231 1042 l 347 1042 l 347 1042 z "},"Ņ":{"ha":926,"x_min":0,"x_max":810,"o":"m 347 -231 l 347 -116 l 463 -116 l 463 -231 l 347 -231 l 347 -347 l 347 -347 l 231 -347 l 231 -231 l 347 -231 l 347 -231 m 0 463 l 0 1042 l 116 1042 l 116 926 l 116 926 l 231 926 l 231 810 l 347 810 l 347 694 l 347 579 l 463 579 l 463 463 l 579 463 l 579 347 l 579 231 l 694 231 l 694 579 l 694 1042 l 810 1042 l 810 463 l 810 0 l 694 0 l 694 116 l 579 116 l 579 116 l 579 231 l 463 231 l 463 347 l 463 463 l 347 463 l 347 463 l 347 579 l 231 579 l 231 694 l 231 810 l 116 810 l 116 347 l 116 0 l 0 0 l 0 463 z "},"ņ":{"ha":694,"x_min":0,"x_max":579,"o":"m 231 -231 l 231 -116 l 347 -116 l 347 -231 l 347 -231 l 231 -231 l 231 -347 l 116 -347 l 116 -347 l 116 -231 l 231 -231 m 0 347 l 0 810 l 116 810 l 116 694 l 116 694 l 231 694 l 231 810 l 347 810 l 463 810 l 463 694 l 579 694 l 579 347 l 579 0 l 463 0 l 463 347 l 463 694 l 347 694 l 231 694 l 231 579 l 116 579 l 116 231 l 116 0 l 0 0 l 0 347 z "},"Ň":{"ha":926,"x_min":0,"x_max":810,"o":"m 0 463 l 0 1042 l 116 1042 l 116 926 l 116 926 l 231 926 l 231 810 l 347 810 l 347 694 l 347 579 l 463 579 l 463 463 l 579 463 l 579 347 l 579 231 l 694 231 l 694 579 l 694 1042 l 810 1042 l 810 463 l 810 0 l 694 0 l 694 116 l 579 116 l 579 116 l 579 231 l 463 231 l 463 347 l 463 463 l 347 463 l 347 463 l 347 579 l 231 579 l 231 694 l 231 810 l 116 810 l 116 347 l 116 0 l 0 0 l 0 463 m 231 1273 l 231 1389 l 347 1389 l 347 1273 l 347 1273 l 463 1273 l 463 1389 l 579 1389 l 579 1273 l 579 1273 l 463 1273 l 463 1157 l 347 1157 l 347 1157 l 347 1273 l 231 1273 z "},"ň":{"ha":694,"x_min":0,"x_max":579,"o":"m 0 347 l 0 810 l 116 810 l 116 694 l 116 694 l 231 694 l 231 810 l 347 810 l 463 810 l 463 694 l 579 694 l 579 347 l 579 0 l 463 0 l 463 347 l 463 694 l 347 694 l 231 694 l 231 579 l 116 579 l 116 231 l 116 0 l 0 0 l 0 347 m 116 1042 l 116 1157 l 231 1157 l 231 1042 l 347 1042 l 347 1042 l 347 1157 l 463 1157 l 463 1042 l 347 1042 l 347 926 l 347 926 l 231 926 l 231 1042 l 116 1042 l 116 1042 z "},"ŉ":{"ha":1042,"x_min":0,"x_max":926,"o":"m 347 347 l 347 810 l 463 810 l 463 694 l 579 694 l 579 694 l 579 810 l 694 810 l 810 810 l 810 694 l 810 694 l 926 694 l 926 347 l 926 0 l 810 0 l 810 347 l 810 694 l 694 694 l 579 694 l 579 579 l 579 579 l 463 579 l 463 231 l 463 0 l 347 0 l 347 347 m 116 926 l 116 1042 l 231 1042 l 231 926 l 231 810 l 116 810 l 116 694 l 116 694 l 0 694 l 0 810 l 116 810 l 116 926 z "},"Ŋ":{"ha":926,"x_min":0,"x_max":810,"o":"m 0 463 l 0 1042 l 116 1042 l 116 926 l 116 926 l 231 926 l 231 1042 l 347 1042 l 579 1042 l 579 926 l 579 926 l 694 926 l 694 810 l 810 810 l 810 463 l 810 116 l 694 116 l 694 0 l 579 0 l 347 0 l 347 116 l 347 231 l 463 231 l 463 116 l 579 116 l 694 116 l 694 463 l 694 810 l 579 810 l 579 810 l 579 926 l 347 926 l 231 926 l 231 810 l 116 810 l 116 347 l 116 0 l 0 0 l 0 463 z "},"ŋ":{"ha":694,"x_min":0,"x_max":579,"o":"m 0 347 l 0 810 l 116 810 l 116 694 l 116 694 l 231 694 l 231 810 l 347 810 l 463 810 l 463 694 l 579 694 l 579 231 l 579 -116 l 463 -116 l 463 -231 l 347 -231 l 347 -231 l 347 -116 l 463 -116 l 463 231 l 463 694 l 347 694 l 231 694 l 231 579 l 116 579 l 116 231 l 116 0 l 0 0 l 0 347 z "},"Ō":{"ha":926,"x_min":0,"x_max":810,"o":"m 231 926 l 231 1042 l 347 1042 l 579 1042 l 579 926 l 579 926 l 694 926 l 694 810 l 810 810 l 810 463 l 810 231 l 694 231 l 694 116 l 579 116 l 579 0 l 347 0 l 231 0 l 231 116 l 116 116 l 116 116 l 116 231 l 0 231 l 0 463 l 0 810 l 116 810 l 116 810 l 116 926 l 231 926 m 579 810 l 579 926 l 347 926 l 231 926 l 231 810 l 116 810 l 116 463 l 116 231 l 231 231 l 231 116 l 347 116 l 579 116 l 579 231 l 694 231 l 694 463 l 694 810 l 579 810 l 579 810 m 231 1157 l 231 1273 l 347 1273 l 579 1273 l 579 1157 l 347 1157 l 231 1157 z "},"ō":{"ha":694,"x_min":0,"x_max":579,"o":"m 116 694 l 116 810 l 347 810 l 463 810 l 463 694 l 579 694 l 579 347 l 579 116 l 463 116 l 463 0 l 347 0 l 116 0 l 116 116 l 0 116 l 0 347 l 0 694 l 116 694 l 116 694 m 463 347 l 463 694 l 347 694 l 116 694 l 116 347 l 116 116 l 347 116 l 463 116 l 463 347 m 116 926 l 116 1042 l 347 1042 l 463 1042 l 463 926 l 347 926 l 116 926 z "},"Ŏ":{"ha":926,"x_min":0,"x_max":810,"o":"m 231 926 l 231 1042 l 347 1042 l 579 1042 l 579 926 l 579 926 l 694 926 l 694 810 l 810 810 l 810 463 l 810 231 l 694 231 l 694 116 l 579 116 l 579 0 l 347 0 l 231 0 l 231 116 l 116 116 l 116 116 l 116 231 l 0 231 l 0 463 l 0 810 l 116 810 l 116 810 l 116 926 l 231 926 m 579 810 l 579 926 l 347 926 l 231 926 l 231 810 l 116 810 l 116 463 l 116 231 l 231 231 l 231 116 l 347 116 l 579 116 l 579 231 l 694 231 l 694 463 l 694 810 l 579 810 l 579 810 m 231 1273 l 231 1389 l 347 1389 l 347 1273 l 463 1273 l 579 1273 l 579 1389 l 694 1389 l 694 1273 l 579 1273 l 579 1157 l 463 1157 l 347 1157 l 347 1273 l 231 1273 z "},"ŏ":{"ha":694,"x_min":0,"x_max":579,"o":"m 116 694 l 116 810 l 347 810 l 463 810 l 463 694 l 579 694 l 579 347 l 579 116 l 463 116 l 463 0 l 347 0 l 116 0 l 116 116 l 0 116 l 0 347 l 0 694 l 116 694 l 116 694 m 463 347 l 463 694 l 347 694 l 116 694 l 116 347 l 116 116 l 347 116 l 463 116 l 463 347 m 116 1042 l 116 1157 l 231 1157 l 231 1042 l 347 1042 l 463 1042 l 463 1157 l 579 1157 l 579 1042 l 579 1042 l 463 1042 l 463 926 l 347 926 l 231 926 l 231 1042 l 116 1042 l 116 1042 z "},"Ő":{"ha":926,"x_min":0,"x_max":810,"o":"m 231 926 l 231 1042 l 347 1042 l 579 1042 l 579 926 l 579 926 l 694 926 l 694 810 l 810 810 l 810 463 l 810 231 l 694 231 l 694 116 l 579 116 l 579 0 l 347 0 l 231 0 l 231 116 l 116 116 l 116 116 l 116 231 l 0 231 l 0 463 l 0 810 l 116 810 l 116 810 l 116 926 l 231 926 m 579 810 l 579 926 l 347 926 l 231 926 l 231 810 l 116 810 l 116 463 l 116 231 l 231 231 l 231 116 l 347 116 l 579 116 l 579 231 l 694 231 l 694 463 l 694 810 l 579 810 l 579 810 m 347 1273 l 347 1389 l 463 1389 l 463 1273 l 579 1273 l 579 1273 l 579 1389 l 694 1389 l 694 1273 l 579 1273 l 579 1157 l 579 1157 l 463 1157 l 463 1273 l 347 1273 l 347 1157 l 347 1157 l 231 1157 l 231 1273 l 347 1273 l 347 1273 z "},"ő":{"ha":694,"x_min":0,"x_max":579,"o":"m 116 694 l 116 810 l 347 810 l 463 810 l 463 694 l 579 694 l 579 347 l 579 116 l 463 116 l 463 0 l 347 0 l 116 0 l 116 116 l 0 116 l 0 347 l 0 694 l 116 694 l 116 694 m 463 347 l 463 694 l 347 694 l 116 694 l 116 347 l 116 116 l 347 116 l 463 116 l 463 347 m 231 1042 l 231 1157 l 347 1157 l 347 1042 l 347 1042 l 463 1042 l 463 1157 l 579 1157 l 579 1042 l 579 1042 l 463 1042 l 463 926 l 347 926 l 347 926 l 347 1042 l 231 1042 l 231 926 l 116 926 l 116 926 l 116 1042 l 231 1042 z "},"Œ":{"ha":1273,"x_min":0,"x_max":1157,"o":"m 231 926 l 231 1042 l 694 1042 l 1157 1042 l 1157 926 l 926 926 l 694 926 l 694 694 l 694 579 l 810 579 l 1042 579 l 1042 463 l 810 463 l 694 463 l 694 231 l 694 116 l 926 116 l 1157 116 l 1157 0 l 694 0 l 231 0 l 231 116 l 116 116 l 116 116 l 116 231 l 0 231 l 0 463 l 0 810 l 116 810 l 116 810 l 116 926 l 231 926 m 579 463 l 579 926 l 347 926 l 231 926 l 231 810 l 116 810 l 116 463 l 116 231 l 231 231 l 231 116 l 347 116 l 579 116 l 579 463 z "},"œ":{"ha":1157,"x_min":0,"x_max":1042,"o":"m 116 694 l 116 810 l 347 810 l 463 810 l 463 694 l 579 694 l 579 694 l 579 810 l 810 810 l 926 810 l 926 694 l 1042 694 l 1042 463 l 1042 347 l 810 347 l 579 347 l 579 231 l 579 116 l 810 116 l 926 116 l 926 231 l 1042 231 l 1042 116 l 1042 116 l 926 116 l 926 0 l 810 0 l 579 0 l 579 116 l 463 116 l 463 0 l 347 0 l 116 0 l 116 116 l 0 116 l 0 347 l 0 694 l 116 694 l 116 694 m 463 347 l 463 694 l 347 694 l 116 694 l 116 347 l 116 116 l 347 116 l 463 116 l 463 347 m 926 579 l 926 694 l 810 694 l 579 694 l 579 579 l 579 463 l 810 463 l 926 463 l 926 579 z "},"Ŕ":{"ha":926,"x_min":0,"x_max":810,"o":"m 0 463 l 0 1042 l 347 1042 l 694 1042 l 694 926 l 810 926 l 810 694 l 810 579 l 694 579 l 694 463 l 579 463 l 579 347 l 579 231 l 694 231 l 694 116 l 810 116 l 810 0 l 810 0 l 694 0 l 694 116 l 579 116 l 579 116 l 579 231 l 463 231 l 463 347 l 463 463 l 347 463 l 116 463 l 116 231 l 116 0 l 0 0 l 0 463 m 694 694 l 694 926 l 347 926 l 116 926 l 116 694 l 116 579 l 347 579 l 694 579 l 694 694 m 463 1273 l 463 1389 l 579 1389 l 579 1273 l 579 1273 l 463 1273 l 463 1157 l 347 1157 l 347 1157 l 347 1273 l 463 1273 z "},"ŕ":{"ha":463,"x_min":0,"x_max":347,"o":"m 0 347 l 0 810 l 116 810 l 347 810 l 347 694 l 231 694 l 116 694 l 116 347 l 116 0 l 0 0 l 0 347 m 231 1042 l 231 1157 l 347 1157 l 347 1042 l 347 1042 l 231 1042 l 231 926 l 116 926 l 116 926 l 116 1042 l 231 1042 z "},"Ŗ":{"ha":926,"x_min":0,"x_max":810,"o":"m 347 -231 l 347 -116 l 463 -116 l 463 -231 l 347 -231 l 347 -347 l 347 -347 l 231 -347 l 231 -231 l 347 -231 l 347 -231 m 0 463 l 0 1042 l 347 1042 l 694 1042 l 694 926 l 810 926 l 810 694 l 810 579 l 694 579 l 694 463 l 579 463 l 579 347 l 579 231 l 694 231 l 694 116 l 810 116 l 810 0 l 810 0 l 694 0 l 694 116 l 579 116 l 579 116 l 579 231 l 463 231 l 463 347 l 463 463 l 347 463 l 116 463 l 116 231 l 116 0 l 0 0 l 0 463 m 694 694 l 694 926 l 347 926 l 116 926 l 116 694 l 116 579 l 347 579 l 694 579 l 694 694 z "},"ŗ":{"ha":579,"x_min":0,"x_max":463,"o":"m 116 -231 l 116 -116 l 231 -116 l 231 -231 l 231 -231 l 116 -231 l 116 -347 l 0 -347 l 0 -347 l 0 -231 l 116 -231 m 116 347 l 116 810 l 231 810 l 463 810 l 463 694 l 347 694 l 231 694 l 231 347 l 231 0 l 116 0 l 116 347 z "},"Ř":{"ha":926,"x_min":0,"x_max":810,"o":"m 0 463 l 0 1042 l 347 1042 l 694 1042 l 694 926 l 810 926 l 810 694 l 810 579 l 694 579 l 694 463 l 579 463 l 579 347 l 579 231 l 694 231 l 694 116 l 810 116 l 810 0 l 810 0 l 694 0 l 694 116 l 579 116 l 579 116 l 579 231 l 463 231 l 463 347 l 463 463 l 347 463 l 116 463 l 116 231 l 116 0 l 0 0 l 0 463 m 694 694 l 694 926 l 347 926 l 116 926 l 116 694 l 116 579 l 347 579 l 694 579 l 694 694 m 231 1273 l 231 1389 l 347 1389 l 347 1273 l 347 1273 l 463 1273 l 463 1389 l 579 1389 l 579 1273 l 579 1273 l 463 1273 l 463 1157 l 347 1157 l 347 1157 l 347 1273 l 231 1273 z "},"ř":{"ha":463,"x_min":0,"x_max":347,"o":"m 0 347 l 0 810 l 116 810 l 347 810 l 347 694 l 231 694 l 116 694 l 116 347 l 116 0 l 0 0 l 0 347 m 0 1042 l 0 1157 l 116 1157 l 116 1042 l 116 1042 l 231 1042 l 231 1157 l 347 1157 l 347 1042 l 347 1042 l 231 1042 l 231 926 l 116 926 l 116 926 l 116 1042 l 0 1042 z "},"Ś":{"ha":810,"x_min":0,"x_max":694,"o":"m 116 926 l 116 1042 l 347 1042 l 579 1042 l 579 926 l 579 926 l 694 926 l 694 810 l 579 810 l 579 810 l 579 926 l 347 926 l 116 926 l 116 810 l 116 694 l 231 694 l 347 694 l 347 579 l 463 579 l 579 579 l 579 463 l 579 463 l 694 463 l 694 231 l 694 116 l 579 116 l 579 0 l 347 0 l 116 0 l 116 116 l 0 116 l 0 231 l 116 231 l 116 116 l 347 116 l 463 116 l 463 231 l 579 231 l 579 347 l 579 463 l 463 463 l 347 463 l 347 579 l 231 579 l 116 579 l 116 694 l 0 694 l 0 810 l 0 926 l 116 926 l 116 926 m 463 1273 l 463 1389 l 579 1389 l 579 1273 l 579 1273 l 463 1273 l 463 1157 l 347 1157 l 347 1157 l 347 1273 l 463 1273 z "},"ś":{"ha":694,"x_min":0,"x_max":579,"o":"m 116 694 l 116 810 l 347 810 l 463 810 l 463 694 l 579 694 l 579 579 l 579 579 l 463 579 l 463 694 l 347 694 l 116 694 l 116 579 l 116 463 l 347 463 l 463 463 l 463 347 l 579 347 l 579 231 l 579 116 l 463 116 l 463 0 l 347 0 l 116 0 l 116 116 l 0 116 l 0 231 l 116 231 l 116 116 l 347 116 l 463 116 l 463 231 l 463 347 l 347 347 l 116 347 l 116 463 l 0 463 l 0 579 l 0 694 l 116 694 l 116 694 m 347 1042 l 347 1157 l 463 1157 l 463 1042 l 347 1042 l 347 926 l 347 926 l 231 926 l 231 1042 l 347 1042 l 347 1042 z "},"Ŝ":{"ha":810,"x_min":0,"x_max":694,"o":"m 116 926 l 116 1042 l 347 1042 l 579 1042 l 579 926 l 579 926 l 694 926 l 694 810 l 579 810 l 579 810 l 579 926 l 347 926 l 116 926 l 116 810 l 116 694 l 231 694 l 347 694 l 347 579 l 463 579 l 579 579 l 579 463 l 579 463 l 694 463 l 694 231 l 694 116 l 579 116 l 579 0 l 347 0 l 116 0 l 116 116 l 0 116 l 0 231 l 116 231 l 116 116 l 347 116 l 463 116 l 463 231 l 579 231 l 579 347 l 579 463 l 463 463 l 347 463 l 347 579 l 231 579 l 116 579 l 116 694 l 0 694 l 0 810 l 0 926 l 116 926 l 116 926 m 347 1273 l 347 1389 l 463 1389 l 463 1273 l 579 1273 l 579 1157 l 579 1157 l 463 1157 l 463 1273 l 347 1273 l 347 1157 l 347 1157 l 231 1157 l 231 1273 l 347 1273 l 347 1273 z "},"ŝ":{"ha":694,"x_min":0,"x_max":579,"o":"m 116 694 l 116 810 l 347 810 l 463 810 l 463 694 l 579 694 l 579 579 l 579 579 l 463 579 l 463 694 l 347 694 l 116 694 l 116 579 l 116 463 l 347 463 l 463 463 l 463 347 l 579 347 l 579 231 l 579 116 l 463 116 l 463 0 l 347 0 l 116 0 l 116 116 l 0 116 l 0 231 l 116 231 l 116 116 l 347 116 l 463 116 l 463 231 l 463 347 l 347 347 l 116 347 l 116 463 l 0 463 l 0 579 l 0 694 l 116 694 l 116 694 m 231 1042 l 231 1157 l 347 1157 l 347 1042 l 347 1042 l 463 1042 l 463 926 l 347 926 l 347 926 l 347 1042 l 231 1042 l 231 926 l 116 926 l 116 926 l 116 1042 l 231 1042 z "},"Ş":{"ha":810,"x_min":0,"x_max":694,"o":"m 116 926 l 116 1042 l 347 1042 l 579 1042 l 579 926 l 579 926 l 694 926 l 694 810 l 579 810 l 579 810 l 579 926 l 347 926 l 116 926 l 116 810 l 116 694 l 231 694 l 347 694 l 347 579 l 463 579 l 579 579 l 579 463 l 579 463 l 694 463 l 694 231 l 694 116 l 579 116 l 579 0 l 463 0 l 347 0 l 347 -116 l 347 -116 l 463 -116 l 463 -231 l 347 -231 l 347 -347 l 347 -347 l 231 -347 l 231 -231 l 347 -231 l 347 -231 l 347 -116 l 231 -116 l 231 0 l 116 0 l 116 0 l 116 116 l 0 116 l 0 231 l 116 231 l 116 116 l 347 116 l 463 116 l 463 231 l 579 231 l 579 347 l 579 463 l 463 463 l 347 463 l 347 579 l 231 579 l 116 579 l 116 694 l 0 694 l 0 810 l 0 926 l 116 926 l 116 926 z "},"ş":{"ha":694,"x_min":0,"x_max":579,"o":"m 116 694 l 116 810 l 347 810 l 463 810 l 463 694 l 579 694 l 579 579 l 579 579 l 463 579 l 463 694 l 347 694 l 116 694 l 116 579 l 116 463 l 347 463 l 463 463 l 463 347 l 579 347 l 579 231 l 579 116 l 463 116 l 463 0 l 347 0 l 347 -116 l 347 -116 l 463 -116 l 463 -231 l 347 -231 l 347 -347 l 347 -347 l 231 -347 l 231 -231 l 347 -231 l 347 -231 l 347 -116 l 231 -116 l 231 0 l 116 0 l 116 0 l 116 116 l 0 116 l 0 231 l 116 231 l 116 116 l 347 116 l 463 116 l 463 231 l 463 347 l 347 347 l 116 347 l 116 463 l 0 463 l 0 579 l 0 694 l 116 694 l 116 694 z "},"Š":{"ha":810,"x_min":0,"x_max":694,"o":"m 116 926 l 116 1042 l 347 1042 l 579 1042 l 579 926 l 579 926 l 694 926 l 694 810 l 579 810 l 579 810 l 579 926 l 347 926 l 116 926 l 116 810 l 116 694 l 231 694 l 347 694 l 347 579 l 463 579 l 579 579 l 579 463 l 579 463 l 694 463 l 694 231 l 694 116 l 579 116 l 579 0 l 347 0 l 116 0 l 116 116 l 0 116 l 0 231 l 116 231 l 116 116 l 347 116 l 463 116 l 463 231 l 579 231 l 579 347 l 579 463 l 463 463 l 347 463 l 347 579 l 231 579 l 116 579 l 116 694 l 0 694 l 0 810 l 0 926 l 116 926 l 116 926 m 231 1273 l 231 1389 l 347 1389 l 347 1273 l 347 1273 l 463 1273 l 463 1389 l 579 1389 l 579 1273 l 579 1273 l 463 1273 l 463 1157 l 347 1157 l 347 1157 l 347 1273 l 231 1273 z "},"š":{"ha":694,"x_min":0,"x_max":579,"o":"m 116 694 l 116 810 l 347 810 l 463 810 l 463 694 l 579 694 l 579 579 l 579 579 l 463 579 l 463 694 l 347 694 l 116 694 l 116 579 l 116 463 l 347 463 l 463 463 l 463 347 l 579 347 l 579 231 l 579 116 l 463 116 l 463 0 l 347 0 l 116 0 l 116 116 l 0 116 l 0 231 l 116 231 l 116 116 l 347 116 l 463 116 l 463 231 l 463 347 l 347 347 l 116 347 l 116 463 l 0 463 l 0 579 l 0 694 l 116 694 l 116 694 m 116 1042 l 116 1157 l 231 1157 l 231 1042 l 347 1042 l 347 1042 l 347 1157 l 463 1157 l 463 1042 l 347 1042 l 347 926 l 347 926 l 231 926 l 231 1042 l 116 1042 l 116 1042 z "},"Ţ":{"ha":926,"x_min":0,"x_max":810,"o":"m 0 926 l 0 1042 l 347 1042 l 810 1042 l 810 926 l 579 926 l 463 926 l 463 463 l 463 0 l 347 0 l 347 -116 l 347 -116 l 463 -116 l 463 -231 l 347 -231 l 347 -347 l 347 -347 l 231 -347 l 231 -231 l 347 -231 l 347 -231 l 347 -116 l 231 -116 l 231 0 l 347 0 l 347 463 l 347 926 l 116 926 l 0 926 z "},"ţ":{"ha":463,"x_min":0,"x_max":347,"o":"m 116 926 l 116 1042 l 231 1042 l 231 926 l 231 810 l 347 810 l 347 694 l 347 694 l 231 694 l 231 347 l 231 116 l 347 116 l 347 0 l 347 0 l 231 0 l 231 -116 l 231 -231 l 116 -231 l 116 -347 l 116 -347 l 0 -347 l 0 -231 l 116 -231 l 116 -231 l 116 -116 l 0 -116 l 0 0 l 116 0 l 231 0 l 231 116 l 116 116 l 116 347 l 116 694 l 0 694 l 0 810 l 116 810 l 116 926 z "},"Ť":{"ha":926,"x_min":0,"x_max":810,"o":"m 0 926 l 0 1042 l 463 1042 l 810 1042 l 810 926 l 694 926 l 463 926 l 463 463 l 463 0 l 347 0 l 347 463 l 347 926 l 231 926 l 0 926 m 231 1273 l 231 1389 l 347 1389 l 347 1273 l 463 1273 l 463 1273 l 463 1389 l 579 1389 l 579 1273 l 463 1273 l 463 1157 l 463 1157 l 347 1157 l 347 1273 l 231 1273 l 231 1273 z "},"ť":{"ha":694,"x_min":0,"x_max":579,"o":"m 463 926 l 463 1042 l 579 1042 l 579 926 l 579 810 l 463 810 l 463 926 m 116 926 l 116 1042 l 231 1042 l 231 926 l 231 810 l 347 810 l 347 694 l 231 694 l 231 347 l 231 116 l 347 116 l 347 0 l 231 0 l 231 0 l 231 116 l 116 116 l 116 347 l 116 694 l 0 694 l 0 694 l 0 810 l 116 810 l 116 926 z "},"Ŧ":{"ha":926,"x_min":0,"x_max":810,"o":"m 0 926 l 0 1042 l 463 1042 l 810 1042 l 810 926 l 694 926 l 463 926 l 463 694 l 463 579 l 579 579 l 694 579 l 694 463 l 579 463 l 463 463 l 463 231 l 463 0 l 347 0 l 347 231 l 347 463 l 231 463 l 116 463 l 116 579 l 231 579 l 347 579 l 347 694 l 347 926 l 231 926 l 0 926 z "},"ŧ":{"ha":463,"x_min":0,"x_max":347,"o":"m 116 810 l 116 926 l 231 926 l 231 810 l 231 810 l 347 810 l 347 694 l 231 694 l 231 579 l 231 463 l 347 463 l 347 347 l 231 347 l 231 231 l 231 116 l 347 116 l 347 0 l 231 0 l 231 0 l 231 116 l 116 116 l 116 231 l 116 347 l 0 347 l 0 347 l 0 463 l 116 463 l 116 579 l 116 694 l 0 694 l 0 694 l 0 810 l 116 810 z "},"Ũ":{"ha":926,"x_min":0,"x_max":810,"o":"m 0 579 l 0 1042 l 116 1042 l 116 579 l 116 231 l 231 231 l 231 116 l 347 116 l 579 116 l 579 231 l 694 231 l 694 579 l 694 1042 l 810 1042 l 810 579 l 810 231 l 694 231 l 694 116 l 579 116 l 579 0 l 347 0 l 231 0 l 231 116 l 116 116 l 116 116 l 116 231 l 0 231 l 0 579 m 347 1273 l 347 1389 l 463 1389 l 463 1273 l 579 1273 l 579 1273 l 579 1389 l 694 1389 l 694 1273 l 579 1273 l 579 1157 l 579 1157 l 463 1157 l 463 1273 l 347 1273 l 347 1157 l 347 1157 l 231 1157 l 231 1273 l 347 1273 l 347 1273 z "},"ũ":{"ha":694,"x_min":0,"x_max":579,"o":"m 0 463 l 0 810 l 116 810 l 116 463 l 116 116 l 231 116 l 347 116 l 347 231 l 463 231 l 463 463 l 463 810 l 579 810 l 579 347 l 579 0 l 463 0 l 463 116 l 347 116 l 347 0 l 231 0 l 116 0 l 116 116 l 0 116 l 0 463 m 231 1042 l 231 1157 l 347 1157 l 347 1042 l 347 1042 l 463 1042 l 463 1157 l 579 1157 l 579 1042 l 579 1042 l 463 1042 l 463 926 l 347 926 l 347 926 l 347 1042 l 231 1042 l 231 926 l 116 926 l 116 926 l 116 1042 l 231 1042 z "},"Ū":{"ha":926,"x_min":0,"x_max":810,"o":"m 0 579 l 0 1042 l 116 1042 l 116 579 l 116 231 l 231 231 l 231 116 l 347 116 l 579 116 l 579 231 l 694 231 l 694 579 l 694 1042 l 810 1042 l 810 579 l 810 231 l 694 231 l 694 116 l 579 116 l 579 0 l 347 0 l 231 0 l 231 116 l 116 116 l 116 116 l 116 231 l 0 231 l 0 579 m 231 1157 l 231 1273 l 347 1273 l 579 1273 l 579 1157 l 347 1157 l 231 1157 z "},"ū":{"ha":694,"x_min":0,"x_max":579,"o":"m 0 463 l 0 810 l 116 810 l 116 463 l 116 116 l 231 116 l 347 116 l 347 231 l 463 231 l 463 463 l 463 810 l 579 810 l 579 347 l 579 0 l 463 0 l 463 116 l 347 116 l 347 0 l 231 0 l 116 0 l 116 116 l 0 116 l 0 463 m 116 926 l 116 1042 l 347 1042 l 463 1042 l 463 926 l 347 926 l 116 926 z "},"Ŭ":{"ha":926,"x_min":0,"x_max":810,"o":"m 0 579 l 0 1042 l 116 1042 l 116 579 l 116 231 l 231 231 l 231 116 l 347 116 l 579 116 l 579 231 l 694 231 l 694 579 l 694 1042 l 810 1042 l 810 579 l 810 231 l 694 231 l 694 116 l 579 116 l 579 0 l 347 0 l 231 0 l 231 116 l 116 116 l 116 116 l 116 231 l 0 231 l 0 579 m 231 1273 l 231 1389 l 347 1389 l 347 1273 l 463 1273 l 579 1273 l 579 1389 l 694 1389 l 694 1273 l 579 1273 l 579 1157 l 463 1157 l 347 1157 l 347 1273 l 231 1273 z "},"ŭ":{"ha":694,"x_min":0,"x_max":579,"o":"m 0 463 l 0 810 l 116 810 l 116 463 l 116 116 l 231 116 l 347 116 l 347 231 l 463 231 l 463 463 l 463 810 l 579 810 l 579 347 l 579 0 l 463 0 l 463 116 l 347 116 l 347 0 l 231 0 l 116 0 l 116 116 l 0 116 l 0 463 m 116 1042 l 116 1157 l 231 1157 l 231 1042 l 347 1042 l 463 1042 l 463 1157 l 579 1157 l 579 1042 l 579 1042 l 463 1042 l 463 926 l 347 926 l 231 926 l 231 1042 l 116 1042 l 116 1042 z "},"Ů":{"ha":926,"x_min":0,"x_max":810,"o":"m 0 579 l 0 1042 l 116 1042 l 116 579 l 116 231 l 231 231 l 231 116 l 347 116 l 579 116 l 579 231 l 694 231 l 694 579 l 694 1042 l 810 1042 l 810 579 l 810 231 l 694 231 l 694 116 l 579 116 l 579 0 l 347 0 l 231 0 l 231 116 l 116 116 l 116 116 l 116 231 l 0 231 l 0 579 m 347 1389 l 347 1505 l 463 1505 l 463 1389 l 579 1389 l 579 1273 l 579 1273 l 463 1273 l 463 1157 l 347 1157 l 347 1157 l 347 1273 l 231 1273 l 231 1389 l 347 1389 l 347 1389 m 463 1273 l 463 1389 l 347 1389 l 347 1273 l 347 1273 l 463 1273 z "},"ů":{"ha":694,"x_min":0,"x_max":579,"o":"m 0 463 l 0 810 l 116 810 l 116 463 l 116 116 l 231 116 l 347 116 l 347 231 l 463 231 l 463 463 l 463 810 l 579 810 l 579 347 l 579 0 l 463 0 l 463 116 l 347 116 l 347 0 l 231 0 l 116 0 l 116 116 l 0 116 l 0 463 m 231 1157 l 231 1273 l 347 1273 l 347 1157 l 347 1157 l 463 1157 l 463 1042 l 347 1042 l 347 926 l 347 926 l 231 926 l 231 1042 l 116 1042 l 116 1042 l 116 1157 l 231 1157 m 347 1042 l 347 1157 l 231 1157 l 231 1042 l 347 1042 l 347 1042 z "},"Ű":{"ha":926,"x_min":0,"x_max":810,"o":"m 0 579 l 0 1042 l 116 1042 l 116 579 l 116 231 l 231 231 l 231 116 l 347 116 l 579 116 l 579 231 l 694 231 l 694 579 l 694 1042 l 810 1042 l 810 579 l 810 231 l 694 231 l 694 116 l 579 116 l 579 0 l 347 0 l 231 0 l 231 116 l 116 116 l 116 116 l 116 231 l 0 231 l 0 579 m 347 1273 l 347 1389 l 463 1389 l 463 1273 l 579 1273 l 579 1273 l 579 1389 l 694 1389 l 694 1273 l 579 1273 l 579 1157 l 579 1157 l 463 1157 l 463 1273 l 347 1273 l 347 1157 l 347 1157 l 231 1157 l 231 1273 l 347 1273 l 347 1273 z "},"ű":{"ha":694,"x_min":0,"x_max":579,"o":"m 0 463 l 0 810 l 116 810 l 116 463 l 116 116 l 231 116 l 347 116 l 347 231 l 463 231 l 463 463 l 463 810 l 579 810 l 579 347 l 579 0 l 463 0 l 463 116 l 347 116 l 347 0 l 231 0 l 116 0 l 116 116 l 0 116 l 0 463 m 231 1042 l 231 1157 l 347 1157 l 347 1042 l 347 1042 l 463 1042 l 463 1157 l 579 1157 l 579 1042 l 579 1042 l 463 1042 l 463 926 l 347 926 l 347 926 l 347 1042 l 231 1042 l 231 926 l 116 926 l 116 926 l 116 1042 l 231 1042 z "},"Ų":{"ha":926,"x_min":0,"x_max":810,"o":"m 0 579 l 0 1042 l 116 1042 l 116 579 l 116 231 l 231 231 l 231 116 l 347 116 l 579 116 l 579 231 l 694 231 l 694 579 l 694 1042 l 810 1042 l 810 579 l 810 231 l 694 231 l 694 116 l 579 116 l 579 0 l 579 -116 l 463 -116 l 463 -231 l 579 -231 l 579 -347 l 579 -347 l 463 -347 l 463 -231 l 347 -231 l 347 -231 l 347 -116 l 463 -116 l 463 0 l 347 0 l 231 0 l 231 116 l 116 116 l 116 116 l 116 231 l 0 231 l 0 579 z "},"ų":{"ha":694,"x_min":0,"x_max":579,"o":"m 0 463 l 0 810 l 116 810 l 116 463 l 116 116 l 231 116 l 347 116 l 347 231 l 463 231 l 463 463 l 463 810 l 579 810 l 579 347 l 579 -116 l 463 -116 l 463 -231 l 579 -231 l 579 -347 l 579 -347 l 463 -347 l 463 -231 l 347 -231 l 347 -231 l 347 -116 l 463 -116 l 463 0 l 463 116 l 347 116 l 347 0 l 231 0 l 116 0 l 116 116 l 0 116 l 0 463 z "},"Ŵ":{"ha":1157,"x_min":0,"x_max":1042,"o":"m 0 926 l 0 1042 l 116 1042 l 116 926 l 116 810 l 231 810 l 231 463 l 231 231 l 347 231 l 347 463 l 347 810 l 463 810 l 463 926 l 463 1042 l 579 1042 l 579 926 l 579 810 l 694 810 l 694 463 l 694 231 l 810 231 l 810 463 l 810 810 l 926 810 l 926 926 l 926 1042 l 1042 1042 l 1042 926 l 1042 810 l 926 810 l 926 463 l 926 231 l 810 231 l 810 116 l 810 0 l 694 0 l 694 116 l 694 231 l 579 231 l 579 463 l 579 810 l 463 810 l 463 463 l 463 231 l 347 231 l 347 116 l 347 0 l 231 0 l 231 116 l 231 231 l 116 231 l 116 463 l 116 810 l 0 810 l 0 926 m 463 1273 l 463 1389 l 579 1389 l 579 1273 l 579 1273 l 694 1273 l 694 1157 l 579 1157 l 579 1157 l 579 1273 l 463 1273 l 463 1157 l 347 1157 l 347 1157 l 347 1273 l 463 1273 z "},"ŵ":{"ha":1157,"x_min":0,"x_max":1042,"o":"m 0 694 l 0 810 l 116 810 l 116 694 l 116 579 l 231 579 l 231 347 l 231 231 l 347 231 l 347 347 l 347 579 l 463 579 l 463 694 l 463 810 l 579 810 l 579 694 l 579 579 l 694 579 l 694 347 l 694 231 l 810 231 l 810 347 l 810 579 l 926 579 l 926 694 l 926 810 l 1042 810 l 1042 694 l 1042 579 l 926 579 l 926 347 l 926 231 l 810 231 l 810 116 l 810 0 l 694 0 l 694 116 l 694 231 l 579 231 l 579 347 l 579 579 l 463 579 l 463 347 l 463 231 l 347 231 l 347 116 l 347 0 l 231 0 l 231 116 l 231 231 l 116 231 l 116 347 l 116 579 l 0 579 l 0 694 m 463 1042 l 463 1157 l 579 1157 l 579 1042 l 694 1042 l 694 926 l 694 926 l 579 926 l 579 1042 l 463 1042 l 463 926 l 463 926 l 347 926 l 347 1042 l 463 1042 l 463 1042 z "},"Ŷ":{"ha":926,"x_min":0,"x_max":810,"o":"m 0 926 l 0 1042 l 116 1042 l 116 926 l 231 926 l 231 810 l 231 810 l 347 810 l 347 694 l 347 579 l 463 579 l 463 694 l 463 810 l 579 810 l 579 926 l 694 926 l 694 926 l 694 1042 l 810 1042 l 810 926 l 694 926 l 694 810 l 694 810 l 579 810 l 579 694 l 579 579 l 463 579 l 463 231 l 463 0 l 347 0 l 347 231 l 347 579 l 231 579 l 231 694 l 231 810 l 116 810 l 116 926 l 0 926 l 0 926 m 347 1273 l 347 1389 l 463 1389 l 463 1273 l 463 1273 l 579 1273 l 579 1157 l 463 1157 l 463 1157 l 463 1273 l 347 1273 l 347 1157 l 231 1157 l 231 1157 l 231 1273 l 347 1273 z "},"ŷ":{"ha":694,"x_min":0,"x_max":579,"o":"m 0 694 l 0 810 l 116 810 l 116 694 l 116 579 l 231 579 l 231 347 l 231 116 l 347 116 l 347 347 l 347 579 l 463 579 l 463 694 l 463 810 l 579 810 l 579 694 l 579 579 l 463 579 l 463 347 l 463 116 l 347 116 l 347 0 l 347 -116 l 231 -116 l 231 -231 l 116 -231 l 0 -231 l 0 -116 l 116 -116 l 231 -116 l 231 0 l 231 116 l 116 116 l 116 347 l 116 579 l 0 579 l 0 694 m 231 1042 l 231 1157 l 347 1157 l 347 1042 l 463 1042 l 463 926 l 463 926 l 347 926 l 347 1042 l 231 1042 l 231 926 l 231 926 l 116 926 l 116 1042 l 231 1042 l 231 1042 z "},"Ÿ":{"ha":926,"x_min":0,"x_max":810,"o":"m 0 926 l 0 1042 l 116 1042 l 116 926 l 231 926 l 231 810 l 231 810 l 347 810 l 347 694 l 347 579 l 463 579 l 463 694 l 463 810 l 579 810 l 579 926 l 694 926 l 694 926 l 694 1042 l 810 1042 l 810 926 l 694 926 l 694 810 l 694 810 l 579 810 l 579 694 l 579 579 l 463 579 l 463 231 l 463 0 l 347 0 l 347 231 l 347 579 l 231 579 l 231 694 l 231 810 l 116 810 l 116 926 l 0 926 l 0 926 m 463 1157 l 463 1273 l 579 1273 l 579 1157 l 463 1157 l 463 1157 m 231 1157 l 231 1273 l 347 1273 l 347 1157 l 231 1157 l 231 1157 z "},"Ź":{"ha":694,"x_min":0,"x_max":579,"o":"m 0 926 l 0 1042 l 347 1042 l 579 1042 l 579 926 l 579 810 l 463 810 l 463 694 l 463 579 l 347 579 l 347 463 l 347 463 l 231 463 l 231 347 l 231 231 l 116 231 l 116 116 l 347 116 l 579 116 l 579 0 l 347 0 l 0 0 l 0 116 l 0 231 l 116 231 l 116 347 l 116 463 l 231 463 l 231 579 l 347 579 l 347 694 l 347 810 l 463 810 l 463 926 l 231 926 l 0 926 m 347 1273 l 347 1389 l 463 1389 l 463 1273 l 347 1273 l 347 1157 l 347 1157 l 231 1157 l 231 1273 l 347 1273 l 347 1273 z "},"ź":{"ha":694,"x_min":0,"x_max":579,"o":"m 0 694 l 0 810 l 231 810 l 579 810 l 579 694 l 579 579 l 463 579 l 463 463 l 463 463 l 347 463 l 347 347 l 231 347 l 231 231 l 231 231 l 116 231 l 116 116 l 347 116 l 579 116 l 579 0 l 231 0 l 0 0 l 0 116 l 0 231 l 116 231 l 116 347 l 231 347 l 231 347 l 231 463 l 347 463 l 347 579 l 463 579 l 463 579 l 463 694 l 231 694 l 0 694 m 347 1042 l 347 1157 l 463 1157 l 463 1042 l 463 1042 l 347 1042 l 347 926 l 231 926 l 231 926 l 231 1042 l 347 1042 z "},"Ż":{"ha":694,"x_min":0,"x_max":579,"o":"m 0 926 l 0 1042 l 347 1042 l 579 1042 l 579 926 l 579 810 l 463 810 l 463 694 l 463 579 l 347 579 l 347 463 l 347 463 l 231 463 l 231 347 l 231 231 l 116 231 l 116 116 l 347 116 l 579 116 l 579 0 l 347 0 l 0 0 l 0 116 l 0 231 l 116 231 l 116 347 l 116 463 l 231 463 l 231 579 l 347 579 l 347 694 l 347 810 l 463 810 l 463 926 l 231 926 l 0 926 m 231 1157 l 231 1273 l 347 1273 l 347 1157 l 347 1157 l 231 1157 z "},"ż":{"ha":694,"x_min":0,"x_max":579,"o":"m 0 694 l 0 810 l 231 810 l 579 810 l 579 694 l 579 579 l 463 579 l 463 463 l 463 463 l 347 463 l 347 347 l 231 347 l 231 231 l 231 231 l 116 231 l 116 116 l 347 116 l 579 116 l 579 0 l 231 0 l 0 0 l 0 116 l 0 231 l 116 231 l 116 347 l 231 347 l 231 347 l 231 463 l 347 463 l 347 579 l 463 579 l 463 579 l 463 694 l 231 694 l 0 694 m 231 926 l 231 1042 l 347 1042 l 347 926 l 231 926 l 231 926 z "},"Ž":{"ha":694,"x_min":0,"x_max":579,"o":"m 0 926 l 0 1042 l 347 1042 l 579 1042 l 579 926 l 579 810 l 463 810 l 463 694 l 463 579 l 347 579 l 347 463 l 347 463 l 231 463 l 231 347 l 231 231 l 116 231 l 116 116 l 347 116 l 579 116 l 579 0 l 347 0 l 0 0 l 0 116 l 0 231 l 116 231 l 116 347 l 116 463 l 231 463 l 231 579 l 347 579 l 347 694 l 347 810 l 463 810 l 463 926 l 231 926 l 0 926 m 116 1273 l 116 1389 l 231 1389 l 231 1273 l 347 1273 l 347 1273 l 347 1389 l 463 1389 l 463 1273 l 347 1273 l 347 1157 l 347 1157 l 231 1157 l 231 1273 l 116 1273 l 116 1273 z "},"ž":{"ha":694,"x_min":0,"x_max":579,"o":"m 0 694 l 0 810 l 231 810 l 579 810 l 579 694 l 579 579 l 463 579 l 463 463 l 463 463 l 347 463 l 347 347 l 231 347 l 231 231 l 231 231 l 116 231 l 116 116 l 347 116 l 579 116 l 579 0 l 231 0 l 0 0 l 0 116 l 0 231 l 116 231 l 116 347 l 231 347 l 231 347 l 231 463 l 347 463 l 347 579 l 463 579 l 463 579 l 463 694 l 231 694 l 0 694 m 116 1042 l 116 1157 l 231 1157 l 231 1042 l 231 1042 l 347 1042 l 347 1157 l 463 1157 l 463 1042 l 463 1042 l 347 1042 l 347 926 l 231 926 l 231 926 l 231 1042 l 116 1042 z "},"ſ":{"ha":347,"x_min":0,"x_max":231,"o":"m 116 926 l 116 1042 l 231 1042 l 231 926 l 116 926 l 116 463 l 116 0 l 0 0 l 0 463 l 0 926 l 116 926 l 116 926 z "},"ƒ":{"ha":694,"x_min":0,"x_max":579,"o":"m 347 926 l 347 1042 l 463 1042 l 579 1042 l 579 926 l 463 926 l 347 926 l 347 810 l 347 694 l 463 694 l 463 579 l 347 579 l 231 579 l 231 231 l 231 0 l 116 0 l 116 -231 l 116 -347 l 0 -347 l 0 -231 l 0 0 l 116 0 l 116 231 l 116 579 l 0 579 l 0 694 l 116 694 l 231 694 l 231 810 l 231 926 l 347 926 l 347 926 z "},"Ǻ":{"ha":926,"x_min":0,"x_max":810,"o":"m 463 1273 l 463 1389 l 579 1389 l 579 1273 l 463 1273 l 463 1157 l 463 1042 l 579 1042 l 579 926 l 463 926 l 463 810 l 463 810 l 579 810 l 579 579 l 579 463 l 694 463 l 694 231 l 694 116 l 810 116 l 810 0 l 694 0 l 694 0 l 694 116 l 579 116 l 579 231 l 463 231 l 231 231 l 231 116 l 231 116 l 116 116 l 116 0 l 0 0 l 0 0 l 0 116 l 116 116 l 116 231 l 116 463 l 231 463 l 231 579 l 231 810 l 347 810 l 347 926 l 231 926 l 231 926 l 231 1042 l 347 1042 l 347 1157 l 347 1273 l 463 1273 l 463 1273 m 463 926 l 463 1042 l 347 1042 l 347 926 l 463 926 l 463 926 m 463 579 l 463 810 l 347 810 l 347 579 l 347 463 l 231 463 l 231 347 l 463 347 l 579 347 l 579 463 l 463 463 l 463 579 z "},"ǻ":{"ha":810,"x_min":0,"x_max":694,"o":"m 231 926 l 231 1042 l 347 1042 l 347 926 l 347 926 l 463 926 l 463 810 l 463 694 l 579 694 l 579 347 l 579 116 l 694 116 l 694 0 l 579 0 l 579 0 l 579 116 l 463 116 l 347 116 l 347 0 l 231 0 l 116 0 l 116 116 l 0 116 l 0 231 l 0 347 l 116 347 l 116 347 l 116 463 l 347 463 l 463 463 l 463 579 l 463 694 l 347 694 l 116 694 l 116 579 l 116 579 l 0 579 l 0 694 l 116 694 l 116 810 l 116 926 l 231 926 m 347 810 l 347 926 l 231 926 l 231 810 l 347 810 l 347 810 m 463 231 l 463 347 l 347 347 l 116 347 l 116 231 l 116 116 l 231 116 l 347 116 l 347 231 l 463 231 m 347 1273 l 347 1389 l 463 1389 l 463 1273 l 347 1273 l 347 1157 l 347 1157 l 231 1157 l 231 1273 l 347 1273 l 347 1273 z "},"Ǽ":{"ha":1389,"x_min":0,"x_max":1273,"o":"m 463 926 l 463 1042 l 926 1042 l 1273 1042 l 1273 926 l 1042 926 l 810 926 l 810 694 l 810 579 l 926 579 l 1157 579 l 1157 463 l 926 463 l 810 463 l 810 231 l 810 116 l 1042 116 l 1273 116 l 1273 0 l 926 0 l 694 0 l 694 116 l 694 347 l 463 347 l 231 347 l 231 231 l 231 116 l 116 116 l 116 0 l 0 0 l 0 0 l 0 116 l 116 116 l 116 231 l 116 347 l 231 347 l 231 463 l 231 579 l 347 579 l 347 694 l 347 810 l 463 810 l 463 926 m 694 694 l 694 926 l 579 926 l 579 810 l 463 810 l 463 694 l 463 579 l 347 579 l 347 463 l 463 463 l 694 463 l 694 694 m 810 1273 l 810 1389 l 926 1389 l 926 1273 l 926 1273 l 810 1273 l 810 1157 l 694 1157 l 694 1157 l 694 1273 l 810 1273 z "},"ǽ":{"ha":1157,"x_min":0,"x_max":1042,"o":"m 116 694 l 116 810 l 347 810 l 463 810 l 463 694 l 579 694 l 579 694 l 579 810 l 810 810 l 926 810 l 926 694 l 1042 694 l 1042 463 l 1042 347 l 810 347 l 579 347 l 579 231 l 579 116 l 810 116 l 926 116 l 926 231 l 1042 231 l 1042 116 l 1042 116 l 926 116 l 926 0 l 810 0 l 579 0 l 579 116 l 463 116 l 347 116 l 347 0 l 231 0 l 116 0 l 116 116 l 0 116 l 0 231 l 0 347 l 116 347 l 116 347 l 116 463 l 347 463 l 463 463 l 463 579 l 463 694 l 347 694 l 116 694 l 116 579 l 116 579 l 0 579 l 0 694 l 116 694 l 116 694 m 926 579 l 926 694 l 810 694 l 579 694 l 579 579 l 579 463 l 810 463 l 926 463 l 926 579 m 463 231 l 463 347 l 347 347 l 116 347 l 116 231 l 116 116 l 231 116 l 347 116 l 347 231 l 463 231 m 579 1042 l 579 1157 l 694 1157 l 694 1042 l 579 1042 l 579 926 l 579 926 l 463 926 l 463 1042 l 579 1042 l 579 1042 z "},"Ǿ":{"ha":926,"x_min":0,"x_max":810,"o":"m 463 694 l 463 810 l 579 810 l 579 694 l 579 579 l 463 579 l 463 463 l 347 463 l 347 347 l 347 231 l 231 231 l 231 347 l 231 463 l 347 463 l 347 463 l 347 579 l 463 579 l 463 694 m 231 926 l 231 1042 l 347 1042 l 579 1042 l 579 926 l 579 926 l 694 926 l 694 1042 l 810 1042 l 810 926 l 810 926 l 694 926 l 694 810 l 810 810 l 810 463 l 810 231 l 694 231 l 694 116 l 579 116 l 579 0 l 347 0 l 231 0 l 231 116 l 116 116 l 116 0 l 116 0 l 0 0 l 0 116 l 116 116 l 116 116 l 116 231 l 0 231 l 0 463 l 0 810 l 116 810 l 116 810 l 116 926 l 231 926 m 579 810 l 579 926 l 347 926 l 231 926 l 231 810 l 116 810 l 116 463 l 116 231 l 231 231 l 231 116 l 347 116 l 579 116 l 579 231 l 694 231 l 694 463 l 694 810 l 579 810 l 579 810 m 463 1273 l 463 1389 l 579 1389 l 579 1273 l 579 1273 l 463 1273 l 463 1157 l 347 1157 l 347 1157 l 347 1273 l 463 1273 z "},"ǿ":{"ha":694,"x_min":0,"x_max":579,"o":"m 231 347 l 231 463 l 347 463 l 347 347 l 347 347 l 231 347 m 116 694 l 116 810 l 347 810 l 579 810 l 579 463 l 579 116 l 463 116 l 463 0 l 231 0 l 0 0 l 0 347 l 0 694 l 116 694 l 116 694 m 463 579 l 463 694 l 347 694 l 116 694 l 116 463 l 116 347 l 231 347 l 231 231 l 116 231 l 116 116 l 347 116 l 463 116 l 463 231 l 463 463 l 347 463 l 347 463 l 347 579 l 463 579 m 347 1042 l 347 1157 l 463 1157 l 463 1042 l 347 1042 l 347 926 l 347 926 l 231 926 l 231 1042 l 347 1042 l 347 1042 z "},"Ș":{"ha":810,"x_min":0,"x_max":694,"o":"m 347 -231 l 347 -116 l 463 -116 l 463 -231 l 347 -231 l 347 -347 l 347 -347 l 231 -347 l 231 -231 l 347 -231 l 347 -231 m 116 926 l 116 1042 l 347 1042 l 579 1042 l 579 926 l 579 926 l 694 926 l 694 810 l 579 810 l 579 810 l 579 926 l 347 926 l 116 926 l 116 810 l 116 694 l 231 694 l 347 694 l 347 579 l 463 579 l 579 579 l 579 463 l 579 463 l 694 463 l 694 231 l 694 116 l 579 116 l 579 0 l 347 0 l 116 0 l 116 116 l 0 116 l 0 231 l 116 231 l 116 116 l 347 116 l 463 116 l 463 231 l 579 231 l 579 347 l 579 463 l 463 463 l 347 463 l 347 579 l 231 579 l 116 579 l 116 694 l 0 694 l 0 810 l 0 926 l 116 926 l 116 926 z "},"ș":{"ha":694,"x_min":0,"x_max":579,"o":"m 231 -231 l 231 -116 l 347 -116 l 347 -231 l 347 -231 l 231 -231 l 231 -347 l 116 -347 l 116 -347 l 116 -231 l 231 -231 m 116 694 l 116 810 l 347 810 l 463 810 l 463 694 l 579 694 l 579 579 l 579 579 l 463 579 l 463 694 l 347 694 l 116 694 l 116 579 l 116 463 l 347 463 l 463 463 l 463 347 l 579 347 l 579 231 l 579 116 l 463 116 l 463 0 l 347 0 l 116 0 l 116 116 l 0 116 l 0 231 l 116 231 l 116 116 l 347 116 l 463 116 l 463 231 l 463 347 l 347 347 l 116 347 l 116 463 l 0 463 l 0 579 l 0 694 l 116 694 l 116 694 z "},"Ț":{"ha":926,"x_min":0,"x_max":810,"o":"m 347 -231 l 347 -116 l 463 -116 l 463 -231 l 463 -231 l 347 -231 l 347 -347 l 231 -347 l 231 -347 l 231 -231 l 347 -231 m 0 926 l 0 1042 l 463 1042 l 810 1042 l 810 926 l 694 926 l 463 926 l 463 463 l 463 0 l 347 0 l 347 463 l 347 926 l 231 926 l 0 926 z "},"ț":{"ha":463,"x_min":0,"x_max":347,"o":"m 231 -231 l 231 -116 l 347 -116 l 347 -231 l 231 -231 l 231 -347 l 231 -347 l 116 -347 l 116 -231 l 231 -231 l 231 -231 m 116 926 l 116 1042 l 231 1042 l 231 926 l 231 810 l 347 810 l 347 694 l 231 694 l 231 347 l 231 116 l 347 116 l 347 0 l 231 0 l 231 0 l 231 116 l 116 116 l 116 347 l 116 694 l 0 694 l 0 694 l 0 810 l 116 810 l 116 926 z "},"ˆ":{"ha":463,"x_min":0,"x_max":347,"o":"m 116 1042 l 116 1157 l 231 1157 l 231 1042 l 231 1042 l 347 1042 l 347 926 l 231 926 l 231 926 l 231 1042 l 116 1042 l 116 926 l 0 926 l 0 926 l 0 1042 l 116 1042 z "},"ˇ":{"ha":463,"x_min":0,"x_max":347,"o":"m 0 1042 l 0 1157 l 116 1157 l 116 1042 l 231 1042 l 231 1042 l 231 1157 l 347 1157 l 347 1042 l 231 1042 l 231 926 l 231 926 l 116 926 l 116 1042 l 0 1042 l 0 1042 z "},"ˉ":{"ha":463,"x_min":0,"x_max":347,"o":"m 0 926 l 0 1042 l 231 1042 l 347 1042 l 347 926 l 231 926 l 0 926 z "},"˘":{"ha":579,"x_min":0,"x_max":463,"o":"m 0 1042 l 0 1157 l 116 1157 l 116 1042 l 231 1042 l 347 1042 l 347 1157 l 463 1157 l 463 1042 l 463 1042 l 347 1042 l 347 926 l 231 926 l 116 926 l 116 1042 l 0 1042 l 0 1042 z "},"˙":{"ha":231,"x_min":0,"x_max":116,"o":"m 0 926 l 0 1042 l 116 1042 l 116 926 l 116 926 l 0 926 z "},"˚":{"ha":463,"x_min":0,"x_max":347,"o":"m 116 1157 l 116 1273 l 231 1273 l 231 1157 l 231 1157 l 347 1157 l 347 1042 l 231 1042 l 231 926 l 231 926 l 116 926 l 116 1042 l 0 1042 l 0 1042 l 0 1157 l 116 1157 m 231 1042 l 231 1157 l 116 1157 l 116 1042 l 231 1042 l 231 1042 z "},"˛":{"ha":347,"x_min":0,"x_max":231,"o":"m 116 -116 l 116 0 l 231 0 l 231 -116 l 231 -116 l 116 -116 l 116 -231 l 231 -231 l 231 -347 l 231 -347 l 116 -347 l 116 -231 l 0 -231 l 0 -231 l 0 -116 l 116 -116 z "},"˜":{"ha":579,"x_min":0,"x_max":463,"o":"m 116 1042 l 116 1157 l 231 1157 l 231 1042 l 231 1042 l 347 1042 l 347 1157 l 463 1157 l 463 1042 l 463 1042 l 347 1042 l 347 926 l 231 926 l 231 926 l 231 1042 l 116 1042 l 116 926 l 0 926 l 0 926 l 0 1042 l 116 1042 z "},"˝":{"ha":579,"x_min":0,"x_max":463,"o":"m 116 1042 l 116 1157 l 231 1157 l 231 1042 l 347 1042 l 347 1042 l 347 1157 l 463 1157 l 463 1042 l 347 1042 l 347 926 l 347 926 l 231 926 l 231 1042 l 116 1042 l 116 926 l 116 926 l 0 926 l 0 1042 l 116 1042 l 116 1042 z "},";":{"ha":347,"x_min":0,"x_max":231,"o":"m 116 0 l 116 116 l 231 116 l 231 0 l 231 -116 l 116 -116 l 116 -231 l 0 -231 l 0 -231 l 0 -116 l 116 -116 l 116 0 m 116 694 l 116 810 l 231 810 l 231 694 l 231 694 l 116 694 z "},"΄":{"ha":347,"x_min":0,"x_max":231,"o":"m 116 926 l 116 1042 l 231 1042 l 231 926 l 116 926 l 116 810 l 116 810 l 0 810 l 0 926 l 116 926 l 116 926 z "},"΅":{"ha":579,"x_min":0,"x_max":463,"o":"m 231 1042 l 231 1157 l 347 1157 l 347 1042 l 463 1042 l 463 926 l 463 926 l 347 926 l 347 1042 l 231 1042 l 231 926 l 116 926 l 0 926 l 0 1042 l 116 1042 l 231 1042 z "},"Ά":{"ha":926,"x_min":0,"x_max":810,"o":"m 116 926 l 116 1042 l 231 1042 l 231 926 l 231 926 l 347 926 l 347 1042 l 463 1042 l 463 926 l 463 926 l 579 926 l 579 694 l 579 579 l 694 579 l 694 347 l 694 231 l 810 231 l 810 116 l 810 0 l 694 0 l 694 116 l 694 231 l 579 231 l 579 347 l 463 347 l 231 347 l 231 231 l 231 231 l 116 231 l 116 116 l 116 0 l 0 0 l 0 116 l 0 231 l 116 231 l 116 347 l 116 579 l 231 579 l 231 694 l 231 926 l 116 926 l 116 810 l 0 810 l 0 810 l 0 926 l 116 926 m 463 694 l 463 926 l 347 926 l 347 694 l 347 579 l 231 579 l 231 463 l 463 463 l 579 463 l 579 579 l 463 579 l 463 694 z "},"·":{"ha":231,"x_min":0,"x_max":116,"o":"m 0 347 l 0 463 l 116 463 l 116 347 l 116 347 l 0 347 z "},"Έ":{"ha":1157,"x_min":0,"x_max":1042,"o":"m 347 463 l 347 1042 l 694 1042 l 1042 1042 l 1042 926 l 810 926 l 463 926 l 463 694 l 463 579 l 694 579 l 926 579 l 926 463 l 694 463 l 463 463 l 463 231 l 463 116 l 810 116 l 1042 116 l 1042 0 l 694 0 l 347 0 l 347 463 m 116 926 l 116 1042 l 231 1042 l 231 926 l 116 926 l 116 810 l 116 810 l 0 810 l 0 926 l 116 926 l 116 926 z "},"Ή":{"ha":1273,"x_min":0,"x_max":1157,"o":"m 347 463 l 347 1042 l 463 1042 l 463 810 l 463 579 l 810 579 l 1042 579 l 1042 810 l 1042 1042 l 1157 1042 l 1157 463 l 1157 0 l 1042 0 l 1042 231 l 1042 463 l 810 463 l 463 463 l 463 231 l 463 0 l 347 0 l 347 463 m 116 926 l 116 1042 l 231 1042 l 231 926 l 116 926 l 116 810 l 116 810 l 0 810 l 0 926 l 116 926 l 116 926 z "},"Ί":{"ha":579,"x_min":0,"x_max":463,"o":"m 347 463 l 347 1042 l 463 1042 l 463 463 l 463 0 l 347 0 l 347 463 m 116 926 l 116 1042 l 231 1042 l 231 926 l 116 926 l 116 810 l 116 810 l 0 810 l 0 926 l 116 926 l 116 926 z "},"Ό":{"ha":1042,"x_min":0,"x_max":926,"o":"m 116 926 l 116 1042 l 231 1042 l 231 926 l 231 926 l 347 926 l 347 1042 l 463 1042 l 694 1042 l 694 926 l 694 926 l 810 926 l 810 810 l 926 810 l 926 463 l 926 231 l 810 231 l 810 116 l 694 116 l 694 0 l 463 0 l 347 0 l 347 116 l 231 116 l 231 116 l 231 231 l 116 231 l 116 463 l 116 810 l 0 810 l 0 810 l 0 926 l 116 926 m 231 810 l 231 926 l 116 926 l 116 810 l 231 810 l 231 463 l 231 231 l 347 231 l 347 116 l 463 116 l 694 116 l 694 231 l 810 231 l 810 463 l 810 810 l 694 810 l 694 810 l 694 926 l 463 926 l 347 926 l 347 810 l 231 810 l 231 810 z "},"Ύ":{"ha":1157,"x_min":0,"x_max":1042,"o":"m 116 926 l 116 1042 l 231 1042 l 347 1042 l 347 926 l 463 926 l 463 810 l 463 810 l 579 810 l 579 694 l 579 579 l 694 579 l 694 694 l 694 810 l 810 810 l 810 926 l 926 926 l 926 926 l 926 1042 l 1042 1042 l 1042 926 l 926 926 l 926 810 l 926 810 l 810 810 l 810 694 l 810 579 l 694 579 l 694 231 l 694 0 l 579 0 l 579 231 l 579 579 l 463 579 l 463 694 l 463 810 l 347 810 l 347 926 l 231 926 l 116 926 l 116 810 l 0 810 l 0 810 l 0 926 l 116 926 z "},"Ώ":{"ha":1042,"x_min":0,"x_max":926,"o":"m 116 926 l 116 1042 l 231 1042 l 231 926 l 231 926 l 347 926 l 347 1042 l 463 1042 l 694 1042 l 694 926 l 694 926 l 810 926 l 810 810 l 926 810 l 926 579 l 926 347 l 810 347 l 810 231 l 694 231 l 694 116 l 810 116 l 926 116 l 926 0 l 694 0 l 579 0 l 579 116 l 579 231 l 694 231 l 694 231 l 694 347 l 810 347 l 810 579 l 810 810 l 694 810 l 694 810 l 694 926 l 463 926 l 347 926 l 347 810 l 231 810 l 231 579 l 231 347 l 347 347 l 347 231 l 463 231 l 463 116 l 463 0 l 231 0 l 116 0 l 116 116 l 231 116 l 347 116 l 347 231 l 231 231 l 231 231 l 231 347 l 116 347 l 116 579 l 116 810 l 0 810 l 0 810 l 0 926 l 116 926 m 231 810 l 231 926 l 116 926 l 116 810 l 231 810 l 231 810 z "},"ΐ":{"ha":579,"x_min":0,"x_max":463,"o":"m 116 347 l 116 810 l 231 810 l 231 347 l 231 0 l 116 0 l 116 347 m 231 1042 l 231 1157 l 347 1157 l 347 1042 l 463 1042 l 463 926 l 463 926 l 347 926 l 347 1042 l 231 1042 l 231 926 l 116 926 l 0 926 l 0 1042 l 116 1042 l 231 1042 z "},"Α":{"ha":926,"x_min":0,"x_max":810,"o":"m 347 926 l 347 1042 l 463 1042 l 463 926 l 463 926 l 579 926 l 579 694 l 579 579 l 694 579 l 694 347 l 694 231 l 810 231 l 810 116 l 810 0 l 694 0 l 694 116 l 694 231 l 579 231 l 579 347 l 463 347 l 231 347 l 231 231 l 231 231 l 116 231 l 116 116 l 116 0 l 0 0 l 0 116 l 0 231 l 116 231 l 116 347 l 116 579 l 231 579 l 231 694 l 231 926 l 347 926 m 463 694 l 463 926 l 347 926 l 347 694 l 347 579 l 231 579 l 231 463 l 463 463 l 579 463 l 579 579 l 463 579 l 463 694 z "},"Β":{"ha":810,"x_min":0,"x_max":694,"o":"m 0 463 l 0 1042 l 347 1042 l 579 1042 l 579 926 l 579 926 l 694 926 l 694 694 l 694 579 l 579 579 l 579 463 l 579 463 l 694 463 l 694 231 l 694 116 l 579 116 l 579 0 l 347 0 l 0 0 l 0 463 m 579 694 l 579 926 l 347 926 l 116 926 l 116 694 l 116 579 l 347 579 l 579 579 l 579 694 m 579 231 l 579 463 l 347 463 l 116 463 l 116 231 l 116 116 l 347 116 l 579 116 l 579 231 z "},"Γ":{"ha":694,"x_min":0,"x_max":579,"o":"m 0 463 l 0 1042 l 347 1042 l 579 1042 l 579 926 l 347 926 l 116 926 l 116 463 l 116 0 l 0 0 l 0 463 z "},"Δ":{"ha":926,"x_min":0,"x_max":810,"o":"m 347 926 l 347 1042 l 463 1042 l 463 926 l 463 926 l 579 926 l 579 694 l 579 579 l 694 579 l 694 347 l 694 231 l 810 231 l 810 116 l 810 0 l 463 0 l 0 0 l 0 116 l 0 231 l 116 231 l 116 347 l 116 579 l 231 579 l 231 694 l 231 926 l 347 926 m 463 694 l 463 926 l 347 926 l 347 694 l 347 579 l 231 579 l 231 347 l 231 231 l 116 231 l 116 116 l 463 116 l 694 116 l 694 231 l 579 231 l 579 347 l 579 579 l 463 579 l 463 694 z "},"Ε":{"ha":810,"x_min":0,"x_max":694,"o":"m 0 463 l 0 1042 l 347 1042 l 694 1042 l 694 926 l 347 926 l 116 926 l 116 694 l 116 579 l 347 579 l 579 579 l 579 463 l 347 463 l 116 463 l 116 231 l 116 116 l 347 116 l 694 116 l 694 0 l 347 0 l 0 0 l 0 463 z "},"Ζ":{"ha":694,"x_min":0,"x_max":579,"o":"m 0 926 l 0 1042 l 347 1042 l 579 1042 l 579 926 l 579 810 l 463 810 l 463 694 l 463 579 l 347 579 l 347 463 l 347 463 l 231 463 l 231 347 l 231 231 l 116 231 l 116 116 l 347 116 l 579 116 l 579 0 l 347 0 l 0 0 l 0 116 l 0 231 l 116 231 l 116 347 l 116 463 l 231 463 l 231 579 l 347 579 l 347 694 l 347 810 l 463 810 l 463 926 l 231 926 l 0 926 z "},"Η":{"ha":926,"x_min":0,"x_max":810,"o":"m 0 463 l 0 1042 l 116 1042 l 116 810 l 116 579 l 347 579 l 694 579 l 694 810 l 694 1042 l 810 1042 l 810 463 l 810 0 l 694 0 l 694 231 l 694 463 l 347 463 l 116 463 l 116 231 l 116 0 l 0 0 l 0 463 z "},"Θ":{"ha":926,"x_min":0,"x_max":810,"o":"m 231 463 l 231 579 l 347 579 l 579 579 l 579 463 l 347 463 l 231 463 m 231 926 l 231 1042 l 347 1042 l 579 1042 l 579 926 l 579 926 l 694 926 l 694 810 l 810 810 l 810 463 l 810 231 l 694 231 l 694 116 l 579 116 l 579 0 l 347 0 l 231 0 l 231 116 l 116 116 l 116 116 l 116 231 l 0 231 l 0 463 l 0 810 l 116 810 l 116 810 l 116 926 l 231 926 m 579 810 l 579 926 l 347 926 l 231 926 l 231 810 l 116 810 l 116 463 l 116 231 l 231 231 l 231 116 l 347 116 l 579 116 l 579 231 l 694 231 l 694 463 l 694 810 l 579 810 l 579 810 z "},"Ι":{"ha":231,"x_min":0,"x_max":116,"o":"m 0 463 l 0 1042 l 116 1042 l 116 463 l 116 0 l 0 0 l 0 463 z "},"Κ":{"ha":926,"x_min":0,"x_max":810,"o":"m 0 463 l 0 1042 l 116 1042 l 116 810 l 116 579 l 231 579 l 231 694 l 347 694 l 347 694 l 347 810 l 463 810 l 463 926 l 579 926 l 579 926 l 579 1042 l 694 1042 l 694 926 l 579 926 l 579 810 l 579 810 l 463 810 l 463 694 l 347 694 l 347 579 l 347 463 l 463 463 l 463 347 l 579 347 l 579 231 l 579 231 l 694 231 l 694 116 l 810 116 l 810 0 l 810 0 l 694 0 l 694 116 l 579 116 l 579 116 l 579 231 l 463 231 l 463 347 l 347 347 l 347 347 l 347 463 l 231 463 l 116 463 l 116 231 l 116 0 l 0 0 l 0 463 z "},"Λ":{"ha":926,"x_min":0,"x_max":810,"o":"m 347 926 l 347 1042 l 463 1042 l 463 926 l 463 926 l 579 926 l 579 694 l 579 579 l 694 579 l 694 347 l 694 231 l 810 231 l 810 116 l 810 0 l 694 0 l 694 116 l 694 231 l 579 231 l 579 347 l 579 579 l 463 579 l 463 694 l 463 926 l 347 926 l 347 694 l 347 579 l 231 579 l 231 347 l 231 231 l 116 231 l 116 116 l 116 0 l 0 0 l 0 116 l 0 231 l 116 231 l 116 347 l 116 579 l 231 579 l 231 694 l 231 926 l 347 926 z "},"Μ":{"ha":926,"x_min":0,"x_max":810,"o":"m 0 463 l 0 1042 l 116 1042 l 116 926 l 116 810 l 231 810 l 231 694 l 231 579 l 347 579 l 347 347 l 347 231 l 463 231 l 463 347 l 463 579 l 579 579 l 579 694 l 579 810 l 694 810 l 694 926 l 694 1042 l 810 1042 l 810 463 l 810 0 l 694 0 l 694 231 l 694 579 l 579 579 l 579 347 l 579 231 l 463 231 l 463 116 l 463 0 l 347 0 l 347 116 l 347 231 l 231 231 l 231 347 l 231 579 l 116 579 l 116 231 l 116 0 l 0 0 l 0 463 z "},"Ν":{"ha":926,"x_min":0,"x_max":810,"o":"m 0 463 l 0 1042 l 116 1042 l 116 926 l 116 926 l 231 926 l 231 810 l 347 810 l 347 694 l 347 579 l 463 579 l 463 463 l 579 463 l 579 347 l 579 231 l 694 231 l 694 579 l 694 1042 l 810 1042 l 810 463 l 810 0 l 694 0 l 694 116 l 579 116 l 579 116 l 579 231 l 463 231 l 463 347 l 463 463 l 347 463 l 347 463 l 347 579 l 231 579 l 231 694 l 231 810 l 116 810 l 116 347 l 116 0 l 0 0 l 0 463 z "},"Ξ":{"ha":810,"x_min":0,"x_max":694,"o":"m 0 0 l 0 116 l 347 116 l 694 116 l 694 0 l 347 0 l 0 0 m 116 463 l 116 579 l 347 579 l 579 579 l 579 463 l 347 463 l 116 463 m 0 926 l 0 1042 l 347 1042 l 694 1042 l 694 926 l 347 926 l 0 926 z "},"Ο":{"ha":926,"x_min":0,"x_max":810,"o":"m 231 926 l 231 1042 l 347 1042 l 579 1042 l 579 926 l 579 926 l 694 926 l 694 810 l 810 810 l 810 463 l 810 231 l 694 231 l 694 116 l 579 116 l 579 0 l 347 0 l 231 0 l 231 116 l 116 116 l 116 116 l 116 231 l 0 231 l 0 463 l 0 810 l 116 810 l 116 810 l 116 926 l 231 926 m 579 810 l 579 926 l 347 926 l 231 926 l 231 810 l 116 810 l 116 463 l 116 231 l 231 231 l 231 116 l 347 116 l 579 116 l 579 231 l 694 231 l 694 463 l 694 810 l 579 810 l 579 810 z "},"Π":{"ha":926,"x_min":0,"x_max":810,"o":"m 0 463 l 0 1042 l 347 1042 l 810 1042 l 810 463 l 810 0 l 694 0 l 694 463 l 694 926 l 347 926 l 116 926 l 116 463 l 116 0 l 0 0 l 0 463 z "},"Ρ":{"ha":810,"x_min":0,"x_max":694,"o":"m 0 463 l 0 1042 l 347 1042 l 579 1042 l 579 926 l 579 926 l 694 926 l 694 694 l 694 579 l 579 579 l 579 463 l 347 463 l 116 463 l 116 231 l 116 0 l 0 0 l 0 463 m 579 694 l 579 926 l 347 926 l 116 926 l 116 694 l 116 579 l 347 579 l 579 579 l 579 694 z "},"Σ":{"ha":694,"x_min":0,"x_max":579,"o":"m 0 926 l 0 1042 l 347 1042 l 579 1042 l 579 926 l 347 926 l 116 926 l 116 810 l 116 810 l 231 810 l 231 694 l 347 694 l 347 579 l 347 579 l 463 579 l 463 463 l 347 463 l 347 347 l 347 347 l 231 347 l 231 231 l 116 231 l 116 116 l 347 116 l 579 116 l 579 0 l 347 0 l 0 0 l 0 116 l 0 231 l 116 231 l 116 231 l 116 347 l 231 347 l 231 463 l 347 463 l 347 463 l 347 579 l 231 579 l 231 694 l 116 694 l 116 694 l 116 810 l 0 810 l 0 926 z "},"Τ":{"ha":926,"x_min":0,"x_max":810,"o":"m 0 926 l 0 1042 l 463 1042 l 810 1042 l 810 926 l 694 926 l 463 926 l 463 463 l 463 0 l 347 0 l 347 463 l 347 926 l 231 926 l 0 926 z "},"Υ":{"ha":926,"x_min":0,"x_max":810,"o":"m 0 926 l 0 1042 l 116 1042 l 116 926 l 231 926 l 231 810 l 231 810 l 347 810 l 347 694 l 347 579 l 463 579 l 463 694 l 463 810 l 579 810 l 579 926 l 694 926 l 694 926 l 694 1042 l 810 1042 l 810 926 l 694 926 l 694 810 l 694 810 l 579 810 l 579 694 l 579 579 l 463 579 l 463 231 l 463 0 l 347 0 l 347 231 l 347 579 l 231 579 l 231 694 l 231 810 l 116 810 l 116 926 l 0 926 l 0 926 z "},"Φ":{"ha":1157,"x_min":0,"x_max":1042,"o":"m 463 926 l 463 1042 l 579 1042 l 579 926 l 694 926 l 810 926 l 810 810 l 926 810 l 926 694 l 926 694 l 1042 694 l 1042 463 l 1042 347 l 926 347 l 926 231 l 926 231 l 810 231 l 810 116 l 694 116 l 579 116 l 579 0 l 463 0 l 463 0 l 463 116 l 347 116 l 231 116 l 231 231 l 116 231 l 116 347 l 0 347 l 0 463 l 0 694 l 116 694 l 116 810 l 231 810 l 231 810 l 231 926 l 347 926 l 463 926 m 463 463 l 463 810 l 347 810 l 231 810 l 231 694 l 231 694 l 116 694 l 116 463 l 116 347 l 231 347 l 231 231 l 347 231 l 463 231 l 463 463 m 810 694 l 810 810 l 694 810 l 579 810 l 579 463 l 579 231 l 694 231 l 810 231 l 810 347 l 926 347 l 926 463 l 926 694 l 810 694 z "},"Χ":{"ha":926,"x_min":0,"x_max":810,"o":"m 0 926 l 0 1042 l 116 1042 l 116 926 l 231 926 l 231 810 l 231 810 l 347 810 l 347 694 l 347 579 l 463 579 l 463 694 l 463 810 l 579 810 l 579 926 l 694 926 l 694 926 l 694 1042 l 810 1042 l 810 926 l 694 926 l 694 810 l 694 810 l 579 810 l 579 694 l 579 579 l 463 579 l 463 463 l 463 463 l 579 463 l 579 347 l 579 231 l 694 231 l 694 116 l 694 116 l 810 116 l 810 0 l 694 0 l 694 0 l 694 116 l 579 116 l 579 231 l 463 231 l 463 347 l 463 463 l 347 463 l 347 347 l 347 231 l 231 231 l 231 116 l 231 116 l 116 116 l 116 0 l 0 0 l 0 0 l 0 116 l 116 116 l 116 231 l 231 231 l 231 347 l 231 463 l 347 463 l 347 579 l 231 579 l 231 694 l 231 810 l 116 810 l 116 926 l 0 926 l 0 926 z "},"Ψ":{"ha":1157,"x_min":0,"x_max":1042,"o":"m 0 810 l 0 1042 l 116 1042 l 116 810 l 116 579 l 231 579 l 231 463 l 347 463 l 463 463 l 463 694 l 463 1042 l 579 1042 l 579 694 l 579 463 l 694 463 l 810 463 l 810 579 l 926 579 l 926 810 l 926 1042 l 1042 1042 l 1042 810 l 1042 579 l 926 579 l 926 463 l 926 463 l 810 463 l 810 347 l 694 347 l 579 347 l 579 116 l 579 0 l 463 0 l 463 116 l 463 347 l 347 347 l 231 347 l 231 463 l 116 463 l 116 579 l 0 579 l 0 810 z "},"Ω":{"ha":926,"x_min":0,"x_max":810,"o":"m 231 926 l 231 1042 l 347 1042 l 579 1042 l 579 926 l 579 926 l 694 926 l 694 810 l 810 810 l 810 579 l 810 347 l 694 347 l 694 231 l 579 231 l 579 116 l 694 116 l 810 116 l 810 0 l 579 0 l 463 0 l 463 116 l 463 231 l 579 231 l 579 231 l 579 347 l 694 347 l 694 579 l 694 810 l 579 810 l 579 810 l 579 926 l 347 926 l 231 926 l 231 810 l 116 810 l 116 579 l 116 347 l 231 347 l 231 231 l 347 231 l 347 116 l 347 0 l 116 0 l 0 0 l 0 116 l 116 116 l 231 116 l 231 231 l 116 231 l 116 231 l 116 347 l 0 347 l 0 579 l 0 810 l 116 810 l 116 810 l 116 926 l 231 926 z "},"Ϊ":{"ha":463,"x_min":0,"x_max":347,"o":"m 116 463 l 116 1042 l 231 1042 l 231 463 l 231 0 l 116 0 l 116 463 m 231 1157 l 231 1273 l 347 1273 l 347 1157 l 231 1157 l 231 1157 m 0 1157 l 0 1273 l 116 1273 l 116 1157 l 0 1157 l 0 1157 z "},"Ϋ":{"ha":926,"x_min":0,"x_max":810,"o":"m 0 926 l 0 1042 l 116 1042 l 116 926 l 231 926 l 231 810 l 231 810 l 347 810 l 347 694 l 347 579 l 463 579 l 463 694 l 463 810 l 579 810 l 579 926 l 694 926 l 694 926 l 694 1042 l 810 1042 l 810 926 l 694 926 l 694 810 l 694 810 l 579 810 l 579 694 l 579 579 l 463 579 l 463 231 l 463 0 l 347 0 l 347 231 l 347 579 l 231 579 l 231 694 l 231 810 l 116 810 l 116 926 l 0 926 l 0 926 m 463 1157 l 463 1273 l 579 1273 l 579 1157 l 463 1157 l 463 1157 m 231 1157 l 231 1273 l 347 1273 l 347 1157 l 231 1157 l 231 1157 z "},"ά":{"ha":810,"x_min":0,"x_max":694,"o":"m 116 694 l 116 810 l 231 810 l 347 810 l 347 694 l 463 694 l 579 694 l 579 810 l 694 810 l 694 694 l 579 694 l 579 347 l 579 116 l 463 116 l 347 116 l 347 0 l 231 0 l 116 0 l 116 116 l 0 116 l 0 347 l 0 694 l 116 694 l 116 694 m 347 579 l 347 694 l 231 694 l 116 694 l 116 347 l 116 116 l 231 116 l 347 116 l 347 231 l 463 231 l 463 347 l 463 579 l 347 579 l 347 579 m 347 1042 l 347 1157 l 463 1157 l 463 1042 l 347 1042 l 347 926 l 347 926 l 231 926 l 231 1042 l 347 1042 l 347 1042 z "},"έ":{"ha":579,"x_min":0,"x_max":463,"o":"m 116 694 l 116 810 l 231 810 l 347 810 l 347 694 l 347 694 l 463 694 l 463 579 l 347 579 l 347 579 l 347 694 l 231 694 l 116 694 l 116 579 l 116 463 l 231 463 l 347 463 l 347 347 l 231 347 l 116 347 l 116 231 l 116 116 l 231 116 l 347 116 l 347 231 l 463 231 l 463 116 l 347 116 l 347 0 l 231 0 l 116 0 l 116 116 l 0 116 l 0 231 l 0 347 l 116 347 l 116 347 l 116 463 l 0 463 l 0 579 l 0 694 l 116 694 l 116 694 m 347 1042 l 347 1157 l 463 1157 l 463 1042 l 347 1042 l 347 926 l 347 926 l 231 926 l 231 1042 l 347 1042 l 347 1042 z "},"ή":{"ha":694,"x_min":0,"x_max":579,"o":"m 0 347 l 0 810 l 116 810 l 116 694 l 116 694 l 231 694 l 231 810 l 347 810 l 463 810 l 463 694 l 579 694 l 579 231 l 579 -231 l 463 -231 l 463 231 l 463 694 l 347 694 l 231 694 l 231 579 l 116 579 l 116 231 l 116 0 l 0 0 l 0 347 m 347 1042 l 347 1157 l 463 1157 l 463 1042 l 347 1042 l 347 926 l 347 926 l 231 926 l 231 1042 l 347 1042 l 347 1042 z "},"ί":{"ha":347,"x_min":0,"x_max":231,"o":"m 0 347 l 0 810 l 116 810 l 116 347 l 116 0 l 0 0 l 0 347 m 116 1042 l 116 1157 l 231 1157 l 231 1042 l 116 1042 l 116 926 l 116 926 l 0 926 l 0 1042 l 116 1042 l 116 1042 z "},"ΰ":{"ha":694,"x_min":0,"x_max":579,"o":"m 0 463 l 0 810 l 116 810 l 116 463 l 116 116 l 347 116 l 463 116 l 463 463 l 463 810 l 579 810 l 579 463 l 579 116 l 463 116 l 463 0 l 347 0 l 116 0 l 116 116 l 0 116 l 0 463 m 347 1042 l 347 1157 l 463 1157 l 463 1042 l 579 1042 l 579 926 l 579 926 l 463 926 l 463 1042 l 347 1042 l 347 926 l 231 926 l 116 926 l 116 1042 l 231 1042 l 347 1042 z "},"α":{"ha":810,"x_min":0,"x_max":694,"o":"m 116 694 l 116 810 l 231 810 l 347 810 l 347 694 l 463 694 l 579 694 l 579 810 l 694 810 l 694 694 l 579 694 l 579 347 l 579 116 l 463 116 l 347 116 l 347 0 l 231 0 l 116 0 l 116 116 l 0 116 l 0 347 l 0 694 l 116 694 l 116 694 m 347 579 l 347 694 l 231 694 l 116 694 l 116 347 l 116 116 l 231 116 l 347 116 l 347 231 l 463 231 l 463 347 l 463 579 l 347 579 l 347 579 z "},"β":{"ha":694,"x_min":0,"x_max":579,"o":"m 116 926 l 116 1042 l 347 1042 l 463 1042 l 463 926 l 579 926 l 579 694 l 579 579 l 463 579 l 463 463 l 579 463 l 579 231 l 579 116 l 463 116 l 463 0 l 347 0 l 116 0 l 116 -116 l 116 -231 l 0 -231 l 0 347 l 0 926 l 116 926 l 116 926 m 463 694 l 463 926 l 347 926 l 116 926 l 116 463 l 116 116 l 347 116 l 463 116 l 463 231 l 463 463 l 347 463 l 231 463 l 231 579 l 347 579 l 463 579 l 463 694 z "},"γ":{"ha":694,"x_min":0,"x_max":579,"o":"m 0 694 l 0 810 l 116 810 l 116 694 l 116 579 l 231 579 l 231 347 l 231 116 l 347 116 l 347 347 l 347 579 l 463 579 l 463 694 l 463 810 l 579 810 l 579 694 l 579 579 l 463 579 l 463 347 l 463 116 l 347 116 l 347 -116 l 347 -231 l 231 -231 l 231 -116 l 231 116 l 116 116 l 116 347 l 116 579 l 0 579 l 0 694 z "},"δ":{"ha":694,"x_min":0,"x_max":579,"o":"m 116 926 l 116 1042 l 347 1042 l 463 1042 l 463 926 l 347 926 l 231 926 l 231 810 l 347 810 l 347 694 l 347 694 l 463 694 l 463 579 l 579 579 l 579 347 l 579 116 l 463 116 l 463 0 l 347 0 l 116 0 l 116 116 l 0 116 l 0 347 l 0 579 l 116 579 l 116 579 l 116 694 l 231 694 l 231 810 l 116 810 l 116 926 m 347 579 l 347 694 l 231 694 l 231 579 l 116 579 l 116 347 l 116 116 l 347 116 l 463 116 l 463 347 l 463 579 l 347 579 l 347 579 z "},"ε":{"ha":579,"x_min":0,"x_max":463,"o":"m 116 694 l 116 810 l 231 810 l 347 810 l 347 694 l 347 694 l 463 694 l 463 579 l 347 579 l 347 579 l 347 694 l 231 694 l 116 694 l 116 579 l 116 463 l 231 463 l 347 463 l 347 347 l 231 347 l 116 347 l 116 231 l 116 116 l 231 116 l 347 116 l 347 231 l 463 231 l 463 116 l 347 116 l 347 0 l 231 0 l 116 0 l 116 116 l 0 116 l 0 231 l 0 347 l 116 347 l 116 347 l 116 463 l 0 463 l 0 579 l 0 694 l 116 694 l 116 694 z "},"ζ":{"ha":579,"x_min":0,"x_max":463,"o":"m 0 926 l 0 1042 l 231 1042 l 463 1042 l 463 926 l 463 810 l 347 810 l 347 694 l 347 694 l 231 694 l 231 579 l 116 579 l 116 347 l 116 116 l 231 116 l 347 116 l 347 0 l 347 0 l 463 0 l 463 -116 l 463 -231 l 347 -231 l 347 -116 l 347 0 l 231 0 l 116 0 l 116 116 l 0 116 l 0 347 l 0 579 l 116 579 l 116 579 l 116 694 l 231 694 l 231 810 l 347 810 l 347 810 l 347 926 l 116 926 l 0 926 z "},"η":{"ha":694,"x_min":0,"x_max":579,"o":"m 0 347 l 0 810 l 116 810 l 116 694 l 116 694 l 231 694 l 231 810 l 347 810 l 463 810 l 463 694 l 579 694 l 579 231 l 579 -231 l 463 -231 l 463 231 l 463 694 l 347 694 l 231 694 l 231 579 l 116 579 l 116 231 l 116 0 l 0 0 l 0 347 z "},"θ":{"ha":694,"x_min":0,"x_max":579,"o":"m 116 926 l 116 1042 l 347 1042 l 463 1042 l 463 926 l 579 926 l 579 463 l 579 116 l 463 116 l 463 0 l 347 0 l 116 0 l 116 116 l 0 116 l 0 463 l 0 926 l 116 926 l 116 926 m 463 694 l 463 926 l 347 926 l 116 926 l 116 694 l 116 579 l 347 579 l 463 579 l 463 694 m 463 231 l 463 463 l 347 463 l 116 463 l 116 231 l 116 116 l 347 116 l 463 116 l 463 231 z "},"ι":{"ha":231,"x_min":0,"x_max":116,"o":"m 0 347 l 0 810 l 116 810 l 116 347 l 116 0 l 0 0 l 0 347 z "},"κ":{"ha":694,"x_min":0,"x_max":579,"o":"m 0 347 l 0 810 l 116 810 l 116 579 l 116 463 l 231 463 l 231 579 l 347 579 l 347 579 l 347 694 l 463 694 l 463 810 l 579 810 l 579 694 l 579 694 l 463 694 l 463 579 l 347 579 l 347 463 l 347 463 l 231 463 l 231 347 l 347 347 l 347 231 l 347 231 l 463 231 l 463 116 l 579 116 l 579 0 l 579 0 l 463 0 l 463 116 l 347 116 l 347 116 l 347 231 l 231 231 l 231 347 l 116 347 l 116 116 l 116 0 l 0 0 l 0 347 z "},"λ":{"ha":694,"x_min":0,"x_max":579,"o":"m 0 926 l 0 1042 l 116 1042 l 231 1042 l 231 926 l 231 926 l 347 926 l 347 694 l 347 579 l 463 579 l 463 347 l 463 231 l 579 231 l 579 116 l 579 0 l 463 0 l 463 116 l 463 231 l 347 231 l 347 347 l 347 579 l 231 579 l 231 347 l 231 231 l 116 231 l 116 116 l 116 0 l 0 0 l 0 116 l 0 231 l 116 231 l 116 347 l 116 579 l 231 579 l 231 694 l 231 926 l 116 926 l 0 926 z "},"μ":{"ha":694,"x_min":0,"x_max":579,"o":"m 0 231 l 0 810 l 116 810 l 116 463 l 116 116 l 231 116 l 347 116 l 347 231 l 463 231 l 463 463 l 463 810 l 579 810 l 579 347 l 579 0 l 463 0 l 463 116 l 347 116 l 347 0 l 231 0 l 116 0 l 116 -116 l 116 -231 l 0 -231 l 0 231 z "},"ν":{"ha":694,"x_min":0,"x_max":579,"o":"m 0 579 l 0 810 l 116 810 l 116 579 l 116 463 l 231 463 l 231 231 l 231 116 l 347 116 l 347 231 l 347 347 l 463 347 l 463 579 l 463 810 l 579 810 l 579 579 l 579 347 l 463 347 l 463 231 l 463 116 l 347 116 l 347 0 l 231 0 l 231 0 l 231 116 l 116 116 l 116 231 l 116 463 l 0 463 l 0 579 z "},"ξ":{"ha":579,"x_min":0,"x_max":463,"o":"m 0 926 l 0 1042 l 231 1042 l 463 1042 l 463 926 l 347 926 l 347 810 l 347 810 l 231 810 l 231 694 l 231 579 l 347 579 l 347 463 l 347 463 l 231 463 l 231 347 l 116 347 l 116 231 l 116 116 l 231 116 l 347 116 l 347 0 l 347 0 l 463 0 l 463 -116 l 463 -231 l 347 -231 l 347 -116 l 347 0 l 231 0 l 116 0 l 116 116 l 0 116 l 0 231 l 0 347 l 116 347 l 116 347 l 116 463 l 231 463 l 231 579 l 116 579 l 116 694 l 116 810 l 231 810 l 231 926 l 116 926 l 0 926 z "},"ο":{"ha":694,"x_min":0,"x_max":579,"o":"m 116 694 l 116 810 l 347 810 l 463 810 l 463 694 l 579 694 l 579 347 l 579 116 l 463 116 l 463 0 l 347 0 l 116 0 l 116 116 l 0 116 l 0 347 l 0 694 l 116 694 l 116 694 m 463 347 l 463 694 l 347 694 l 116 694 l 116 347 l 116 116 l 347 116 l 463 116 l 463 347 z "},"π":{"ha":810,"x_min":0,"x_max":694,"o":"m 0 694 l 0 810 l 347 810 l 694 810 l 694 694 l 579 694 l 579 347 l 579 116 l 694 116 l 694 0 l 579 0 l 579 0 l 579 116 l 463 116 l 463 347 l 463 694 l 347 694 l 231 694 l 231 347 l 231 116 l 116 116 l 116 0 l 116 0 l 0 0 l 0 116 l 116 116 l 116 347 l 116 694 l 0 694 z "},"ρ":{"ha":694,"x_min":0,"x_max":579,"o":"m 116 694 l 116 810 l 347 810 l 463 810 l 463 694 l 579 694 l 579 347 l 579 116 l 463 116 l 463 0 l 347 0 l 231 0 l 231 116 l 116 116 l 116 -116 l 116 -231 l 0 -231 l 0 231 l 0 694 l 116 694 l 116 694 m 463 347 l 463 694 l 347 694 l 116 694 l 116 463 l 116 231 l 231 231 l 231 116 l 347 116 l 463 116 l 463 347 z "},"ς":{"ha":579,"x_min":0,"x_max":463,"o":"m 116 694 l 116 810 l 347 810 l 463 810 l 463 694 l 347 694 l 116 694 l 116 347 l 116 116 l 231 116 l 347 116 l 347 0 l 347 0 l 463 0 l 463 -116 l 463 -231 l 347 -231 l 347 -116 l 347 0 l 231 0 l 116 0 l 116 116 l 0 116 l 0 347 l 0 694 l 116 694 l 116 694 z "},"σ":{"ha":810,"x_min":0,"x_max":694,"o":"m 116 694 l 116 810 l 347 810 l 694 810 l 694 694 l 579 694 l 579 347 l 579 116 l 463 116 l 463 0 l 347 0 l 116 0 l 116 116 l 0 116 l 0 347 l 0 694 l 116 694 l 116 694 m 463 347 l 463 694 l 347 694 l 116 694 l 116 347 l 116 116 l 347 116 l 463 116 l 463 347 z "},"τ":{"ha":694,"x_min":0,"x_max":579,"o":"m 0 694 l 0 810 l 231 810 l 579 810 l 579 694 l 463 694 l 347 694 l 347 347 l 347 116 l 463 116 l 463 0 l 463 0 l 347 0 l 347 116 l 231 116 l 231 347 l 231 694 l 116 694 l 0 694 z "},"υ":{"ha":694,"x_min":0,"x_max":579,"o":"m 0 463 l 0 810 l 116 810 l 116 463 l 116 116 l 347 116 l 463 116 l 463 463 l 463 810 l 579 810 l 579 463 l 579 116 l 463 116 l 463 0 l 347 0 l 116 0 l 116 116 l 0 116 l 0 463 z "},"φ":{"ha":926,"x_min":0,"x_max":810,"o":"m 116 694 l 116 810 l 231 810 l 231 694 l 231 694 l 116 694 l 116 347 l 116 116 l 231 116 l 347 116 l 347 347 l 347 694 l 463 694 l 463 694 l 463 810 l 579 810 l 694 810 l 694 694 l 694 694 l 810 694 l 810 347 l 810 116 l 694 116 l 694 0 l 579 0 l 463 0 l 463 -116 l 463 -231 l 347 -231 l 347 -116 l 347 0 l 231 0 l 116 0 l 116 116 l 0 116 l 0 347 l 0 694 l 116 694 m 694 347 l 694 694 l 579 694 l 463 694 l 463 347 l 463 116 l 579 116 l 694 116 l 694 347 z "},"χ":{"ha":810,"x_min":0,"x_max":694,"o":"m 0 694 l 0 810 l 116 810 l 116 694 l 231 694 l 231 579 l 231 463 l 347 463 l 463 463 l 463 579 l 463 694 l 579 694 l 579 810 l 694 810 l 694 694 l 694 694 l 579 694 l 579 579 l 579 463 l 463 463 l 463 347 l 463 231 l 579 231 l 579 116 l 579 0 l 694 0 l 694 -116 l 694 -231 l 579 -231 l 579 -116 l 579 0 l 463 0 l 463 116 l 463 231 l 347 231 l 231 231 l 231 116 l 231 0 l 116 0 l 116 -116 l 116 -231 l 0 -231 l 0 -116 l 0 0 l 116 0 l 116 116 l 116 231 l 231 231 l 231 347 l 231 463 l 116 463 l 116 579 l 116 694 l 0 694 l 0 694 z "},"ψ":{"ha":926,"x_min":0,"x_max":810,"o":"m 347 579 l 347 1042 l 463 1042 l 463 579 l 463 116 l 579 116 l 694 116 l 694 463 l 694 810 l 810 810 l 810 463 l 810 116 l 694 116 l 694 0 l 579 0 l 463 0 l 463 -116 l 463 -231 l 347 -231 l 347 -116 l 347 0 l 231 0 l 116 0 l 116 116 l 0 116 l 0 463 l 0 810 l 116 810 l 116 463 l 116 116 l 231 116 l 347 116 l 347 579 z "},"ω":{"ha":926,"x_min":0,"x_max":810,"o":"m 116 694 l 116 810 l 231 810 l 231 694 l 116 694 l 116 347 l 116 116 l 231 116 l 347 116 l 347 347 l 347 579 l 463 579 l 463 347 l 463 116 l 579 116 l 694 116 l 694 347 l 694 694 l 579 694 l 579 694 l 579 810 l 694 810 l 694 694 l 810 694 l 810 347 l 810 116 l 694 116 l 694 0 l 579 0 l 463 0 l 463 116 l 347 116 l 347 0 l 231 0 l 116 0 l 116 116 l 0 116 l 0 347 l 0 694 l 116 694 l 116 694 z "},"ϊ":{"ha":463,"x_min":0,"x_max":347,"o":"m 116 347 l 116 810 l 231 810 l 231 347 l 231 0 l 116 0 l 116 347 m 231 926 l 231 1042 l 347 1042 l 347 926 l 231 926 l 231 926 m 0 926 l 0 1042 l 116 1042 l 116 926 l 0 926 l 0 926 z "},"ϋ":{"ha":694,"x_min":0,"x_max":579,"o":"m 0 463 l 0 810 l 116 810 l 116 463 l 116 116 l 347 116 l 463 116 l 463 463 l 463 810 l 579 810 l 579 463 l 579 116 l 463 116 l 463 0 l 347 0 l 116 0 l 116 116 l 0 116 l 0 463 m 347 926 l 347 1042 l 463 1042 l 463 926 l 347 926 l 347 926 m 116 926 l 116 1042 l 231 1042 l 231 926 l 116 926 l 116 926 z "},"ό":{"ha":694,"x_min":0,"x_max":579,"o":"m 116 694 l 116 810 l 347 810 l 463 810 l 463 694 l 579 694 l 579 347 l 579 116 l 463 116 l 463 0 l 347 0 l 116 0 l 116 116 l 0 116 l 0 347 l 0 694 l 116 694 l 116 694 m 463 347 l 463 694 l 347 694 l 116 694 l 116 347 l 116 116 l 347 116 l 463 116 l 463 347 m 347 1042 l 347 1157 l 463 1157 l 463 1042 l 347 1042 l 347 926 l 347 926 l 231 926 l 231 1042 l 347 1042 l 347 1042 z "},"ύ":{"ha":694,"x_min":0,"x_max":579,"o":"m 0 463 l 0 810 l 116 810 l 116 463 l 116 116 l 347 116 l 463 116 l 463 463 l 463 810 l 579 810 l 579 463 l 579 116 l 463 116 l 463 0 l 347 0 l 116 0 l 116 116 l 0 116 l 0 463 m 347 1042 l 347 1157 l 463 1157 l 463 1042 l 347 1042 l 347 926 l 347 926 l 231 926 l 231 1042 l 347 1042 l 347 1042 z "},"ώ":{"ha":926,"x_min":0,"x_max":810,"o":"m 116 694 l 116 810 l 231 810 l 231 694 l 116 694 l 116 347 l 116 116 l 231 116 l 347 116 l 347 347 l 347 579 l 463 579 l 463 347 l 463 116 l 579 116 l 694 116 l 694 347 l 694 694 l 579 694 l 579 694 l 579 810 l 694 810 l 694 694 l 810 694 l 810 347 l 810 116 l 694 116 l 694 0 l 579 0 l 463 0 l 463 116 l 347 116 l 347 0 l 231 0 l 116 0 l 116 116 l 0 116 l 0 347 l 0 694 l 116 694 l 116 694 m 463 1042 l 463 1157 l 579 1157 l 579 1042 l 579 1042 l 463 1042 l 463 926 l 347 926 l 347 926 l 347 1042 l 463 1042 z "},"Ё":{"ha":810,"x_min":0,"x_max":694,"o":"m 0 463 l 0 1042 l 347 1042 l 694 1042 l 694 926 l 347 926 l 116 926 l 116 694 l 116 579 l 347 579 l 579 579 l 579 463 l 347 463 l 116 463 l 116 231 l 116 116 l 347 116 l 694 116 l 694 0 l 347 0 l 0 0 l 0 463 m 463 1157 l 463 1273 l 579 1273 l 579 1157 l 579 1157 l 463 1157 m 231 1157 l 231 1273 l 347 1273 l 347 1157 l 347 1157 l 231 1157 z "},"Ђ":{"ha":1157,"x_min":0,"x_max":1042,"o":"m 0 926 l 0 1042 l 463 1042 l 810 1042 l 810 926 l 694 926 l 463 926 l 463 810 l 463 694 l 694 694 l 926 694 l 926 579 l 926 579 l 1042 579 l 1042 347 l 1042 116 l 926 116 l 926 0 l 810 0 l 694 0 l 694 116 l 579 116 l 579 231 l 694 231 l 694 116 l 810 116 l 926 116 l 926 347 l 926 579 l 694 579 l 463 579 l 463 231 l 463 0 l 347 0 l 347 463 l 347 926 l 231 926 l 0 926 z "},"Ѓ":{"ha":694,"x_min":0,"x_max":579,"o":"m 0 463 l 0 1042 l 347 1042 l 579 1042 l 579 926 l 347 926 l 116 926 l 116 463 l 116 0 l 0 0 l 0 463 m 347 1273 l 347 1389 l 463 1389 l 463 1273 l 347 1273 l 347 1157 l 347 1157 l 231 1157 l 231 1273 l 347 1273 l 347 1273 z "},"Є":{"ha":926,"x_min":0,"x_max":810,"o":"m 231 926 l 231 1042 l 463 1042 l 694 1042 l 694 926 l 810 926 l 810 810 l 810 810 l 694 810 l 694 926 l 463 926 l 231 926 l 231 810 l 116 810 l 116 694 l 116 579 l 347 579 l 579 579 l 579 463 l 347 463 l 116 463 l 116 347 l 116 231 l 231 231 l 231 116 l 463 116 l 694 116 l 694 231 l 810 231 l 810 116 l 810 116 l 694 116 l 694 0 l 463 0 l 231 0 l 231 116 l 116 116 l 116 116 l 116 231 l 0 231 l 0 463 l 0 810 l 116 810 l 116 810 l 116 926 l 231 926 z "},"Ѕ":{"ha":810,"x_min":0,"x_max":694,"o":"m 116 926 l 116 1042 l 347 1042 l 579 1042 l 579 926 l 579 926 l 694 926 l 694 810 l 579 810 l 579 810 l 579 926 l 347 926 l 116 926 l 116 810 l 116 694 l 231 694 l 347 694 l 347 579 l 463 579 l 579 579 l 579 463 l 579 463 l 694 463 l 694 231 l 694 116 l 579 116 l 579 0 l 347 0 l 116 0 l 116 116 l 0 116 l 0 231 l 116 231 l 116 116 l 347 116 l 463 116 l 463 231 l 579 231 l 579 347 l 579 463 l 463 463 l 347 463 l 347 579 l 231 579 l 116 579 l 116 694 l 0 694 l 0 810 l 0 926 l 116 926 l 116 926 z "},"І":{"ha":231,"x_min":0,"x_max":116,"o":"m 0 463 l 0 1042 l 116 1042 l 116 463 l 116 0 l 0 0 l 0 463 z "},"Ї":{"ha":463,"x_min":0,"x_max":347,"o":"m 116 463 l 116 1042 l 231 1042 l 231 463 l 231 0 l 116 0 l 116 463 m 231 1157 l 231 1273 l 347 1273 l 347 1157 l 231 1157 l 231 1157 m 0 1157 l 0 1273 l 116 1273 l 116 1157 l 0 1157 l 0 1157 z "},"Ј":{"ha":694,"x_min":0,"x_max":579,"o":"m 231 926 l 231 1042 l 463 1042 l 579 1042 l 579 579 l 579 116 l 463 116 l 463 0 l 231 0 l 116 0 l 116 116 l 0 116 l 0 116 l 0 231 l 116 231 l 116 116 l 231 116 l 463 116 l 463 463 l 463 926 l 347 926 l 231 926 z "},"Љ":{"ha":1505,"x_min":0,"x_max":1389,"o":"m 231 694 l 231 1042 l 463 1042 l 810 1042 l 810 810 l 810 579 l 1042 579 l 1273 579 l 1273 463 l 1389 463 l 1389 231 l 1389 116 l 1273 116 l 1273 0 l 926 0 l 694 0 l 694 463 l 694 926 l 463 926 l 347 926 l 347 579 l 347 347 l 231 347 l 231 231 l 231 116 l 116 116 l 116 0 l 0 0 l 0 0 l 0 116 l 116 116 l 116 231 l 116 347 l 231 347 l 231 694 m 1273 231 l 1273 463 l 1042 463 l 810 463 l 810 231 l 810 116 l 1042 116 l 1273 116 l 1273 231 z "},"Њ":{"ha":1273,"x_min":0,"x_max":1157,"o":"m 0 463 l 0 1042 l 116 1042 l 116 810 l 116 579 l 347 579 l 463 579 l 463 810 l 463 1042 l 579 1042 l 579 810 l 579 579 l 810 579 l 1042 579 l 1042 463 l 1042 463 l 1157 463 l 1157 231 l 1157 116 l 1042 116 l 1042 0 l 810 0 l 463 0 l 463 231 l 463 463 l 347 463 l 116 463 l 116 231 l 116 0 l 0 0 l 0 463 m 1042 231 l 1042 463 l 810 463 l 579 463 l 579 231 l 579 116 l 810 116 l 1042 116 l 1042 231 z "},"Ћ":{"ha":1157,"x_min":0,"x_max":1042,"o":"m 0 926 l 0 1042 l 463 1042 l 810 1042 l 810 926 l 694 926 l 463 926 l 463 810 l 463 694 l 694 694 l 926 694 l 926 579 l 926 579 l 1042 579 l 1042 231 l 1042 0 l 926 0 l 926 231 l 926 579 l 694 579 l 463 579 l 463 231 l 463 0 l 347 0 l 347 463 l 347 926 l 231 926 l 0 926 z "},"Ќ":{"ha":810,"x_min":0,"x_max":694,"o":"m 0 463 l 0 1042 l 116 1042 l 116 810 l 116 579 l 231 579 l 347 579 l 347 694 l 347 810 l 463 810 l 463 926 l 579 926 l 579 926 l 579 1042 l 694 1042 l 694 926 l 579 926 l 579 810 l 579 810 l 463 810 l 463 694 l 463 579 l 347 579 l 347 463 l 347 463 l 463 463 l 463 347 l 463 231 l 579 231 l 579 116 l 579 116 l 694 116 l 694 0 l 579 0 l 579 0 l 579 116 l 463 116 l 463 231 l 347 231 l 347 347 l 347 463 l 231 463 l 116 463 l 116 231 l 116 0 l 0 0 l 0 463 m 463 1273 l 463 1389 l 579 1389 l 579 1273 l 579 1273 l 463 1273 l 463 1157 l 347 1157 l 347 1157 l 347 1273 l 463 1273 z "},"Ў":{"ha":926,"x_min":0,"x_max":810,"o":"m 0 926 l 0 1042 l 116 1042 l 116 926 l 116 926 l 231 926 l 231 810 l 231 694 l 347 694 l 347 579 l 347 463 l 463 463 l 463 579 l 463 694 l 579 694 l 579 810 l 579 926 l 694 926 l 694 1042 l 810 1042 l 810 926 l 810 926 l 694 926 l 694 810 l 694 694 l 579 694 l 579 579 l 579 463 l 463 463 l 463 347 l 463 231 l 347 231 l 347 116 l 347 116 l 231 116 l 231 0 l 116 0 l 0 0 l 0 116 l 116 116 l 231 116 l 231 231 l 347 231 l 347 347 l 347 463 l 231 463 l 231 579 l 231 694 l 116 694 l 116 810 l 116 926 l 0 926 m 231 1273 l 231 1389 l 347 1389 l 347 1273 l 463 1273 l 579 1273 l 579 1389 l 694 1389 l 694 1273 l 579 1273 l 579 1157 l 463 1157 l 347 1157 l 347 1273 l 231 1273 z "},"Џ":{"ha":926,"x_min":0,"x_max":810,"o":"m 0 463 l 0 1042 l 116 1042 l 116 579 l 116 116 l 347 116 l 694 116 l 694 579 l 694 1042 l 810 1042 l 810 463 l 810 0 l 579 0 l 463 0 l 463 -116 l 463 -231 l 347 -231 l 347 -116 l 347 0 l 116 0 l 0 0 l 0 463 z "},"А":{"ha":926,"x_min":0,"x_max":810,"o":"m 347 926 l 347 1042 l 463 1042 l 463 926 l 463 926 l 579 926 l 579 694 l 579 579 l 694 579 l 694 347 l 694 231 l 810 231 l 810 116 l 810 0 l 694 0 l 694 116 l 694 231 l 579 231 l 579 347 l 463 347 l 231 347 l 231 231 l 231 231 l 116 231 l 116 116 l 116 0 l 0 0 l 0 116 l 0 231 l 116 231 l 116 347 l 116 579 l 231 579 l 231 694 l 231 926 l 347 926 m 463 694 l 463 926 l 347 926 l 347 694 l 347 579 l 231 579 l 231 463 l 463 463 l 579 463 l 579 579 l 463 579 l 463 694 z "},"Б":{"ha":810,"x_min":0,"x_max":694,"o":"m 0 463 l 0 1042 l 347 1042 l 579 1042 l 579 926 l 347 926 l 116 926 l 116 694 l 116 579 l 347 579 l 579 579 l 579 463 l 579 463 l 694 463 l 694 231 l 694 116 l 579 116 l 579 0 l 347 0 l 0 0 l 0 463 m 579 231 l 579 463 l 347 463 l 116 463 l 116 231 l 116 116 l 347 116 l 579 116 l 579 231 z "},"В":{"ha":810,"x_min":0,"x_max":694,"o":"m 0 463 l 0 1042 l 347 1042 l 579 1042 l 579 926 l 579 926 l 694 926 l 694 694 l 694 579 l 579 579 l 579 463 l 579 463 l 694 463 l 694 231 l 694 116 l 579 116 l 579 0 l 347 0 l 0 0 l 0 463 m 579 694 l 579 926 l 347 926 l 116 926 l 116 694 l 116 579 l 347 579 l 579 579 l 579 694 m 579 231 l 579 463 l 347 463 l 116 463 l 116 231 l 116 116 l 347 116 l 579 116 l 579 231 z "},"Г":{"ha":694,"x_min":0,"x_max":579,"o":"m 0 463 l 0 1042 l 347 1042 l 579 1042 l 579 926 l 347 926 l 116 926 l 116 463 l 116 0 l 0 0 l 0 463 z "},"Д":{"ha":1042,"x_min":0,"x_max":926,"o":"m 231 694 l 231 1042 l 463 1042 l 810 1042 l 810 579 l 810 116 l 926 116 l 926 -116 l 926 -231 l 810 -231 l 810 -116 l 810 0 l 463 0 l 116 0 l 116 -116 l 116 -231 l 0 -231 l 0 -116 l 0 116 l 116 116 l 116 231 l 116 347 l 231 347 l 231 694 m 694 463 l 694 926 l 463 926 l 347 926 l 347 579 l 347 347 l 231 347 l 231 231 l 231 116 l 463 116 l 694 116 l 694 463 z "},"Е":{"ha":810,"x_min":0,"x_max":694,"o":"m 0 463 l 0 1042 l 347 1042 l 694 1042 l 694 926 l 347 926 l 116 926 l 116 694 l 116 579 l 347 579 l 579 579 l 579 463 l 347 463 l 116 463 l 116 231 l 116 116 l 347 116 l 694 116 l 694 0 l 347 0 l 0 0 l 0 463 z "},"Ж":{"ha":1389,"x_min":0,"x_max":1273,"o":"m 0 926 l 0 1042 l 116 1042 l 116 926 l 231 926 l 231 810 l 231 810 l 347 810 l 347 694 l 347 579 l 463 579 l 579 579 l 579 810 l 579 1042 l 694 1042 l 694 810 l 694 579 l 810 579 l 926 579 l 926 694 l 926 810 l 1042 810 l 1042 926 l 1157 926 l 1157 926 l 1157 1042 l 1273 1042 l 1273 926 l 1157 926 l 1157 810 l 1157 810 l 1042 810 l 1042 694 l 1042 579 l 926 579 l 926 463 l 926 463 l 1042 463 l 1042 347 l 1042 231 l 1157 231 l 1157 116 l 1157 116 l 1273 116 l 1273 0 l 1157 0 l 1157 0 l 1157 116 l 1042 116 l 1042 231 l 926 231 l 926 347 l 926 463 l 810 463 l 694 463 l 694 231 l 694 0 l 579 0 l 579 231 l 579 463 l 463 463 l 347 463 l 347 347 l 347 231 l 231 231 l 231 116 l 231 116 l 116 116 l 116 0 l 0 0 l 0 0 l 0 116 l 116 116 l 116 231 l 231 231 l 231 347 l 231 463 l 347 463 l 347 579 l 231 579 l 231 694 l 231 810 l 116 810 l 116 926 l 0 926 l 0 926 z "},"З":{"ha":810,"x_min":0,"x_max":694,"o":"m 116 926 l 116 1042 l 347 1042 l 579 1042 l 579 926 l 694 926 l 694 694 l 694 579 l 579 579 l 579 463 l 694 463 l 694 231 l 694 116 l 579 116 l 579 0 l 347 0 l 116 0 l 116 116 l 0 116 l 0 231 l 0 347 l 116 347 l 116 231 l 231 231 l 231 116 l 463 116 l 579 116 l 579 231 l 579 463 l 463 463 l 231 463 l 231 579 l 463 579 l 579 579 l 579 694 l 579 926 l 347 926 l 116 926 l 116 810 l 0 810 l 0 810 l 0 926 l 116 926 z "},"И":{"ha":926,"x_min":0,"x_max":810,"o":"m 0 463 l 0 1042 l 116 1042 l 116 579 l 116 231 l 231 231 l 231 347 l 231 463 l 347 463 l 347 463 l 347 579 l 463 579 l 463 694 l 463 810 l 579 810 l 579 810 l 579 926 l 694 926 l 694 1042 l 810 1042 l 810 463 l 810 0 l 694 0 l 694 347 l 694 810 l 579 810 l 579 694 l 579 579 l 463 579 l 463 463 l 347 463 l 347 347 l 347 231 l 231 231 l 231 116 l 116 116 l 116 0 l 116 0 l 0 0 l 0 463 z "},"Й":{"ha":926,"x_min":0,"x_max":810,"o":"m 0 463 l 0 1042 l 116 1042 l 116 579 l 116 231 l 231 231 l 231 347 l 231 463 l 347 463 l 347 463 l 347 579 l 463 579 l 463 694 l 463 810 l 579 810 l 579 810 l 579 926 l 694 926 l 694 1042 l 810 1042 l 810 463 l 810 0 l 694 0 l 694 347 l 694 810 l 579 810 l 579 694 l 579 579 l 463 579 l 463 463 l 347 463 l 347 347 l 347 231 l 231 231 l 231 116 l 116 116 l 116 0 l 116 0 l 0 0 l 0 463 m 231 1273 l 231 1389 l 347 1389 l 347 1273 l 463 1273 l 579 1273 l 579 1389 l 694 1389 l 694 1273 l 579 1273 l 579 1157 l 463 1157 l 347 1157 l 347 1273 l 231 1273 z "},"К":{"ha":810,"x_min":0,"x_max":694,"o":"m 0 463 l 0 1042 l 116 1042 l 116 810 l 116 579 l 231 579 l 347 579 l 347 694 l 347 810 l 463 810 l 463 926 l 579 926 l 579 926 l 579 1042 l 694 1042 l 694 926 l 579 926 l 579 810 l 579 810 l 463 810 l 463 694 l 463 579 l 347 579 l 347 463 l 347 463 l 463 463 l 463 347 l 463 231 l 579 231 l 579 116 l 579 116 l 694 116 l 694 0 l 579 0 l 579 0 l 579 116 l 463 116 l 463 231 l 347 231 l 347 347 l 347 463 l 231 463 l 116 463 l 116 231 l 116 0 l 0 0 l 0 463 z "},"Л":{"ha":926,"x_min":0,"x_max":810,"o":"m 231 694 l 231 1042 l 463 1042 l 810 1042 l 810 463 l 810 0 l 694 0 l 694 463 l 694 926 l 463 926 l 347 926 l 347 579 l 347 347 l 231 347 l 231 231 l 231 116 l 116 116 l 116 0 l 0 0 l 0 0 l 0 116 l 116 116 l 116 231 l 116 347 l 231 347 l 231 694 z "},"М":{"ha":926,"x_min":0,"x_max":810,"o":"m 0 463 l 0 1042 l 116 1042 l 116 926 l 116 810 l 231 810 l 231 694 l 231 579 l 347 579 l 347 347 l 347 231 l 463 231 l 463 347 l 463 579 l 579 579 l 579 694 l 579 810 l 694 810 l 694 926 l 694 1042 l 810 1042 l 810 463 l 810 0 l 694 0 l 694 231 l 694 579 l 579 579 l 579 347 l 579 231 l 463 231 l 463 116 l 463 0 l 347 0 l 347 116 l 347 231 l 231 231 l 231 347 l 231 579 l 116 579 l 116 231 l 116 0 l 0 0 l 0 463 z "},"Н":{"ha":926,"x_min":0,"x_max":810,"o":"m 0 463 l 0 1042 l 116 1042 l 116 810 l 116 579 l 347 579 l 694 579 l 694 810 l 694 1042 l 810 1042 l 810 463 l 810 0 l 694 0 l 694 231 l 694 463 l 347 463 l 116 463 l 116 231 l 116 0 l 0 0 l 0 463 z "},"О":{"ha":926,"x_min":0,"x_max":810,"o":"m 231 926 l 231 1042 l 347 1042 l 579 1042 l 579 926 l 579 926 l 694 926 l 694 810 l 810 810 l 810 463 l 810 231 l 694 231 l 694 116 l 579 116 l 579 0 l 347 0 l 231 0 l 231 116 l 116 116 l 116 116 l 116 231 l 0 231 l 0 463 l 0 810 l 116 810 l 116 810 l 116 926 l 231 926 m 579 810 l 579 926 l 347 926 l 231 926 l 231 810 l 116 810 l 116 463 l 116 231 l 231 231 l 231 116 l 347 116 l 579 116 l 579 231 l 694 231 l 694 463 l 694 810 l 579 810 l 579 810 z "},"П":{"ha":926,"x_min":0,"x_max":810,"o":"m 0 463 l 0 1042 l 347 1042 l 810 1042 l 810 463 l 810 0 l 694 0 l 694 463 l 694 926 l 347 926 l 116 926 l 116 463 l 116 0 l 0 0 l 0 463 z "},"Р":{"ha":810,"x_min":0,"x_max":694,"o":"m 0 463 l 0 1042 l 347 1042 l 579 1042 l 579 926 l 579 926 l 694 926 l 694 694 l 694 579 l 579 579 l 579 463 l 347 463 l 116 463 l 116 231 l 116 0 l 0 0 l 0 463 m 579 694 l 579 926 l 347 926 l 116 926 l 116 694 l 116 579 l 347 579 l 579 579 l 579 694 z "},"С":{"ha":926,"x_min":0,"x_max":810,"o":"m 231 926 l 231 1042 l 463 1042 l 694 1042 l 694 926 l 810 926 l 810 810 l 810 810 l 694 810 l 694 926 l 463 926 l 231 926 l 231 810 l 116 810 l 116 463 l 116 231 l 231 231 l 231 116 l 463 116 l 694 116 l 694 231 l 810 231 l 810 116 l 810 116 l 694 116 l 694 0 l 463 0 l 231 0 l 231 116 l 116 116 l 116 116 l 116 231 l 0 231 l 0 463 l 0 810 l 116 810 l 116 810 l 116 926 l 231 926 z "},"Т":{"ha":926,"x_min":0,"x_max":810,"o":"m 0 926 l 0 1042 l 463 1042 l 810 1042 l 810 926 l 694 926 l 463 926 l 463 463 l 463 0 l 347 0 l 347 463 l 347 926 l 231 926 l 0 926 z "},"У":{"ha":926,"x_min":0,"x_max":810,"o":"m 0 926 l 0 1042 l 116 1042 l 116 926 l 116 926 l 231 926 l 231 810 l 231 694 l 347 694 l 347 579 l 347 463 l 463 463 l 463 579 l 463 694 l 579 694 l 579 810 l 579 926 l 694 926 l 694 1042 l 810 1042 l 810 926 l 810 926 l 694 926 l 694 810 l 694 694 l 579 694 l 579 579 l 579 463 l 463 463 l 463 347 l 463 231 l 347 231 l 347 116 l 347 116 l 231 116 l 231 0 l 116 0 l 0 0 l 0 116 l 116 116 l 231 116 l 231 231 l 347 231 l 347 347 l 347 463 l 231 463 l 231 579 l 231 694 l 116 694 l 116 810 l 116 926 l 0 926 z "},"Ф":{"ha":926,"x_min":0,"x_max":810,"o":"m 347 926 l 347 1042 l 463 1042 l 463 926 l 579 926 l 694 926 l 694 810 l 810 810 l 810 463 l 810 231 l 694 231 l 694 116 l 579 116 l 463 116 l 463 0 l 347 0 l 347 0 l 347 116 l 231 116 l 116 116 l 116 231 l 0 231 l 0 463 l 0 810 l 116 810 l 116 810 l 116 926 l 231 926 l 347 926 m 347 463 l 347 810 l 231 810 l 116 810 l 116 463 l 116 231 l 231 231 l 347 231 l 347 463 m 694 463 l 694 810 l 579 810 l 463 810 l 463 463 l 463 231 l 579 231 l 694 231 l 694 463 z "},"Х":{"ha":926,"x_min":0,"x_max":810,"o":"m 0 926 l 0 1042 l 116 1042 l 116 926 l 231 926 l 231 810 l 231 810 l 347 810 l 347 694 l 347 579 l 463 579 l 463 694 l 463 810 l 579 810 l 579 926 l 694 926 l 694 926 l 694 1042 l 810 1042 l 810 926 l 694 926 l 694 810 l 694 810 l 579 810 l 579 694 l 579 579 l 463 579 l 463 463 l 463 463 l 579 463 l 579 347 l 579 231 l 694 231 l 694 116 l 694 116 l 810 116 l 810 0 l 694 0 l 694 0 l 694 116 l 579 116 l 579 231 l 463 231 l 463 347 l 463 463 l 347 463 l 347 347 l 347 231 l 231 231 l 231 116 l 231 116 l 116 116 l 116 0 l 0 0 l 0 0 l 0 116 l 116 116 l 116 231 l 231 231 l 231 347 l 231 463 l 347 463 l 347 579 l 231 579 l 231 694 l 231 810 l 116 810 l 116 926 l 0 926 l 0 926 z "},"Ц":{"ha":1042,"x_min":0,"x_max":926,"o":"m 0 463 l 0 1042 l 116 1042 l 116 579 l 116 116 l 347 116 l 694 116 l 694 579 l 694 1042 l 810 1042 l 810 579 l 810 116 l 926 116 l 926 -116 l 926 -231 l 810 -231 l 810 -116 l 810 0 l 347 0 l 0 0 l 0 463 z "},"Ч":{"ha":810,"x_min":0,"x_max":694,"o":"m 0 694 l 0 1042 l 116 1042 l 116 694 l 116 463 l 347 463 l 579 463 l 579 694 l 579 1042 l 694 1042 l 694 463 l 694 0 l 579 0 l 579 116 l 579 347 l 347 347 l 116 347 l 116 463 l 0 463 l 0 694 z "},"Ш":{"ha":1157,"x_min":0,"x_max":1042,"o":"m 0 463 l 0 1042 l 116 1042 l 116 579 l 116 116 l 347 116 l 463 116 l 463 579 l 463 1042 l 579 1042 l 579 579 l 579 116 l 810 116 l 926 116 l 926 579 l 926 1042 l 1042 1042 l 1042 463 l 1042 0 l 579 0 l 0 0 l 0 463 z "},"Щ":{"ha":1273,"x_min":0,"x_max":1157,"o":"m 0 463 l 0 1042 l 116 1042 l 116 579 l 116 116 l 347 116 l 463 116 l 463 579 l 463 1042 l 579 1042 l 579 579 l 579 116 l 810 116 l 926 116 l 926 579 l 926 1042 l 1042 1042 l 1042 579 l 1042 116 l 1157 116 l 1157 -116 l 1157 -231 l 1042 -231 l 1042 -116 l 1042 0 l 579 0 l 0 0 l 0 463 z "},"Ъ":{"ha":1157,"x_min":0,"x_max":1042,"o":"m 0 926 l 0 1042 l 231 1042 l 463 1042 l 463 810 l 463 579 l 694 579 l 926 579 l 926 463 l 926 463 l 1042 463 l 1042 231 l 1042 116 l 926 116 l 926 0 l 694 0 l 347 0 l 347 463 l 347 926 l 231 926 l 0 926 m 926 231 l 926 463 l 694 463 l 463 463 l 463 231 l 463 116 l 694 116 l 926 116 l 926 231 z "},"Ы":{"ha":1042,"x_min":0,"x_max":926,"o":"m 810 463 l 810 1042 l 926 1042 l 926 463 l 926 0 l 810 0 l 810 463 m 0 463 l 0 1042 l 116 1042 l 116 810 l 116 579 l 347 579 l 579 579 l 579 463 l 579 463 l 694 463 l 694 231 l 694 116 l 579 116 l 579 0 l 347 0 l 0 0 l 0 463 m 579 231 l 579 463 l 347 463 l 116 463 l 116 231 l 116 116 l 347 116 l 579 116 l 579 231 z "},"Ь":{"ha":810,"x_min":0,"x_max":694,"o":"m 0 463 l 0 1042 l 116 1042 l 116 810 l 116 579 l 347 579 l 579 579 l 579 463 l 579 463 l 694 463 l 694 231 l 694 116 l 579 116 l 579 0 l 347 0 l 0 0 l 0 463 m 579 231 l 579 463 l 347 463 l 116 463 l 116 231 l 116 116 l 347 116 l 579 116 l 579 231 z "},"Э":{"ha":926,"x_min":0,"x_max":810,"o":"m 116 926 l 116 1042 l 347 1042 l 579 1042 l 579 926 l 579 926 l 694 926 l 694 810 l 810 810 l 810 463 l 810 231 l 694 231 l 694 116 l 579 116 l 579 0 l 347 0 l 116 0 l 116 116 l 0 116 l 0 231 l 116 231 l 116 116 l 347 116 l 579 116 l 579 231 l 694 231 l 694 347 l 694 463 l 463 463 l 231 463 l 231 579 l 463 579 l 694 579 l 694 694 l 694 810 l 579 810 l 579 810 l 579 926 l 347 926 l 116 926 l 116 810 l 116 810 l 0 810 l 0 926 l 116 926 l 116 926 z "},"Ю":{"ha":1273,"x_min":0,"x_max":1157,"o":"m 0 463 l 0 1042 l 116 1042 l 116 810 l 116 579 l 231 579 l 347 579 l 347 694 l 347 810 l 463 810 l 463 926 l 579 926 l 579 926 l 579 1042 l 810 1042 l 926 1042 l 926 926 l 1042 926 l 1042 810 l 1042 810 l 1157 810 l 1157 463 l 1157 231 l 1042 231 l 1042 116 l 1042 116 l 926 116 l 926 0 l 810 0 l 579 0 l 579 116 l 463 116 l 463 231 l 347 231 l 347 347 l 347 463 l 231 463 l 116 463 l 116 231 l 116 0 l 0 0 l 0 463 m 926 810 l 926 926 l 810 926 l 579 926 l 579 810 l 579 810 l 463 810 l 463 463 l 463 231 l 579 231 l 579 116 l 810 116 l 926 116 l 926 231 l 1042 231 l 1042 463 l 1042 810 l 926 810 z "},"Я":{"ha":926,"x_min":0,"x_max":810,"o":"m 116 926 l 116 1042 l 463 1042 l 810 1042 l 810 463 l 810 0 l 694 0 l 694 231 l 694 463 l 579 463 l 463 463 l 463 347 l 347 347 l 347 231 l 347 231 l 231 231 l 231 116 l 116 116 l 116 0 l 116 0 l 0 0 l 0 116 l 116 116 l 116 116 l 116 231 l 231 231 l 231 347 l 347 347 l 347 347 l 347 463 l 231 463 l 116 463 l 116 579 l 0 579 l 0 694 l 0 926 l 116 926 l 116 926 m 694 694 l 694 926 l 347 926 l 116 926 l 116 694 l 116 579 l 347 579 l 694 579 l 694 694 z "},"а":{"ha":694,"x_min":0,"x_max":694,"o":"m 116 694 l 116 810 l 347 810 l 463 810 l 463 694 l 579 694 l 579 347 l 579 116 l 694 116 l 694 0 l 579 0 l 579 0 l 579 116 l 463 116 l 347 116 l 347 0 l 231 0 l 116 0 l 116 116 l 0 116 l 0 231 l 0 347 l 116 347 l 116 347 l 116 463 l 347 463 l 463 463 l 463 579 l 463 694 l 347 694 l 116 694 l 116 579 l 116 579 l 0 579 l 0 694 l 116 694 l 116 694 m 463 231 l 463 347 l 347 347 l 116 347 l 116 231 l 116 116 l 231 116 l 347 116 l 347 231 l 463 231 z "},"б":{"ha":694,"x_min":0,"x_max":579,"o":"m 347 926 l 347 1042 l 463 1042 l 579 1042 l 579 926 l 463 926 l 347 926 l 347 810 l 231 810 l 116 810 l 116 694 l 347 694 l 579 694 l 579 347 l 579 116 l 463 116 l 463 0 l 347 0 l 116 0 l 116 116 l 0 116 l 0 463 l 0 810 l 116 810 l 116 810 l 116 926 l 231 926 l 347 926 m 463 347 l 463 579 l 347 579 l 116 579 l 116 347 l 116 116 l 347 116 l 463 116 l 463 347 z "},"в":{"ha":579,"x_min":0,"x_max":463,"o":"m 0 347 l 0 810 l 116 810 l 347 810 l 347 694 l 347 694 l 463 694 l 463 579 l 463 463 l 347 463 l 347 347 l 347 347 l 463 347 l 463 231 l 463 116 l 347 116 l 347 0 l 116 0 l 0 0 l 0 347 m 347 579 l 347 694 l 231 694 l 116 694 l 116 579 l 116 463 l 231 463 l 347 463 l 347 579 m 347 231 l 347 347 l 231 347 l 116 347 l 116 231 l 116 116 l 231 116 l 347 116 l 347 231 z "},"г":{"ha":463,"x_min":0,"x_max":347,"o":"m 0 347 l 0 810 l 116 810 l 347 810 l 347 694 l 231 694 l 116 694 l 116 347 l 116 0 l 0 0 l 0 347 z "},"д":{"ha":926,"x_min":0,"x_max":810,"o":"m 231 579 l 231 810 l 463 810 l 694 810 l 694 463 l 694 116 l 810 116 l 810 -116 l 810 -231 l 694 -231 l 694 -116 l 694 0 l 463 0 l 116 0 l 116 -116 l 116 -231 l 0 -231 l 0 -116 l 0 116 l 116 116 l 116 231 l 116 347 l 231 347 l 231 579 m 579 347 l 579 694 l 463 694 l 347 694 l 347 463 l 347 347 l 231 347 l 231 231 l 231 116 l 463 116 l 579 116 l 579 347 z "},"е":{"ha":694,"x_min":0,"x_max":579,"o":"m 116 694 l 116 810 l 347 810 l 463 810 l 463 694 l 579 694 l 579 463 l 579 347 l 347 347 l 116 347 l 116 231 l 116 116 l 347 116 l 463 116 l 463 231 l 579 231 l 579 116 l 579 116 l 463 116 l 463 0 l 347 0 l 116 0 l 116 116 l 0 116 l 0 347 l 0 694 l 116 694 l 116 694 m 463 579 l 463 694 l 347 694 l 116 694 l 116 579 l 116 463 l 347 463 l 463 463 l 463 579 z "},"ж":{"ha":1157,"x_min":0,"x_max":1042,"o":"m 0 694 l 0 810 l 116 810 l 116 694 l 231 694 l 231 579 l 231 579 l 347 579 l 347 463 l 463 463 l 463 579 l 463 810 l 579 810 l 579 579 l 579 463 l 694 463 l 694 463 l 694 579 l 810 579 l 810 694 l 926 694 l 926 694 l 926 810 l 1042 810 l 1042 694 l 926 694 l 926 579 l 926 579 l 810 579 l 810 463 l 694 463 l 694 347 l 694 347 l 810 347 l 810 231 l 926 231 l 926 116 l 926 116 l 1042 116 l 1042 0 l 926 0 l 926 0 l 926 116 l 810 116 l 810 231 l 694 231 l 694 231 l 694 347 l 579 347 l 579 116 l 579 0 l 463 0 l 463 116 l 463 347 l 347 347 l 347 231 l 231 231 l 231 116 l 231 116 l 116 116 l 116 0 l 0 0 l 0 0 l 0 116 l 116 116 l 116 231 l 231 231 l 231 231 l 231 347 l 347 347 l 347 463 l 231 463 l 231 463 l 231 579 l 116 579 l 116 694 l 0 694 l 0 694 z "},"з":{"ha":579,"x_min":0,"x_max":463,"o":"m 116 694 l 116 810 l 231 810 l 347 810 l 347 694 l 347 694 l 463 694 l 463 579 l 463 463 l 347 463 l 347 347 l 347 347 l 463 347 l 463 231 l 463 116 l 347 116 l 347 0 l 231 0 l 116 0 l 116 116 l 0 116 l 0 231 l 116 231 l 116 116 l 231 116 l 347 116 l 347 231 l 347 347 l 231 347 l 116 347 l 116 463 l 231 463 l 347 463 l 347 579 l 347 694 l 231 694 l 116 694 l 116 579 l 116 579 l 0 579 l 0 694 l 116 694 l 116 694 z "},"и":{"ha":694,"x_min":0,"x_max":579,"o":"m 0 347 l 0 810 l 116 810 l 116 579 l 116 347 l 231 347 l 231 463 l 231 579 l 347 579 l 347 579 l 347 694 l 463 694 l 463 810 l 579 810 l 579 347 l 579 0 l 463 0 l 463 231 l 463 579 l 347 579 l 347 463 l 347 347 l 231 347 l 231 231 l 116 231 l 116 116 l 116 0 l 0 0 l 0 347 z "},"й":{"ha":694,"x_min":0,"x_max":579,"o":"m 0 347 l 0 810 l 116 810 l 116 579 l 116 347 l 231 347 l 231 463 l 231 579 l 347 579 l 347 579 l 347 694 l 463 694 l 463 810 l 579 810 l 579 347 l 579 0 l 463 0 l 463 231 l 463 579 l 347 579 l 347 463 l 347 347 l 231 347 l 231 231 l 116 231 l 116 116 l 116 0 l 0 0 l 0 347 m 116 1042 l 116 1157 l 231 1157 l 231 1042 l 347 1042 l 463 1042 l 463 1157 l 579 1157 l 579 1042 l 579 1042 l 463 1042 l 463 926 l 347 926 l 231 926 l 231 1042 l 116 1042 l 116 1042 z "}}}
